<?xml version="1.0" standalone="no"?>
<!DOCTYPE svg PUBLIC "-//W3C//DTD SVG 1.1//EN" "http://www.w3.org/Graphics/SVG/1.1/DTD/svg11.dtd" >
<svg xmlns="http://www.w3.org/2000/svg" xmlns:xlink="http://www.w3.org/1999/xlink" version="1.1">
<metadata></metadata>
<defs>
<font id="noto_sansregular" horiz-adv-x="0" >
<font-face units-per-em="2048" ascent="1638" descent="-410" />
<missing-glyph horiz-adv-x="516" />
<glyph />
<glyph horiz-adv-x="1012" />
<glyph />
<glyph />
<glyph unicode="&#xd;" horiz-adv-x="516" />
<glyph unicode=" "  horiz-adv-x="516" />
<glyph unicode="&#x09;" horiz-adv-x="516" />
<glyph unicode="&#xa0;" horiz-adv-x="516" />
<glyph unicode="!" horiz-adv-x="761" d="M290 108q0 37 9.5 62.5t26 41.5t39 23t48.5 7q25 0 48 -7t39.5 -23t26 -41.5t9.5 -62.5q0 -36 -9.5 -62t-26 -42.5t-39.5 -24t-48 -7.5q-26 0 -48.5 7.5t-39 24t-26 42.5t-9.5 62zM307 1418h216l-50 -1016h-117z" />
<glyph unicode="&#x22;" horiz-adv-x="997" d="M228 1448h220l-49 -512h-122zM522 1781zM527 1236zM578 1448h219l-49 -512h-120z" />
<glyph unicode="#" horiz-adv-x="1296" d="M68 350v131h272l61 302h-261v130h284l66 343h140l-65 -343h278l67 343h137l-67 -343h249v-130h-275l-58 -302h264v-131h-290l-67 -350h-140l69 350h-276l-68 -350h-137l64 350h-247zM480 481h278l58 302h-277z" />
<glyph unicode="$" horiz-adv-x="1135" d="M123 163v163q73 -34 178 -59t201 -26v415q-198 63 -280.5 148t-82.5 217q0 128 98 210.5t265 101.5v174h128v-172q184 -5 350 -74l-55 -137q-150 59 -295 70v-409q155 -53 231 -99.5t112 -106t36 -143.5q0 -133 -98.5 -220.5t-280.5 -109.5v-221h-128v212 q-110 2 -211.5 19t-167.5 47zM316 1023q0 -70 42 -114t144 -81v362q-91 -15 -138.5 -59t-47.5 -108zM630 250q202 31 202 173q0 70 -45.5 111t-156.5 80v-364z" />
<glyph unicode="%" horiz-adv-x="1644" d="M113 897q0 85 16.5 152t52 113t90 69.5t129.5 23.5q71 0 125.5 -23.5t92 -69.5t56 -113t18.5 -152q0 -83 -17 -150.5t-53 -114t-91.5 -71t-130.5 -24.5q-71 0 -124.5 24.5t-90.5 71t-55 114t-18 150.5zM257 897q0 -116 34 -174.5t110 -58.5q148 0 148 233t-148 233 q-76 0 -110 -58t-34 -175zM364 0l767 1236h153l-765 -1236h-155zM953 340q0 85 16.5 152t51.5 112.5t89.5 69.5t129.5 24q72 0 126.5 -24t91 -69.5t55 -112.5t18.5 -152q0 -84 -16.5 -150.5t-52.5 -113t-91 -71t-131 -24.5q-71 0 -125 24.5t-90 71t-54 113t-18 150.5z M1096 340q0 -116 34 -173.5t110 -57.5q148 0 148 231q0 233 -148 233q-76 0 -110 -57.5t-34 -175.5z" />
<glyph unicode="&#x26;" horiz-adv-x="1454" d="M106 370q0 126 65 221t240 196q-74 84 -105.5 133t-49 101t-17.5 109q0 144 96 227t269 83q160 0 252 -81.5t92 -224.5q0 -106 -66.5 -194t-218.5 -178l384 -368q90 105 139 315h177q-67 -276 -203 -427l290 -282h-237l-172 167q-111 -99 -228.5 -142.5t-260.5 -43.5 q-209 0 -327.5 101.5t-118.5 287.5zM288 375q0 -109 74.5 -174.5t195.5 -65.5q220 0 371 141l-413 401q-134 -80 -181 -146t-47 -156zM409 1132q0 -63 34.5 -126t112.5 -140q120 67 169.5 128t49.5 140q0 74 -49.5 118.5t-127.5 44.5q-87 0 -138 -45.5t-51 -119.5z" />
<glyph unicode="'" horiz-adv-x="647" d="M228 1448h220l-49 -512h-122zM435 1781zM439 1236z" />
<glyph unicode="(" horiz-adv-x="702" d="M136 670q0 139 17 272t52.5 257t89 238t128.5 215h161q-67 -106 -119.5 -222.5t-88.5 -242.5t-53 -256.5t-17 -262.5q0 -270 70.5 -525.5t209.5 -470.5h-163q-75 103 -128.5 220t-89 244.5t-52.5 262t-17 271.5zM435 1781zM439 1236zM465 -532z" />
<glyph unicode=")" horiz-adv-x="702" d="M116 1652h163q75 -103 129 -220t89.5 -244.5t52 -261.5t16.5 -272q0 -139 -16.5 -272t-52 -257t-89.5 -238t-129 -215h-161q67 106 119.5 222.5t88.5 242.5t53.5 256.5t17.5 262.5q0 270 -71 526t-210 470zM241 1781zM245 1236zM465 -532z" />
<glyph unicode="*" horiz-adv-x="1205" d="M146 1018l28 188l379 -108l-42 381h199l-42 -381l385 108l26 -188l-367 -27l238 -316l-173 -93l-171 347l-153 -347l-178 93l234 316zM435 1781zM439 1236z" />
<glyph unicode="+" horiz-adv-x="1094" d="M99 567v146h375v376h146v-376h375v-146h-375v-374h-146v374h-375zM439 1236z" />
<glyph unicode="," horiz-adv-x="496" d="M61 -256q15 59 29 123t27 127.5t23.5 124t18.5 112.5h192l15 -22q-14 -53 -33 -112t-41.5 -119t-47.5 -120t-49 -114h-134z" />
<glyph unicode="-" horiz-adv-x="675" d="M97 508v163h481v-163h-481zM439 1236z" />
<glyph unicode="." horiz-adv-x="532" d="M143 108q0 37 9.5 62.5t26 41.5t39 23t48.5 7q25 0 48 -7t39.5 -23t26 -41.5t9.5 -62.5q0 -36 -9.5 -62t-26 -42.5t-39.5 -24t-48 -7.5q-26 0 -48.5 7.5t-39 24t-26 42.5t-9.5 62z" />
<glyph unicode="/" horiz-adv-x="852" d="M83 -329l523 1983h163l-521 -1983h-165zM435 1781zM439 1236zM465 -532z" />
<glyph unicode="0" horiz-adv-x="1094" d="M95 711q0 172 25 307.5t78.5 229.5t139.5 143t208 49q116 0 201 -49t141.5 -142.5t84.5 -229t28 -308.5q0 -172 -24.5 -307.5t-79.5 -229.5t-141.5 -143.5t-209.5 -49.5q-114 0 -199 49.5t-141 143.5t-83.5 229.5t-27.5 307.5zM275 711q0 -145 14.5 -254t46.5 -181 t83.5 -108.5t126.5 -36.5t127.5 36t85.5 107.5t48.5 181t15.5 255.5t-15.5 254.5t-48.5 180t-85.5 107.5t-127.5 36t-126.5 -36t-83.5 -107.5t-46.5 -180t-14.5 -254.5z" />
<glyph unicode="1" horiz-adv-x="1094" d="M173 1128l371 290h146v-1418h-171v886q0 41 0.5 88.5t2 94.5t3 90.5t2.5 76.5q-17 -18 -29.5 -30.5t-25.5 -24t-27.5 -24.5t-35.5 -31l-143 -117z" />
<glyph unicode="2" horiz-adv-x="1094" d="M93 0v151l340 370q72 78 129.5 143t97.5 127.5t61.5 125t21.5 135.5q0 58 -16.5 101.5t-47 74t-72 46t-93.5 15.5q-92 0 -166 -37.5t-141 -95.5l-99 116q38 35 83 65.5t96.5 52.5t108.5 35.5t120 13.5q93 0 168.5 -26.5t127.5 -75.5t81 -119t29 -159q0 -82 -26 -157 t-71 -147t-107.5 -145t-135.5 -151l-273 -290v-8h669v-161h-885z" />
<glyph unicode="3" horiz-adv-x="1094" d="M80 57v165q84 -44 182.5 -68.5t188.5 -24.5q89 0 154 19.5t107.5 55.5t62 88t19.5 117q0 66 -25.5 113t-73 77.5t-116 45.5t-154.5 15h-129v146h129q78 0 139.5 19.5t102.5 55.5t62.5 85.5t21.5 108.5q0 50 -17.5 90t-49.5 67.5t-76.5 42t-99.5 14.5q-104 0 -183 -32.5 t-150 -84.5l-90 121q37 30 82 56t98.5 46t114 32t128.5 12q105 0 184 -26.5t132.5 -73.5t80.5 -111.5t27 -141.5q0 -70 -22 -128.5t-62.5 -101t-96.5 -70t-125 -39.5v-6q171 -21 260.5 -109t89.5 -228q0 -94 -31.5 -171.5t-95.5 -133.5t-162 -87t-232 -31 q-106 0 -199.5 16.5t-175.5 59.5z" />
<glyph unicode="4" horiz-adv-x="1094" d="M22 318v154l643 954h183v-947h206v-161h-206v-318h-171v318h-655zM195 479h482v345q0 55 1.5 114.5t3.5 116.5t4.5 106.5t3.5 82.5h-9q-7 -20 -17 -43.5t-22 -47.5t-25 -46.5t-23 -37.5z" />
<glyph unicode="5" horiz-adv-x="1094" d="M127 57v167q32 -22 75 -39.5t90.5 -29t95.5 -18t89 -6.5q77 0 137 18t102 55.5t64 95t22 136.5q0 138 -85.5 211.5t-247.5 73.5q-27 0 -57.5 -2.5t-61 -6.5t-58 -8.5t-48.5 -8.5l-87 56l53 667h670v-161h-516l-38 -406q31 6 82 12.5t121 6.5q96 0 179 -26.5t144.5 -79 t96.5 -130t35 -179.5q0 -111 -33 -199t-98 -149t-160.5 -93.5t-220.5 -32.5q-49 0 -97 4.5t-92 14t-84 24t-72 33.5z" />
<glyph unicode="6" horiz-adv-x="1094" d="M110 606q0 102 10 203t35.5 193.5t70.5 172t113.5 138.5t164.5 92.5t225 33.5q19 0 41 -1t45 -3.5t44 -6t37 -8.5v-150q-34 11 -76.5 17t-84.5 6q-87 0 -153.5 -21t-115 -58.5t-81 -90t-53 -116t-30 -135.5t-12.5 -149h12q19 35 46.5 65.5t64.5 52t83 34.5t103 13 q93 0 167.5 -29t127 -84t81 -135t28.5 -183q0 -111 -30 -199t-86.5 -149.5t-136 -94.5t-178.5 -33q-97 0 -181.5 37.5t-147 115t-98 195t-35.5 277.5zM286 491q0 -65 18 -129.5t53.5 -116t89 -84t123.5 -32.5q59 0 107 20t82.5 60t53.5 101.5t19 146.5q0 68 -16 121.5 t-48 91.5t-80 58.5t-112 20.5q-65 0 -118.5 -23t-91.5 -59.5t-59 -83t-21 -92.5z" />
<glyph unicode="7" horiz-adv-x="1094" d="M87 1257v161h912v-141l-538 -1277h-188l546 1257h-732z" />
<glyph unicode="8" horiz-adv-x="1094" d="M103 362q0 73 21.5 131t58.5 104.5t87.5 82.5t106.5 63q-47 30 -89 65.5t-72.5 79t-48.5 96.5t-18 117q0 84 32.5 147.5t88 106.5t127.5 64t151 21q82 0 154 -21t127 -64t87 -107t32 -149q0 -65 -19.5 -117.5t-53.5 -94.5t-80.5 -75.5t-100.5 -60.5q56 -30 109.5 -67 t96 -83t68 -103.5t25.5 -127.5q0 -90 -32.5 -162t-91 -122.5t-140.5 -77.5t-181 -27q-107 0 -190 26t-139.5 75t-86 120t-29.5 160zM276 360q0 -52 15.5 -95t48.5 -73.5t83.5 -47.5t120.5 -17q68 0 120 17t87 48.5t52.5 76t17.5 99.5q0 50 -19 91t-54.5 75.5t-85 65.5 t-110.5 62l-29 13q-122 -58 -184.5 -133t-62.5 -182zM322 1092q0 -55 17 -95t47 -71t72.5 -55.5t91.5 -47.5q47 21 88 46t71.5 57t48 73t17.5 93q0 98 -61 149.5t-168 51.5q-103 0 -163.5 -51.5t-60.5 -149.5zM938 675z" />
<glyph unicode="9" horiz-adv-x="1094" d="M103 961q0 111 30.5 199.5t86 150.5t136 95t178.5 33t182.5 -38t146.5 -115.5t98 -195.5t36 -277q0 -102 -10 -203.5t-36 -193.5t-70.5 -172t-113.5 -138t-165 -91.5t-225 -33.5q-18 0 -40.5 1t-44.5 3t-43.5 5t-38.5 8v151q34 -12 77 -18t85 -6q130 0 214.5 45.5 t134 123.5t70.5 182t26 219h-13q-19 -34 -46.5 -64.5t-64 -52.5t-83 -34.5t-104.5 -12.5q-92 0 -166.5 28.5t-127 83.5t-81 135t-28.5 183zM275 961q0 -68 16 -121.5t48 -91.5t80 -58.5t112 -20.5q66 0 119 23t91 59.5t59 83t21 92.5q0 65 -18 129.5t-53.5 116.5t-89 84 t-124.5 32q-58 0 -106 -19.5t-83 -60t-53.5 -102t-18.5 -146.5z" />
<glyph unicode=":" horiz-adv-x="584" d="M170 108q0 37 9.5 62.5t26 41.5t39 23t48.5 7q25 0 48 -7t39.5 -23t26 -41.5t9.5 -62.5q0 -36 -9.5 -62t-26 -42.5t-39.5 -24t-48 -7.5q-26 0 -48.5 7.5t-39 24t-26 42.5t-9.5 62zM170 957q0 38 9.5 64t26 42t39 22.5t48.5 6.5q25 0 48 -6.5t39.5 -22.5t26 -42t9.5 -64 q0 -35 -9.5 -60.5t-26 -42t-39.5 -24t-48 -7.5q-26 0 -48.5 7.5t-39 24t-26 42t-9.5 60.5zM293 1236z" />
<glyph unicode=";" horiz-adv-x="584" d="M88 -256q15 59 29 123t27 127.5t23.5 124t18.5 112.5h192l15 -22q-14 -53 -33 -112t-41.5 -119t-47.5 -120t-49 -114h-134zM170 957q0 38 9.5 64t26 42t39 22.5t48.5 6.5q25 0 48 -6.5t39.5 -22.5t26 -42t9.5 -64q0 -35 -9.5 -60.5t-26 -42t-39.5 -24t-48 -7.5 q-26 0 -48.5 7.5t-39 24t-26 42t-9.5 60.5zM293 1236z" />
<glyph unicode="&#x3c;" horiz-adv-x="1094" d="M99 564v99l896 466v-155l-713 -353l713 -313v-156zM439 1236z" />
<glyph unicode="=" horiz-adv-x="1094" d="M99 370v145h896v-145h-896zM99 767v145h896v-145h-896zM439 1236z" />
<glyph unicode="&#x3e;" horiz-adv-x="1094" d="M99 152v156l714 313l-714 353v155l896 -466v-99zM439 1236z" />
<glyph unicode="?" horiz-adv-x="1028" d="M142 1341q78 40 169.5 69t185.5 29q90 0 162 -25t122.5 -71.5t78 -114t27.5 -151.5q0 -65 -13.5 -116t-39.5 -94.5t-65 -84.5t-91 -87q-50 -43 -82 -75.5t-50.5 -63t-25.5 -62.5t-7 -75v-17h-135v35q0 56 7.5 100.5t26.5 83.5t51 76t80 78q47 40 80 72.5t53.5 66t31 71.5 t10.5 90q0 46 -14.5 84.5t-42.5 66t-69 42.5t-95 15q-81 0 -153.5 -25t-140.5 -58zM332 108q0 37 9.5 62.5t26 41.5t39 23t48.5 7q25 0 48 -7t39.5 -23t26 -41.5t9.5 -62.5q0 -36 -9.5 -62t-26 -42.5t-39.5 -24t-48 -7.5q-26 0 -48.5 7.5t-39 24t-26 42.5t-9.5 62z" />
<glyph unicode="@" horiz-adv-x="1785" d="M115 556q0 251 104.5 448.5t296.5 305.5t441 108q209 0 372.5 -88t252 -250t88.5 -371q0 -136 -43 -250.5t-120.5 -178.5t-179.5 -64q-82 0 -138.5 48t-70.5 125h-9q-38 -81 -111 -127t-170 -46q-147 0 -231.5 98.5t-84.5 271.5q0 129 52 231.5t149 159t221 56.5 q67 0 153 -12t151 -35l-23 -454v-22q0 -170 124 -170q86 0 139.5 101.5t53.5 269.5q0 174 -71.5 305t-203 201t-300.5 70q-213 0 -371.5 -88.5t-243 -253t-84.5 -382.5q0 -293 154 -451t448 -158q206 0 427 86v-135q-194 -82 -427 -82q-353 0 -549 193.5t-196 539.5z M667 582q0 -242 188 -242q198 0 216 299l12 249q-71 20 -147 20q-125 0 -197 -86.5t-72 -239.5z" />
<glyph unicode="A" horiz-adv-x="1269" d="M0 0l554 1424h161l553 -1424h-185l-171 439h-563l-169 -439h-180zM409 598h449l-159 429l-68 213q-29 -117 -61 -213z" />
<glyph unicode="B" horiz-adv-x="1291" d="M193 0v1418h405q285 0 411.5 -85t126.5 -266q0 -126 -69 -208t-201 -106v-10q164 -28 241 -113.5t77 -225.5q0 -191 -130 -297.5t-362 -106.5h-499zM372 151h286q170 0 252.5 66t82.5 200q0 127 -87 187.5t-262 60.5h-272v-514zM372 815h261q167 0 243 53.5t76 178.5 q0 116 -83 167.5t-263 51.5h-234v-451z" />
<glyph unicode="C" horiz-adv-x="1255" d="M121 711q0 219 81 384t236 254.5t364 89.5q225 0 392 -84l-72 -151q-169 77 -322 77q-229 0 -360 -153t-131 -419q0 -274 127.5 -423t361.5 -149q152 0 341 56v-155q-90 -33 -173.5 -45t-192.5 -12q-313 0 -482.5 190.5t-169.5 539.5z" />
<glyph unicode="D" horiz-adv-x="1450" d="M193 0v1418h437q330 0 514.5 -182t184.5 -513q0 -351 -191.5 -537t-549.5 -186h-395zM372 153h193q576 0 576 564q0 270 -133.5 409.5t-403.5 139.5h-232v-1113z" />
<glyph unicode="E" horiz-adv-x="1104" d="M193 0v1418h793v-157h-614v-442h578v-156h-578v-506h614v-157h-793z" />
<glyph unicode="F" horiz-adv-x="1031" d="M193 0v1418h793v-157h-614v-502h576v-157h-576v-602h-179z" />
<glyph unicode="G" horiz-adv-x="1446" d="M121 709q0 222 88.5 388t254.5 254t393 88q226 0 422 -84l-67 -155q-188 81 -366 81q-253 0 -396 -153t-143 -419q0 -281 137 -427.5t398 -146.5q143 0 278 34v421h-311v159h490v-696q-113 -36 -229 -54t-270 -18q-324 0 -501.5 192t-177.5 536z" />
<glyph unicode="H" horiz-adv-x="1472" d="M193 0v1418h179v-599h727v599h178v-1418h-178v662h-727v-662h-179z" />
<glyph unicode="I" horiz-adv-x="673" d="M80 0v103l166 38v1135l-166 39v103h512v-103l-167 -39v-1135l167 -38v-103h-512z" />
<glyph unicode="J" horiz-adv-x="542" d="M-155 -201q69 -19 143 -19q97 0 145.5 58.5t48.5 169.5v1410h180v-1396q0 -192 -95.5 -295.5t-274.5 -103.5q-91 0 -147 26v150z" />
<glyph unicode="K" horiz-adv-x="1229" d="M193 0v1418h179v-699l122 135l505 564h209l-562 -618l584 -800h-211l-503 677l-144 -127v-550h-179z" />
<glyph unicode="L" horiz-adv-x="1040" d="M193 0v1418h179v-1259h619v-159h-798z" />
<glyph unicode="M" horiz-adv-x="1802" d="M193 0v1418h264l437 -1162h8l445 1162h262v-1418h-176v872q0 146 13 370h-7l-474 -1242h-146l-468 1244h-8q15 -156 15 -384v-860h-165z" />
<glyph unicode="N" horiz-adv-x="1509" d="M193 0v1418h207l43 -69l466 -719l247 -386h8q-2 24 -8 167t-6 207v800h167v-1418h-208l-760 1178h-8l5 -79q12 -177 12 -307v-792h-165z" />
<glyph unicode="O" horiz-adv-x="1551" d="M121 713q0 346 170.5 536.5t487.5 190.5q308 0 480 -193.5t172 -535.5q0 -340 -172.5 -535t-481.5 -195q-313 0 -484.5 191.5t-171.5 540.5zM309 711q0 -281 119.5 -428.5t348.5 -147.5q228 0 346.5 145.5t118.5 430.5q0 284 -117.5 428t-345.5 144q-231 0 -350.5 -146 t-119.5 -426z" />
<glyph unicode="P" horiz-adv-x="1201" d="M193 0v1418h375q533 0 533 -417q0 -217 -148.5 -333t-418.5 -116h-162v-552h-179zM372 705h142q212 0 307 68.5t95 219.5q0 137 -88.5 205t-275.5 68h-180v-561z" />
<glyph unicode="Q" horiz-adv-x="1551" d="M121 713q0 346 170.5 536.5t487.5 190.5q308 0 480 -193.5t172 -535.5q0 -269 -108 -448.5t-305 -246.5l339 -354h-256l-275 321l-49 -2q-313 0 -484.5 191.5t-171.5 540.5zM309 711q0 -281 119.5 -428.5t348.5 -147.5q228 0 346.5 145.5t118.5 430.5q0 284 -117.5 428 t-345.5 144q-231 0 -350.5 -146t-119.5 -426z" />
<glyph unicode="R" horiz-adv-x="1235" d="M193 0v1418h391q264 0 390.5 -100.5t126.5 -301.5q0 -283 -284 -381l389 -635h-209l-343 586h-282v-586h-179zM372 737h212q173 0 252.5 68t79.5 202t-80.5 195.5t-261.5 61.5h-202v-527z" />
<glyph unicode="S" horiz-adv-x="1090" d="M101 48v170q90 -39 197 -61t201 -22q159 0 239.5 61t80.5 168q0 71 -29.5 116.5t-97.5 85t-207 90.5q-197 72 -281.5 169t-84.5 252q0 166 125 264t328 98q213 0 391 -80l-55 -153q-182 75 -340 75q-126 0 -197 -54t-71 -152q0 -70 27.5 -116t89 -84t193.5 -86 q158 -59 235.5 -113.5t114.5 -126t37 -170.5q0 -185 -134 -291.5t-372 -106.5q-252 0 -390 67z" />
<glyph unicode="T" horiz-adv-x="1104" d="M19 1261v157h1064v-157h-441v-1261h-179v1261h-444z" />
<glyph unicode="U" horiz-adv-x="1452" d="M178 504v914h180v-919q0 -174 92.5 -269t278.5 -95q176 0 270.5 94t94.5 272v917h178v-917q0 -243 -146.5 -381.5t-406.5 -138.5q-257 0 -399 140t-142 383z" />
<glyph unicode="V" horiz-adv-x="1192" d="M0 1418h187l319 -910q61 -172 90 -309q24 122 90 313l317 906h189l-506 -1418h-180z" />
<glyph unicode="W" horiz-adv-x="1847" d="M24 1418h186l221 -866q44 -170 68 -338q21 159 75 349l250 855h185l261 -862q50 -168 77 -342q16 134 69 340l219 864h187l-378 -1418h-180l-277 929q-61 208 -71 281q-16 -112 -68 -287l-268 -923h-180z" />
<glyph unicode="X" horiz-adv-x="1164" d="M8 0l471 739l-441 679h199l347 -556l350 556h188l-438 -675l472 -743h-202l-376 616l-381 -616h-189z" />
<glyph unicode="Y" horiz-adv-x="1124" d="M0 1418h195l368 -697l369 697h192l-472 -868v-550h-180v542z" />
<glyph unicode="Z" horiz-adv-x="1135" d="M76 0v135l747 1124h-724v159h940v-135l-747 -1124h767v-159h-983z" />
<glyph unicode="[" horiz-adv-x="707" d="M214 -329v1982h385v-139h-225v-1704h225v-139h-385zM435 1781zM439 1236zM465 -532z" />
<glyph unicode="\" horiz-adv-x="852" d="M83 1652h163l523 -1981h-163zM435 1781zM439 1236zM465 -532z" />
<glyph unicode="]" horiz-adv-x="707" d="M107 -190h224v1703h-224v139h386v-1981h-386v139zM241 1781zM245 1236zM465 -532z" />
<glyph unicode="^" horiz-adv-x="1094" d="M58 533l445 896h99l434 -896h-156l-327 712l-339 -712h-156z" />
<glyph unicode="_" horiz-adv-x="816" d="M-4 -178h825v-136h-825v136z" />
<glyph unicode="`" horiz-adv-x="1152" d="M375 1502v20h209q31 -64 88 -153t103 -141v-24h-117q-73 58 -160 150.5t-123 147.5z" />
<glyph unicode="a" horiz-adv-x="1114" d="M91 296q0 324 511 339l181 7v63q0 121 -52.5 179t-167.5 58q-85 0 -160 -25.5t-141 -56.5l-53 131q80 43 175 67.5t188 24.5q193 0 287.5 -85.5t94.5 -271.5v-726h-128l-34 151h-7q-80 -100 -159 -135t-199 -35q-157 0 -246.5 82.5t-89.5 232.5zM273 294 q0 -84 50.5 -128.5t143.5 -44.5q146 0 230 79t84 225v96l-157 -7q-184 -7 -267.5 -58.5t-83.5 -161.5z" />
<glyph unicode="b" horiz-adv-x="1222" d="M169 0v1509h174v-366q0 -110 -9 -220h9q108 160 330 160q211 0 325.5 -145.5t114.5 -404.5q0 -264 -116.5 -408t-323.5 -144q-107 0 -191.5 38.5t-138.5 115.5h-13q-30 -117 -36 -135h-125zM343 531q0 -219 71.5 -312.5t233.5 -93.5q144 0 214 105.5t70 303.5 q0 202 -70.5 303t-217.5 101q-161 0 -231 -91t-70 -309v-7z" />
<glyph unicode="c" horiz-adv-x="953" d="M110 527q0 267 129.5 412t368.5 145q78 0 154 -16t126 -41l-54 -145q-135 50 -230 50q-161 0 -237.5 -101.5t-76.5 -301.5q0 -193 76.5 -295.5t227.5 -102.5q140 0 276 62v-155q-110 -57 -274 -57q-230 0 -358 141t-128 405z" />
<glyph unicode="d" horiz-adv-x="1222" d="M110 531q0 261 115 407t323 146q214 0 330 -157h12q-2 20 -7 78.5t-5 78.5v425h174v-1509h-140l-26 143h-8q-112 -162 -332 -162q-207 0 -321.5 143.5t-114.5 406.5zM290 527q0 -198 73 -300t211 -102q159 0 232.5 87t73.5 285v32q0 222 -74.5 316.5t-233.5 94.5 q-135 0 -208.5 -107t-73.5 -306z" />
<glyph unicode="e" horiz-adv-x="1120" d="M110 525q0 256 127 407.5t343 151.5q201 0 320 -129.5t119 -350.5v-105h-729q5 -182 92 -276t248 -94q85 0 161.5 15t179.5 59v-154q-88 -37 -165.5 -52.5t-183.5 -15.5q-240 0 -376 145t-136 399zM294 637h542q-2 150 -69 227.5t-189 77.5q-125 0 -198 -80.5t-86 -224.5 z" />
<glyph unicode="f" horiz-adv-x="683" d="M30 929v82l186 60v61q0 194 85 291t262 97q101 0 206 -36l-46 -137q-91 29 -158 29q-89 0 -131.5 -58t-42.5 -184v-69h269v-136h-269v-929h-175v929h-186z" />
<glyph unicode="g" horiz-adv-x="1222" d="M110 531q0 257 116.5 405t319.5 148q216 0 334 -161h10l24 142h138v-1082q0 -229 -115.5 -344.5t-360.5 -115.5q-233 0 -383 68v161q155 -84 393 -84q136 0 215 79.5t79 220.5v42l6 131h-8q-108 -160 -330 -160q-207 0 -322.5 144t-115.5 406zM290 529q0 -198 71.5 -302 t212.5 -104q161 0 234.5 87t73.5 279v42q0 213 -74 310t-238 97q-134 0 -207 -106t-73 -303z" />
<glyph unicode="h" horiz-adv-x="1228" d="M169 0v1509h174v-442q0 -87 -9 -149h11q48 77 135 121t197 44q194 0 292 -93t98 -296v-694h-173v681q0 130 -57.5 193.5t-180.5 63.5q-162 0 -237.5 -90t-75.5 -298v-550h-174z" />
<glyph unicode="i" horiz-adv-x="512" d="M155 1353q0 58 29.5 84.5t73.5 26.5q41 0 71.5 -26.5t30.5 -84.5q0 -57 -30.5 -84t-71.5 -27q-44 0 -73.5 27t-29.5 84zM169 0v1065h174v-1065h-174z" />
<glyph unicode="j" horiz-adv-x="512" d="M-110 -312q67 -20 132 -20q76 0 111.5 41.5t35.5 125.5v1230h174v-1224q0 -159 -76 -238.5t-223 -79.5q-92 0 -154 24v141zM155 1353q0 58 29.5 84.5t73.5 26.5q41 0 71.5 -26.5t30.5 -84.5q0 -57 -30.5 -84t-71.5 -27q-44 0 -73.5 27t-29.5 84z" />
<glyph unicode="k" horiz-adv-x="1061" d="M169 0v1509h172v-788l-7 -173h7l60 76l68 81l340 360h204l-431 -455l461 -610h-211l-369 497l-122 -106v-391h-172z" />
<glyph unicode="l" horiz-adv-x="512" d="M169 0v1509h174v-1509h-174z" />
<glyph unicode="m" horiz-adv-x="1857" d="M169 0v1065h140l27 -145h9q46 77 129 120.5t186 43.5q250 0 326 -178h9q52 85 140.5 131.5t201.5 46.5q180 0 270 -93t90 -297v-694h-173v686q0 252 -216 252q-149 0 -219 -86.5t-70 -263.5v-588h-173v686q0 126 -53 189t-165 63q-148 0 -216.5 -90t-68.5 -296v-552h-174 z" />
<glyph unicode="n" horiz-adv-x="1228" d="M169 0v1065h140l27 -145h9q50 78 139 121t197 43q196 0 291 -95t95 -295v-694h-173v681q0 130 -57.5 193.5t-180.5 63.5q-164 0 -238.5 -90.5t-74.5 -295.5v-552h-174z" />
<glyph unicode="o" horiz-adv-x="1201" d="M110 534q0 260 130 405t364 145q225 0 357.5 -147.5t132.5 -402.5q0 -260 -132 -406.5t-364 -146.5q-145 0 -256.5 67t-171.5 193.5t-60 292.5zM290 534q0 -200 79 -304.5t233 -104.5q153 0 232.5 104.5t79.5 304.5q0 201 -80 302.5t-235 101.5q-309 0 -309 -404z" />
<glyph unicode="p" horiz-adv-x="1222" d="M169 -477v1542h143l24 -145h7q62 87 143.5 125.5t188.5 38.5q208 0 323 -144t115 -406q0 -260 -115.5 -406.5t-324.5 -146.5q-214 0 -330 154h-11l4 -40q7 -76 7 -135v-437h-174zM343 534q0 -216 72 -312.5t233 -96.5q134 0 209 108.5t75 302.5q0 195 -75 298.5 t-213 103.5q-158 0 -228.5 -89t-72.5 -281v-34z" />
<glyph unicode="q" horiz-adv-x="1222" d="M110 531q0 260 115.5 406.5t322.5 146.5q218 0 332 -164h8l26 145h138v-1542h-174v455q0 106 10 165h-12q-112 -162 -334 -162q-205 0 -318.5 145.5t-113.5 404.5zM290 527q0 -195 72.5 -298.5t213.5 -103.5q156 0 228 85.5t76 282.5v36q0 220 -74 315.5t-234 95.5 q-136 0 -209 -107.5t-73 -305.5z" />
<glyph unicode="r" horiz-adv-x="820" d="M169 0v1065h143l20 -195h8q61 106 144 160t181 54q71 0 126 -11l-22 -161q-59 13 -115 13q-85 0 -157 -46.5t-113 -128.5t-41 -182v-568h-174z" />
<glyph unicode="s" horiz-adv-x="951" d="M101 802q0 131 106.5 206.5t293.5 75.5q181 0 339 -71l-59 -139q-162 68 -292 68q-109 0 -165 -34.5t-56 -94.5q0 -58 48.5 -96.5t225.5 -106.5q133 -49 196.5 -92t93.5 -96t30 -128q0 -149 -111.5 -231t-313.5 -82q-210 0 -334 67v159q175 -86 338 -86q132 0 192.5 43 t60.5 114q0 63 -58 107t-205 100q-151 58 -212 99.5t-89.5 92.5t-28.5 125z" />
<glyph unicode="t" horiz-adv-x="716" d="M32 929v84l152 70l70 227h104v-245h307v-136h-307v-615q0 -92 44 -141.5t123 -49.5q34 0 79.5 7t68.5 16v-134q-24 -11 -75 -21t-103 -10q-313 0 -313 328v620h-150z" />
<glyph unicode="u" horiz-adv-x="1228" d="M157 368v697h177v-686q0 -129 57.5 -191.5t178.5 -62.5q164 0 239 91t75 294v555h175v-1065h-143l-26 141h-8q-48 -77 -135 -118.5t-203 -41.5q-192 0 -289.5 92t-97.5 295z" />
<glyph unicode="v" horiz-adv-x="1008" d="M0 1065h187l226 -628q67 -189 86 -282h7q3 13 7.5 29t10.5 35t72 218l227 628h186l-405 -1065h-200z" />
<glyph unicode="w" horiz-adv-x="1561" d="M22 1065h181q101 -393 153.5 -597.5t62.5 -289.5h8l13 61q30 138 59 226l189 600h190l183 -600q10 -34 21 -72.5t21 -76t17.5 -72.5t11.5 -64h9q8 74 71 317l149 568h178l-295 -1065h-205l-182 599q-26 75 -74 283h-8q-41 -189 -72 -284l-191 -598h-198z" />
<glyph unicode="x" horiz-adv-x="1050" d="M36 0l385 544l-368 521h199l275 -402l271 402h197l-367 -521l388 -544h-199l-290 425l-294 -425h-197z" />
<glyph unicode="y" horiz-adv-x="1012" d="M2 1065h187l230 -606q73 -198 89 -290h8q9 36 40 134.5t52 157.5l216 604h189l-459 -1212q-67 -177 -159 -253.5t-228 -76.5q-73 0 -145 16v139q49 -12 117 -12q83 0 141.5 46t94.5 142l56 142z" />
<glyph unicode="z" horiz-adv-x="934" d="M78 0v115l572 814h-538v136h730v-131l-564 -799h579v-135h-779z" />
<glyph unicode="{" horiz-adv-x="776" d="M87 588v147q119 0 181.5 41t62.5 139v459q0 73 25.5 125.5t70.5 86t107.5 49.5t135.5 17v-142q-41 -1 -74 -7t-56 -22.5t-35.5 -45.5t-12.5 -75v-457q0 -100 -53.5 -158.5t-156.5 -78.5v-10q103 -20 156.5 -77.5t53.5 -158.5v-456q0 -45 12.5 -74.5t35.5 -46t56 -22.5 t74 -7v-143q-73 1 -135.5 17t-107.5 49.5t-70.5 86t-25.5 127.5v457q0 98 -62.5 139t-181.5 41zM241 1781zM245 1236zM465 -532z" />
<glyph unicode="|" horiz-adv-x="1071" d="M338 1781zM342 1236zM465 -329v1981h142v-1981h-142zM465 -532z" />
<glyph unicode="}" horiz-adv-x="746" d="M107 -186q40 1 73.5 7t56.5 22.5t35 46t12 74.5v456q0 101 53.5 158.5t157.5 77.5v10q-104 20 -157.5 78.5t-53.5 158.5v457q0 46 -12 75t-35 45.5t-56.5 22.5t-73.5 7v142q72 -1 135 -17t108 -49.5t70.5 -86t25.5 -125.5v-459q0 -50 15.5 -84t46.5 -55t76.5 -31 t105.5 -10v-147q-120 0 -182 -41t-62 -139v-457q0 -75 -25.5 -127.5t-70.5 -86t-108 -49.5t-135 -17v143zM465 -532zM532 1781zM536 1236z" />
<glyph unicode="~" horiz-adv-x="1094" d="M99 509v157q97 105 241 105q28 0 52 -2.5t50.5 -8.5t59 -18.5t78.5 -31.5q36 -15 62.5 -26t49.5 -17t42.5 -8.5t40.5 -2.5q27 0 56 9t58 25t56 37.5t50 45.5v-157q-96 -105 -240 -105q-28 0 -52.5 2.5t-51 9t-59 18.5t-78.5 31q-36 16 -62.5 26.5t-48.5 17t-42 9t-41 2.5 q-27 0 -56 -9.5t-57.5 -25.5t-56 -37t-51.5 -46zM439 1236z" />
<glyph unicode="&#xa1;" horiz-adv-x="534" d="M143 950q0 64 33 99t90 35t90 -34.5t33 -99.5t-31.5 -99t-91.5 -34t-91.5 33.5t-31.5 99.5zM157 -362l50 1018h115l50 -1018h-215z" />
<glyph unicode="&#xa2;" horiz-adv-x="1135" d="M180 719q0 493 386 553v167h135v-160q148 -5 262 -57l-51 -145q-139 51 -237 51q-162 0 -238.5 -101t-76.5 -306q0 -207 77.5 -301t229.5 -94q87 0 152.5 17t126.5 42v-152q-110 -55 -247 -60v-192h-133v197q-197 31 -291.5 165t-94.5 376z" />
<glyph unicode="&#xa3;" horiz-adv-x="1135" d="M64 0v147q196 46 196 280v208h-190v132h190v294q0 176 109 276t294 100t353 -82l-62 -140q-162 76 -287 76q-113 0 -172 -58.5t-59 -189.5v-276h404v-132h-404v-206q0 -93 -32 -159.5t-104 -110.5h763v-159h-999z" />
<glyph unicode="&#xa4;" horiz-adv-x="1135" d="M117 1054l97 94l131 -127q97 69 223 69q118 0 219 -69l133 127l96 -94l-128 -132q69 -108 69 -221q0 -126 -69 -222l125 -132l-93 -93l-133 127q-100 -67 -219 -67q-128 0 -223 69l-131 -127l-95 93l129 132q-70 105 -70 220q0 114 70 219zM312 701q0 -107 74.5 -181.5 t181.5 -74.5q108 0 183 74t75 182q0 111 -75 185.5t-183 74.5q-106 0 -181 -75t-75 -185z" />
<glyph unicode="&#xa5;" horiz-adv-x="1135" d="M28 1418h184l354 -692l356 692h183l-400 -745h247v-127h-300v-163h300v-127h-300v-256h-171v256h-301v127h301v163h-301v127h243z" />
<glyph unicode="&#xa6;" horiz-adv-x="1094" d="M474 278h146v-757h-146v757zM474 753v756h146v-756h-146z" />
<glyph unicode="&#xa7;" horiz-adv-x="1019" d="M117 55v150q85 -38 177 -60t167 -22q124 0 191 36t67 105q0 59 -51.5 97.5t-204.5 97.5q-191 71 -260.5 143.5t-69.5 182.5q0 84 41.5 149.5t115.5 100.5q-72 39 -111.5 93t-39.5 136q0 119 100.5 187.5t291.5 68.5q89 0 162 -13.5t177 -54.5l-53 -133q-94 38 -160 51.5 t-138 13.5q-112 0 -164.5 -28.5t-52.5 -87.5q0 -55 56 -95.5t207 -93.5q176 -65 249.5 -139.5t73.5 -179.5q0 -174 -149 -263q147 -78 147 -219q0 -137 -114.5 -212.5t-318.5 -75.5t-336 65zM282 804q0 -49 26.5 -85.5t85 -70.5t216.5 -94q127 74 127 181q0 79 -68 132 t-244 109q-63 -18 -103 -66t-40 -106z" />
<glyph unicode="&#xa8;" horiz-adv-x="1152" d="M296 1353q0 52 27 74.5t66 22.5q38 0 66 -22.5t28 -74.5q0 -51 -28 -75.5t-66 -24.5q-39 0 -66 24.5t-27 75.5zM669 1353q0 52 27.5 74.5t63.5 22.5q38 0 66.5 -22.5t28.5 -74.5q0 -51 -28.5 -75.5t-66.5 -24.5q-36 0 -63.5 24.5t-27.5 75.5z" />
<glyph unicode="&#xa9;" horiz-adv-x="1652" d="M97 709q0 194 97 364t266.5 268t365.5 98q194 0 364 -97t268 -267t98 -366q0 -191 -94 -359t-264 -268.5t-372 -100.5q-200 0 -370 100t-264.5 268t-94.5 360zM203 709q0 -167 83.5 -311.5t228.5 -228.5t311 -84q167 0 311.5 83.5t228.5 228.5t84 312t-83.5 311.5 t-228.5 228.5t-312 84q-166 0 -310.5 -83.5t-228.5 -228.5t-84 -312zM465 709q0 203 107.5 323t291.5 120q126 0 245 -60l-58 -121q-103 52 -185 52q-115 0 -180.5 -83t-65.5 -231q0 -152 56.5 -233.5t187.5 -81.5q92 0 209 45v-127q-58 -26 -105.5 -37t-110.5 -11 q-188 0 -290 116.5t-102 328.5z" />
<glyph unicode="&#xaa;" horiz-adv-x="709" d="M64 957q0 100 76.5 151.5t236.5 57.5l112 4v43q0 60 -38 89t-104 29q-97 0 -200 -52q-25 61 -44 97q118 59 248 59t195.5 -53.5t65.5 -171.5v-437h-93l-24 84q-91 -97 -227 -97q-94 0 -149 48.5t-55 148.5zM191 957q0 -95 107 -95q191 0 191 173v46l-95 -4 q-108 -4 -155.5 -31.5t-47.5 -88.5z" />
<glyph unicode="&#xab;" horiz-adv-x="1010" d="M80 510v26l333 400l125 -72l-278 -339l278 -341l-125 -72zM472 510v26l339 400l123 -72l-278 -339l278 -341l-123 -72z" />
<glyph unicode="&#xac;" horiz-adv-x="1135" d="M99 630v141h934v-517h-141v376h-793z" />
<glyph unicode="&#xad;" horiz-adv-x="639" d="M80 455v155h481v-155h-481z" />
<glyph unicode="&#xae;" horiz-adv-x="1652" d="M97 709q0 194 97 364t266.5 268t365.5 98q194 0 364 -97t268 -267t98 -366q0 -191 -94 -359t-264 -268.5t-372 -100.5q-200 0 -370 100t-264.5 268t-94.5 360zM203 709q0 -167 83.5 -311.5t228.5 -228.5t311 -84q167 0 311.5 83.5t228.5 228.5t84 312t-83.5 311.5 t-228.5 228.5t-312 84q-166 0 -310.5 -83.5t-228.5 -228.5t-84 -312zM554 275v868h255q163 0 238 -63.5t75 -193.5q0 -81 -41.5 -139.5t-113.5 -86.5l231 -385h-171l-199 343h-123v-343h-151zM705 741h99q79 0 122 39t43 102q0 71 -40 102.5t-127 31.5h-97v-275z" />
<glyph unicode="&#xaf;" horiz-adv-x="675" d="M97 508v163h481v-163h-481zM439 1236z" />
<glyph unicode="&#xb0;" horiz-adv-x="850" d="M119 1132q0 131 89.5 219t216.5 88q129 0 217.5 -89.5t88.5 -217.5q0 -127 -89 -215.5t-217 -88.5q-126 0 -216 87t-90 217zM239 1132q0 -77 55.5 -131.5t132.5 -54.5q78 0 131.5 55t53.5 131q0 78 -53.5 132.5t-131.5 54.5t-133 -54t-55 -133z" />
<glyph unicode="&#xb1;" horiz-adv-x="1135" d="M99 0v141h934v-141h-934zM99 635v142h396v411h142v-411h396v-142h-396v-409h-142v409h-396z" />
<glyph unicode="&#xb2;" horiz-adv-x="695" d="M48 568v107l228 223q124 120 158.5 174.5t34.5 121.5q0 63 -36.5 95t-96.5 32q-61 0 -109.5 -23t-99.5 -62l-70 91q129 110 281 110q128 0 200 -63.5t72 -171.5q0 -45 -12 -83t-37.5 -77.5t-65.5 -84t-275 -265.5h388v-124h-560z" />
<glyph unicode="&#xb3;" horiz-adv-x="695" d="M34 608v125q138 -68 262 -68q199 0 199 152q0 137 -219 137h-113v109h113q100 0 146.5 38t46.5 101q0 57 -37.5 89t-101.5 32q-101 0 -220 -76l-72 92q72 53 141.5 75.5t148.5 22.5q132 0 208 -59t76 -161q0 -146 -147 -201q172 -43 172 -203q0 -123 -89 -192t-254 -69 q-148 0 -260 56z" />
<glyph unicode="&#xb4;" horiz-adv-x="1152" d="M375 1204v24q37 47 94 132.5t96 161.5h210v-20q-43 -63 -133 -157t-151 -141h-116z" />
<glyph unicode="&#xb5;" horiz-adv-x="1237" d="M169 -477v1542h174v-688q0 -252 239 -252q164 0 238 91t74 294v555h175v-1065h-142l-27 143h-10q-105 -162 -320 -162q-141 0 -229 89h-7q9 -72 9 -237v-310h-174z" />
<glyph unicode="&#xb6;" horiz-adv-x="1300" d="M110 1011q0 252 105.5 375t330.5 123h544v-1761h-114v1651h-203v-1651h-115v794q-60 -17 -142 -17q-209 0 -307.5 121t-98.5 365z" />
<glyph unicode="&#xb7;" horiz-adv-x="532" d="M143 701q0 63 31.5 99t89.5 36q60 0 92.5 -36.5t32.5 -98.5t-33 -98.5t-92 -36.5q-57 0 -89 36t-32 99z" />
<glyph unicode="&#xb8;" horiz-adv-x="447" d="M28 -358q35 -10 105 -10q73 0 110 19t37 69q0 86 -181 109l85 171h116l-52 -106q173 -37 173 -170q0 -96 -73 -148.5t-221 -52.5q-63 0 -99 10v109z" />
<glyph unicode="&#xb9;" horiz-adv-x="695" d="M74 1236l258 182h145v-850h-141v548q0 65 7 177q-30 -27 -52 -45.5t-148 -108.5z" />
<glyph unicode="&#xba;" horiz-adv-x="746" d="M64 1099q0 160 81.5 248t229.5 88q145 0 228 -88.5t83 -247.5q0 -158 -84 -248.5t-230 -90.5q-141 0 -224.5 90t-83.5 249zM189 1099q0 -117 43 -175t141 -58q97 0 141 58t44 175t-44 173.5t-141 56.5t-140.5 -56.5t-43.5 -173.5z" />
<glyph unicode="&#xbb;" horiz-adv-x="1010" d="M78 184l278 341l-278 339l123 72l335 -400v-26l-335 -398zM470 184l279 341l-279 339l124 72l338 -400v-26l-338 -398z" />
<glyph unicode="&#xbc;" horiz-adv-x="1569" d="M69 1236l258 182h145v-850h-141v548q0 65 7 177q-30 -27 -52 -45.5t-148 -108.5zM251 0l866 1418h148l-866 -1418h-148zM804 192v103l392 562h145v-546h121v-119h-121v-191h-149v191h-388zM944 311h248v185q0 104 6 201q-8 -18 -95 -153z" />
<glyph unicode="&#xbd;" horiz-adv-x="1569" d="M45 1236l258 182h145v-850h-141v548q0 65 7 177q-30 -27 -52 -45.5t-148 -108.5zM191 0l866 1418h148l-866 -1418h-148zM884 1v107l228 223q124 120 158.5 174.5t34.5 121.5q0 63 -36.5 95t-96.5 32q-61 0 -109.5 -23t-99.5 -62l-70 91q129 110 281 110q128 0 200 -63.5 t72 -171.5q0 -45 -12 -83t-37.5 -77.5t-65.5 -84t-275 -265.5h388v-124h-560z" />
<glyph unicode="&#xbe;" horiz-adv-x="1569" d="M31 608v125q138 -68 262 -68q199 0 199 152q0 137 -219 137h-113v109h113q100 0 146.5 38t46.5 101q0 57 -37.5 89t-101.5 32q-101 0 -220 -76l-72 92q72 53 141.5 75.5t148.5 22.5q132 0 208 -59t76 -161q0 -146 -147 -201q172 -43 172 -203q0 -123 -89 -192t-254 -69 q-148 0 -260 56zM338 0l866 1418h148l-866 -1418h-148zM876 192v103l392 562h145v-546h121v-119h-121v-191h-149v191h-388zM1016 311h248v185q0 104 6 201q-8 -18 -95 -153z" />
<glyph unicode="&#xbf;" horiz-adv-x="862" d="M49 -36q0 71 19.5 126t59.5 104t156 149q100 88 129.5 141.5t29.5 139.5v32h141v-52q0 -113 -36 -186t-133 -154q-129 -108 -163 -161.5t-34 -134.5q0 -93 61.5 -146t177.5 -53q154 0 320 85l61 -140q-192 -95 -387 -95q-188 0 -295 90.5t-107 254.5zM385 950 q0 70 35.5 102t85.5 32q53 0 88.5 -32t35.5 -102q0 -133 -124 -133q-60 0 -90.5 34.5t-30.5 98.5z" />
<glyph unicode="&#xc0;" horiz-adv-x="1269" d="M0 0l554 1424h161l553 -1424h-185l-171 439h-563l-169 -439h-180zM323 1830v20h209q31 -64 88 -153t103 -141v-24h-117q-73 58 -160 150.5t-123 147.5zM409 598h449l-159 429l-68 213q-29 -117 -61 -213z" />
<glyph unicode="&#xc1;" horiz-adv-x="1269" d="M0 0l554 1424h161l553 -1424h-185l-171 439h-563l-169 -439h-180zM409 598h449l-159 429l-68 213q-29 -117 -61 -213zM510 1532v24q37 47 94 132.5t96 161.5h210v-20q-43 -63 -133 -157t-151 -141h-116z" />
<glyph unicode="&#xc2;" horiz-adv-x="1269" d="M0 0l554 1424h161l553 -1424h-185l-171 439h-563l-169 -439h-180zM290 1532v22q121 130 171 192t74 104h178q51 -98 248 -296v-22h-123q-87 51 -216 178q-127 -124 -212 -178h-120zM409 598h449l-159 429l-68 213q-29 -117 -61 -213z" />
<glyph unicode="&#xc3;" horiz-adv-x="1269" d="M0 0l554 1424h161l553 -1424h-185l-171 439h-563l-169 -439h-180zM262 1532q12 118 68 186t151 68q43 0 84.5 -18t79 -39t72.5 -39t66 -18q47 0 70.5 29t38.5 87h100q-12 -116 -68 -185t-150 -69q-41 0 -81 18t-78 38.5t-73.5 38.5t-68.5 18q-48 0 -72 -28.5t-38 -86.5 h-101zM409 598h449l-159 429l-68 213q-29 -117 -61 -213z" />
<glyph unicode="&#xc4;" horiz-adv-x="1269" d="M0 0l554 1424h161l553 -1424h-185l-171 439h-563l-169 -439h-180zM351 1681q0 52 27 74.5t66 22.5q38 0 66 -22.5t28 -74.5q0 -51 -28 -75.5t-66 -24.5q-39 0 -66 24.5t-27 75.5zM409 598h449l-159 429l-68 213q-29 -117 -61 -213zM724 1681q0 52 27.5 74.5t63.5 22.5 q38 0 66.5 -22.5t28.5 -74.5q0 -51 -28.5 -75.5t-66.5 -24.5q-36 0 -63.5 24.5t-27.5 75.5z" />
<glyph unicode="&#xc5;" horiz-adv-x="1269" d="M0 0l523 1344q-52 25 -81 73.5t-29 118.5q0 95 58.5 151.5t158.5 56.5q98 0 159.5 -57t61.5 -150q0 -66 -29.5 -114.5t-78.5 -71.5l525 -1351h-185l-171 439h-563l-169 -439h-180zM409 598h449l-159 429l-68 213q-29 -117 -61 -213zM519 1536q0 -53 28 -82.5t83 -29.5 q49 0 80 29.5t31 82.5q0 52 -31.5 81.5t-79.5 29.5t-79.5 -29.5t-31.5 -81.5z" />
<glyph unicode="&#xc6;" horiz-adv-x="1749" d="M-2 0l673 1418h960v-157h-560v-442h522v-156h-522v-506h560v-157h-739v439h-496l-214 -439h-184zM465 598h427v661h-115z" />
<glyph unicode="&#xc7;" horiz-adv-x="1255" d="M121 711q0 219 81 384t236 254.5t364 89.5q225 0 392 -84l-72 -151q-169 77 -322 77q-229 0 -360 -153t-131 -419q0 -274 127.5 -423t361.5 -149q152 0 341 56v-155q-90 -33 -173.5 -45t-192.5 -12q-313 0 -482.5 190.5t-169.5 539.5zM529 -358q35 -10 105 -10 q73 0 110 19t37 69q0 86 -181 109l85 171h116l-52 -106q173 -37 173 -170q0 -96 -73 -148.5t-221 -52.5q-63 0 -99 10v109z" />
<glyph unicode="&#xc8;" horiz-adv-x="1104" d="M193 0v1418h793v-157h-614v-442h578v-156h-578v-506h614v-157h-793zM304 1830v20h209q31 -64 88 -153t103 -141v-24h-117q-73 58 -160 150.5t-123 147.5z" />
<glyph unicode="&#xc9;" horiz-adv-x="1104" d="M193 0v1418h793v-157h-614v-442h578v-156h-578v-506h614v-157h-793zM439 1532v24q37 47 94 132.5t96 161.5h210v-20q-43 -63 -133 -157t-151 -141h-116z" />
<glyph unicode="&#xca;" horiz-adv-x="1104" d="M193 0v1418h793v-157h-614v-442h578v-156h-578v-506h614v-157h-793zM247 1532v22q121 130 171 192t74 104h178q51 -98 248 -296v-22h-123q-87 51 -216 178q-127 -124 -212 -178h-120z" />
<glyph unicode="&#xcb;" horiz-adv-x="1104" d="M193 0v1418h793v-157h-614v-442h578v-156h-578v-506h614v-157h-793zM310 1681q0 52 27 74.5t66 22.5q38 0 66 -22.5t28 -74.5q0 -51 -28 -75.5t-66 -24.5q-39 0 -66 24.5t-27 75.5zM683 1681q0 52 27.5 74.5t63.5 22.5q38 0 66.5 -22.5t28.5 -74.5q0 -51 -28.5 -75.5 t-66.5 -24.5q-36 0 -63.5 24.5t-27.5 75.5z" />
<glyph unicode="&#xcc;" horiz-adv-x="673" d="M58 1830v20h209q31 -64 88 -153t103 -141v-24h-117q-73 58 -160 150.5t-123 147.5zM80 0v103l166 38v1135l-166 39v103h512v-103l-167 -39v-1135l167 -38v-103h-512z" />
<glyph unicode="&#xcd;" horiz-adv-x="673" d="M80 0v103l166 38v1135l-166 39v103h512v-103l-167 -39v-1135l167 -38v-103h-512zM229 1532v24q37 47 94 132.5t96 161.5h210v-20q-43 -63 -133 -157t-151 -141h-116z" />
<glyph unicode="&#xce;" horiz-adv-x="673" d="M-3 1532v22q121 130 171 192t74 104h178q51 -98 248 -296v-22h-123q-87 51 -216 178q-127 -124 -212 -178h-120zM80 0v103l166 38v1135l-166 39v103h512v-103l-167 -39v-1135l167 -38v-103h-512z" />
<glyph unicode="&#xcf;" horiz-adv-x="673" d="M58 1681q0 52 27 74.5t66 22.5q38 0 66 -22.5t28 -74.5q0 -51 -28 -75.5t-66 -24.5q-39 0 -66 24.5t-27 75.5zM80 0v103l166 38v1135l-166 39v103h512v-103l-167 -39v-1135l167 -38v-103h-512zM431 1681q0 52 27.5 74.5t63.5 22.5q38 0 66.5 -22.5t28.5 -74.5 q0 -51 -28.5 -75.5t-66.5 -24.5q-36 0 -63.5 24.5t-27.5 75.5z" />
<glyph unicode="&#xd0;" horiz-adv-x="1450" d="M59 624v155h148v639h423q330 0 514.5 -183t184.5 -512q0 -349 -190.5 -536t-552.5 -187h-379v624h-148zM385 153h180q576 0 576 564q0 271 -135 410t-402 139h-219v-487h354v-155h-354v-471z" />
<glyph unicode="&#xd1;" horiz-adv-x="1509" d="M193 0v1418h207l43 -69l466 -719l247 -386h8q-2 24 -8 167t-6 207v800h167v-1418h-208l-760 1178h-8l5 -79q12 -177 12 -307v-792h-165zM399 1532q12 118 68 186t151 68q43 0 84.5 -18t79 -39t72.5 -39t66 -18q47 0 70.5 29t38.5 87h100q-12 -116 -68 -185t-150 -69 q-41 0 -81 18t-78 38.5t-73.5 38.5t-68.5 18q-48 0 -72 -28.5t-38 -86.5h-101z" />
<glyph unicode="&#xd2;" horiz-adv-x="1551" d="M121 713q0 346 170.5 536.5t487.5 190.5q308 0 480 -193.5t172 -535.5q0 -340 -172.5 -535t-481.5 -195q-313 0 -484.5 191.5t-171.5 540.5zM309 711q0 -281 119.5 -428.5t348.5 -147.5q228 0 346.5 145.5t118.5 430.5q0 284 -117.5 428t-345.5 144q-231 0 -350.5 -146 t-119.5 -426zM490 1830v20h209q31 -64 88 -153t103 -141v-24h-117q-73 58 -160 150.5t-123 147.5z" />
<glyph unicode="&#xd3;" horiz-adv-x="1551" d="M121 713q0 346 170.5 536.5t487.5 190.5q308 0 480 -193.5t172 -535.5q0 -340 -172.5 -535t-481.5 -195q-313 0 -484.5 191.5t-171.5 540.5zM309 711q0 -281 119.5 -428.5t348.5 -147.5q228 0 346.5 145.5t118.5 430.5q0 284 -117.5 428t-345.5 144q-231 0 -350.5 -146 t-119.5 -426zM637 1532v24q37 47 94 132.5t96 161.5h210v-20q-43 -63 -133 -157t-151 -141h-116z" />
<glyph unicode="&#xd4;" horiz-adv-x="1551" d="M121 713q0 346 170.5 536.5t487.5 190.5q308 0 480 -193.5t172 -535.5q0 -340 -172.5 -535t-481.5 -195q-313 0 -484.5 191.5t-171.5 540.5zM309 711q0 -281 119.5 -428.5t348.5 -147.5q228 0 346.5 145.5t118.5 430.5q0 284 -117.5 428t-345.5 144q-231 0 -350.5 -146 t-119.5 -426zM427 1532v22q121 130 171 192t74 104h178q51 -98 248 -296v-22h-123q-87 51 -216 178q-127 -124 -212 -178h-120z" />
<glyph unicode="&#xd5;" horiz-adv-x="1551" d="M121 713q0 346 170.5 536.5t487.5 190.5q308 0 480 -193.5t172 -535.5q0 -340 -172.5 -535t-481.5 -195q-313 0 -484.5 191.5t-171.5 540.5zM309 711q0 -281 119.5 -428.5t348.5 -147.5q228 0 346.5 145.5t118.5 430.5q0 284 -117.5 428t-345.5 144q-231 0 -350.5 -146 t-119.5 -426zM403 1532q12 118 68 186t151 68q43 0 84.5 -18t79 -39t72.5 -39t66 -18q47 0 70.5 29t38.5 87h100q-12 -116 -68 -185t-150 -69q-41 0 -81 18t-78 38.5t-73.5 38.5t-68.5 18q-48 0 -72 -28.5t-38 -86.5h-101z" />
<glyph unicode="&#xd6;" horiz-adv-x="1551" d="M121 713q0 346 170.5 536.5t487.5 190.5q308 0 480 -193.5t172 -535.5q0 -340 -172.5 -535t-481.5 -195q-313 0 -484.5 191.5t-171.5 540.5zM309 711q0 -281 119.5 -428.5t348.5 -147.5q228 0 346.5 145.5t118.5 430.5q0 284 -117.5 428t-345.5 144q-231 0 -350.5 -146 t-119.5 -426zM501 1681q0 52 27 74.5t66 22.5q38 0 66 -22.5t28 -74.5q0 -51 -28 -75.5t-66 -24.5q-39 0 -66 24.5t-27 75.5zM874 1681q0 52 27.5 74.5t63.5 22.5q38 0 66.5 -22.5t28.5 -74.5q0 -51 -28.5 -75.5t-66.5 -24.5q-36 0 -63.5 24.5t-27.5 75.5z" />
<glyph unicode="&#xd7;" horiz-adv-x="1094" d="M137 948l102 102l307 -309l312 309l101 -100l-311 -312l309 -310l-99 -99l-312 307l-307 -305l-100 100l306 307zM439 1236z" />
<glyph unicode="&#xd8;" horiz-adv-x="1551" d="M121 713q0 346 170.5 536.5t487.5 190.5q198 0 353 -89l92 131l120 -81l-100 -142q187 -197 187 -548q0 -340 -172.5 -535t-481.5 -195q-225 0 -368 93l-95 -135l-121 78l103 148q-175 192 -175 548zM309 711q0 -251 95 -393l633 895q-106 70 -258 70q-231 0 -350.5 -146 t-119.5 -426zM504 210q111 -75 273 -75q228 0 346.5 145.5t118.5 430.5q0 256 -101 402z" />
<glyph unicode="&#xd9;" horiz-adv-x="1452" d="M178 504v914h180v-919q0 -174 92.5 -269t278.5 -95q176 0 270.5 94t94.5 272v917h178v-917q0 -243 -146.5 -381.5t-406.5 -138.5q-257 0 -399 140t-142 383zM439 1830v20h209q31 -64 88 -153t103 -141v-24h-117q-73 58 -160 150.5t-123 147.5z" />
<glyph unicode="&#xda;" horiz-adv-x="1452" d="M178 504v914h180v-919q0 -174 92.5 -269t278.5 -95q176 0 270.5 94t94.5 272v917h178v-917q0 -243 -146.5 -381.5t-406.5 -138.5q-257 0 -399 140t-142 383zM582 1532v24q37 47 94 132.5t96 161.5h210v-20q-43 -63 -133 -157t-151 -141h-116z" />
<glyph unicode="&#xdb;" horiz-adv-x="1452" d="M178 504v914h180v-919q0 -174 92.5 -269t278.5 -95q176 0 270.5 94t94.5 272v917h178v-917q0 -243 -146.5 -381.5t-406.5 -138.5q-257 0 -399 140t-142 383zM375 1532v22q121 130 171 192t74 104h178q51 -98 248 -296v-22h-123q-87 51 -216 178q-127 -124 -212 -178h-120 z" />
<glyph unicode="&#xdc;" horiz-adv-x="1452" d="M178 504v914h180v-919q0 -174 92.5 -269t278.5 -95q176 0 270.5 94t94.5 272v917h178v-917q0 -243 -146.5 -381.5t-406.5 -138.5q-257 0 -399 140t-142 383zM443 1681q0 52 27 74.5t66 22.5q38 0 66 -22.5t28 -74.5q0 -51 -28 -75.5t-66 -24.5q-39 0 -66 24.5t-27 75.5z M816 1681q0 52 27.5 74.5t63.5 22.5q38 0 66.5 -22.5t28.5 -74.5q0 -51 -28.5 -75.5t-66.5 -24.5q-36 0 -63.5 24.5t-27.5 75.5z" />
<glyph unicode="&#xdd;" horiz-adv-x="1124" d="M0 1418h195l368 -697l369 697h192l-472 -868v-550h-180v542zM428 1532v24q37 47 94 132.5t96 161.5h210v-20q-43 -63 -133 -157t-151 -141h-116z" />
<glyph unicode="&#xde;" horiz-adv-x="1201" d="M193 0v1418h179v-246h191q272 0 405 -102.5t133 -310.5q0 -220 -146 -336t-422 -116h-161v-307h-179zM372 459h142q214 0 308 69t94 221q0 140 -88.5 205t-279.5 65h-176v-560z" />
<glyph unicode="&#xdf;" horiz-adv-x="1253" d="M169 0v1160q0 176 110.5 268t328.5 92q204 0 316.5 -77.5t112.5 -216.5q0 -135 -139 -243q-76 -61 -107.5 -96t-31.5 -68q0 -39 31 -71t144 -106q133 -89 181.5 -165t48.5 -173q0 -157 -95.5 -240t-274.5 -83q-181 0 -288 67v157q62 -39 139.5 -61.5t143.5 -22.5 q204 0 204 171q0 69 -39 119.5t-148 119.5q-114 72 -165 133t-51 145q0 61 33 112t103 102q71 54 102.5 98.5t31.5 93.5q0 76 -64.5 117.5t-187.5 41.5q-265 0 -265 -214v-1160h-174z" />
<glyph unicode="&#xe0;" horiz-adv-x="1114" d="M91 296q0 324 511 339l181 7v63q0 121 -52.5 179t-167.5 58q-85 0 -160 -25.5t-141 -56.5l-53 131q80 43 175 67.5t188 24.5q193 0 287.5 -85.5t94.5 -271.5v-726h-128l-34 151h-7q-80 -100 -159 -135t-199 -35q-157 0 -246.5 82.5t-89.5 232.5zM266 1502v20h209 q31 -64 88 -153t103 -141v-24h-117q-73 58 -160 150.5t-123 147.5zM273 294q0 -84 50.5 -128.5t143.5 -44.5q146 0 230 79t84 225v96l-157 -7q-184 -7 -267.5 -58.5t-83.5 -161.5z" />
<glyph unicode="&#xe1;" horiz-adv-x="1114" d="M91 296q0 324 511 339l181 7v63q0 121 -52.5 179t-167.5 58q-85 0 -160 -25.5t-141 -56.5l-53 131q80 43 175 67.5t188 24.5q193 0 287.5 -85.5t94.5 -271.5v-726h-128l-34 151h-7q-80 -100 -159 -135t-199 -35q-157 0 -246.5 82.5t-89.5 232.5zM273 294 q0 -84 50.5 -128.5t143.5 -44.5q146 0 230 79t84 225v96l-157 -7q-184 -7 -267.5 -58.5t-83.5 -161.5zM423 1204v24q37 47 94 132.5t96 161.5h210v-20q-43 -63 -133 -157t-151 -141h-116z" />
<glyph unicode="&#xe2;" horiz-adv-x="1114" d="M91 296q0 324 511 339l181 7v63q0 121 -52.5 179t-167.5 58q-85 0 -160 -25.5t-141 -56.5l-53 131q80 43 175 67.5t188 24.5q193 0 287.5 -85.5t94.5 -271.5v-726h-128l-34 151h-7q-80 -100 -159 -135t-199 -35q-157 0 -246.5 82.5t-89.5 232.5zM217 1204v22 q121 130 171 192t74 104h178q51 -98 248 -296v-22h-123q-87 51 -216 178q-127 -124 -212 -178h-120zM273 294q0 -84 50.5 -128.5t143.5 -44.5q146 0 230 79t84 225v96l-157 -7q-184 -7 -267.5 -58.5t-83.5 -161.5z" />
<glyph unicode="&#xe3;" horiz-adv-x="1114" d="M91 296q0 324 511 339l181 7v63q0 121 -52.5 179t-167.5 58q-85 0 -160 -25.5t-141 -56.5l-53 131q80 43 175 67.5t188 24.5q193 0 287.5 -85.5t94.5 -271.5v-726h-128l-34 151h-7q-80 -100 -159 -135t-199 -35q-157 0 -246.5 82.5t-89.5 232.5zM194 1204q12 118 68 186 t151 68q43 0 84.5 -18t79 -39t72.5 -39t66 -18q47 0 70.5 29t38.5 87h100q-12 -116 -68 -185t-150 -69q-41 0 -81 18t-78 38.5t-73.5 38.5t-68.5 18q-48 0 -72 -28.5t-38 -86.5h-101zM273 294q0 -84 50.5 -128.5t143.5 -44.5q146 0 230 79t84 225v96l-157 -7 q-184 -7 -267.5 -58.5t-83.5 -161.5z" />
<glyph unicode="&#xe4;" horiz-adv-x="1114" d="M91 296q0 324 511 339l181 7v63q0 121 -52.5 179t-167.5 58q-85 0 -160 -25.5t-141 -56.5l-53 131q80 43 175 67.5t188 24.5q193 0 287.5 -85.5t94.5 -271.5v-726h-128l-34 151h-7q-80 -100 -159 -135t-199 -35q-157 0 -246.5 82.5t-89.5 232.5zM271 1353q0 52 27 74.5 t66 22.5q38 0 66 -22.5t28 -74.5q0 -51 -28 -75.5t-66 -24.5q-39 0 -66 24.5t-27 75.5zM273 294q0 -84 50.5 -128.5t143.5 -44.5q146 0 230 79t84 225v96l-157 -7q-184 -7 -267.5 -58.5t-83.5 -161.5zM644 1353q0 52 27.5 74.5t63.5 22.5q38 0 66.5 -22.5t28.5 -74.5 q0 -51 -28.5 -75.5t-66.5 -24.5q-36 0 -63.5 24.5t-27.5 75.5z" />
<glyph unicode="&#xe5;" horiz-adv-x="1114" d="M91 296q0 324 511 339l181 7v63q0 121 -52.5 179t-167.5 58q-85 0 -160 -25.5t-141 -56.5l-53 131q80 43 175 67.5t188 24.5q193 0 287.5 -85.5t94.5 -271.5v-726h-128l-34 151h-7q-80 -100 -159 -135t-199 -35q-157 0 -246.5 82.5t-89.5 232.5zM273 294 q0 -84 50.5 -128.5t143.5 -44.5q146 0 230 79t84 225v96l-157 -7q-184 -7 -267.5 -58.5t-83.5 -161.5zM351 1414q0 95 58 152t158 57q98 0 159.5 -57.5t61.5 -149.5q0 -98 -61 -155t-160 -57q-100 0 -158 56.5t-58 153.5zM456 1414q0 -52 28.5 -81.5t82.5 -29.5 q50 0 80.5 29.5t30.5 81.5q0 53 -31.5 82.5t-79.5 29.5t-79.5 -29.5t-31.5 -82.5z" />
<glyph unicode="&#xe6;" horiz-adv-x="1715" d="M91 296q0 324 485 339l179 7v67q0 118 -55 175.5t-167 57.5q-135 0 -298 -82l-55 131q69 39 167.5 65.5t198.5 26.5q124 0 204 -40.5t122 -130.5q52 82 134.5 127t191.5 45q191 0 304 -130.5t113 -345.5v-107h-681q8 -372 308 -372q85 0 159.5 16t166.5 58v-154 q-86 -37 -159.5 -52.5t-172.5 -15.5q-282 0 -404 224q-79 -121 -175 -172.5t-228 -51.5q-159 0 -248.5 82.5t-89.5 232.5zM273 294q0 -89 50 -131t134 -42q136 0 215 79t79 225v96l-149 -7q-171 -7 -250 -58.5t-79 -161.5zM938 637h493q0 148 -60.5 226.5t-174.5 78.5 q-115 0 -181 -78t-77 -227z" />
<glyph unicode="&#xe7;" horiz-adv-x="953" d="M110 527q0 267 129.5 412t368.5 145q78 0 154 -16t126 -41l-54 -145q-135 50 -230 50q-161 0 -237.5 -101.5t-76.5 -301.5q0 -193 76.5 -295.5t227.5 -102.5q140 0 276 62v-155q-110 -57 -274 -57q-230 0 -358 141t-128 405zM350 -358q35 -10 105 -10q73 0 110 19t37 69 q0 86 -181 109l85 171h116l-52 -106q173 -37 173 -170q0 -96 -73 -148.5t-221 -52.5q-63 0 -99 10v109z" />
<glyph unicode="&#xe8;" horiz-adv-x="1120" d="M110 525q0 256 127 407.5t343 151.5q201 0 320 -129.5t119 -350.5v-105h-729q5 -182 92 -276t248 -94q85 0 161.5 15t179.5 59v-154q-88 -37 -165.5 -52.5t-183.5 -15.5q-240 0 -376 145t-136 399zM294 637h542q-2 150 -69 227.5t-189 77.5q-125 0 -198 -80.5t-86 -224.5 zM302 1502v20h209q31 -64 88 -153t103 -141v-24h-117q-73 58 -160 150.5t-123 147.5z" />
<glyph unicode="&#xe9;" horiz-adv-x="1120" d="M110 525q0 256 127 407.5t343 151.5q201 0 320 -129.5t119 -350.5v-105h-729q5 -182 92 -276t248 -94q85 0 161.5 15t179.5 59v-154q-88 -37 -165.5 -52.5t-183.5 -15.5q-240 0 -376 145t-136 399zM294 637h542q-2 150 -69 227.5t-189 77.5q-125 0 -198 -80.5t-86 -224.5 zM453 1204v24q37 47 94 132.5t96 161.5h210v-20q-43 -63 -133 -157t-151 -141h-116z" />
<glyph unicode="&#xea;" horiz-adv-x="1120" d="M110 525q0 256 127 407.5t343 151.5q201 0 320 -129.5t119 -350.5v-105h-729q5 -182 92 -276t248 -94q85 0 161.5 15t179.5 59v-154q-88 -37 -165.5 -52.5t-183.5 -15.5q-240 0 -376 145t-136 399zM245 1204v22q121 130 171 192t74 104h178q51 -98 248 -296v-22h-123 q-87 51 -216 178q-127 -124 -212 -178h-120zM294 637h542q-2 150 -69 227.5t-189 77.5q-125 0 -198 -80.5t-86 -224.5z" />
<glyph unicode="&#xeb;" horiz-adv-x="1120" d="M110 525q0 256 127 407.5t343 151.5q201 0 320 -129.5t119 -350.5v-105h-729q5 -182 92 -276t248 -94q85 0 161.5 15t179.5 59v-154q-88 -37 -165.5 -52.5t-183.5 -15.5q-240 0 -376 145t-136 399zM294 637h542q-2 150 -69 227.5t-189 77.5q-125 0 -198 -80.5t-86 -224.5 zM306 1353q0 52 27 74.5t66 22.5q38 0 66 -22.5t28 -74.5q0 -51 -28 -75.5t-66 -24.5q-39 0 -66 24.5t-27 75.5zM679 1353q0 52 27.5 74.5t63.5 22.5q38 0 66.5 -22.5t28.5 -74.5q0 -51 -28.5 -75.5t-66.5 -24.5q-36 0 -63.5 24.5t-27.5 75.5z" />
<glyph unicode="&#xec;" horiz-adv-x="512" d="M-43 1502v20h209q31 -64 88 -153t103 -141v-24h-117q-73 58 -160 150.5t-123 147.5zM169 0v1065h174v-1065h-174z" />
<glyph unicode="&#xed;" horiz-adv-x="512" d="M162 1204v24q37 47 94 132.5t96 161.5h210v-20q-43 -63 -133 -157t-151 -141h-116zM169 0v1065h174v-1065h-174z" />
<glyph unicode="&#xee;" horiz-adv-x="512" d="M-79 1204v22q121 130 171 192t74 104h178q51 -98 248 -296v-22h-123q-87 51 -216 178q-127 -124 -212 -178h-120zM169 0v1065h174v-1065h-174z" />
<glyph unicode="&#xef;" horiz-adv-x="512" d="M-21 1353q0 52 27 74.5t66 22.5q38 0 66 -22.5t28 -74.5q0 -51 -28 -75.5t-66 -24.5q-39 0 -66 24.5t-27 75.5zM169 0v1065h174v-1065h-174zM352 1353q0 52 27.5 74.5t63.5 22.5q38 0 66.5 -22.5t28.5 -74.5q0 -51 -28.5 -75.5t-66.5 -24.5q-36 0 -63.5 24.5t-27.5 75.5z " />
<glyph unicode="&#xf0;" horiz-adv-x="1201" d="M110 463q0 222 125.5 349.5t340.5 127.5q218 0 310 -116l8 4q-57 208 -246 380l-259 -149l-75 109l222 127q-83 56 -178 106l71 119q151 -71 250 -144l229 133l76 -106l-197 -114q146 -136 226.5 -327.5t80.5 -415.5q0 -273 -129 -419t-367 -146q-219 0 -353.5 131 t-134.5 351zM286 457q0 -160 81.5 -247t234.5 -87q164 0 240 96t76 280q0 138 -85 218.5t-231 80.5q-161 0 -238.5 -84t-77.5 -257z" />
<glyph unicode="&#xf1;" horiz-adv-x="1228" d="M169 0v1065h140l27 -145h9q50 78 139 121t197 43q196 0 291 -95t95 -295v-694h-173v681q0 130 -57.5 193.5t-180.5 63.5q-164 0 -238.5 -90.5t-74.5 -295.5v-552h-174zM266 1204q12 118 68 186t151 68q43 0 84.5 -18t79 -39t72.5 -39t66 -18q47 0 70.5 29t38.5 87h100 q-12 -116 -68 -185t-150 -69q-41 0 -81 18t-78 38.5t-73.5 38.5t-68.5 18q-48 0 -72 -28.5t-38 -86.5h-101z" />
<glyph unicode="&#xf2;" horiz-adv-x="1201" d="M110 534q0 260 130 405t364 145q225 0 357.5 -147.5t132.5 -402.5q0 -260 -132 -406.5t-364 -146.5q-145 0 -256.5 67t-171.5 193.5t-60 292.5zM290 534q0 -200 79 -304.5t233 -104.5q153 0 232.5 104.5t79.5 304.5q0 201 -80 302.5t-235 101.5q-309 0 -309 -404z M328 1502v20h209q31 -64 88 -153t103 -141v-24h-117q-73 58 -160 150.5t-123 147.5z" />
<glyph unicode="&#xf3;" horiz-adv-x="1201" d="M110 534q0 260 130 405t364 145q225 0 357.5 -147.5t132.5 -402.5q0 -260 -132 -406.5t-364 -146.5q-145 0 -256.5 67t-171.5 193.5t-60 292.5zM290 534q0 -200 79 -304.5t233 -104.5q153 0 232.5 104.5t79.5 304.5q0 201 -80 302.5t-235 101.5q-309 0 -309 -404z M462 1204v24q37 47 94 132.5t96 161.5h210v-20q-43 -63 -133 -157t-151 -141h-116z" />
<glyph unicode="&#xf4;" horiz-adv-x="1201" d="M110 534q0 260 130 405t364 145q225 0 357.5 -147.5t132.5 -402.5q0 -260 -132 -406.5t-364 -146.5q-145 0 -256.5 67t-171.5 193.5t-60 292.5zM264 1204v22q121 130 171 192t74 104h178q51 -98 248 -296v-22h-123q-87 51 -216 178q-127 -124 -212 -178h-120zM290 534 q0 -200 79 -304.5t233 -104.5q153 0 232.5 104.5t79.5 304.5q0 201 -80 302.5t-235 101.5q-309 0 -309 -404z" />
<glyph unicode="&#xf5;" horiz-adv-x="1201" d="M110 534q0 260 130 405t364 145q225 0 357.5 -147.5t132.5 -402.5q0 -260 -132 -406.5t-364 -146.5q-145 0 -256.5 67t-171.5 193.5t-60 292.5zM239 1204q12 118 68 186t151 68q43 0 84.5 -18t79 -39t72.5 -39t66 -18q47 0 70.5 29t38.5 87h100q-12 -116 -68 -185 t-150 -69q-41 0 -81 18t-78 38.5t-73.5 38.5t-68.5 18q-48 0 -72 -28.5t-38 -86.5h-101zM290 534q0 -200 79 -304.5t233 -104.5q153 0 232.5 104.5t79.5 304.5q0 201 -80 302.5t-235 101.5q-309 0 -309 -404z" />
<glyph unicode="&#xf6;" horiz-adv-x="1201" d="M110 534q0 260 130 405t364 145q225 0 357.5 -147.5t132.5 -402.5q0 -260 -132 -406.5t-364 -146.5q-145 0 -256.5 67t-171.5 193.5t-60 292.5zM290 534q0 -200 79 -304.5t233 -104.5q153 0 232.5 104.5t79.5 304.5q0 201 -80 302.5t-235 101.5q-309 0 -309 -404z M320 1353q0 52 27 74.5t66 22.5q38 0 66 -22.5t28 -74.5q0 -51 -28 -75.5t-66 -24.5q-39 0 -66 24.5t-27 75.5zM693 1353q0 52 27.5 74.5t63.5 22.5q38 0 66.5 -22.5t28.5 -74.5q0 -51 -28.5 -75.5t-66.5 -24.5q-36 0 -63.5 24.5t-27.5 75.5z" />
<glyph unicode="&#xf7;" horiz-adv-x="1094" d="M99 567v146h896v-146h-896zM436 310q0 34 8.5 57t23.5 37.5t35 21t43 6.5q22 0 42.5 -6.5t36 -21t24.5 -37.5t9 -57q0 -32 -9 -54.5t-24.5 -37.5t-36 -22t-42.5 -7q-23 0 -43 7t-35 22t-23.5 37.5t-8.5 54.5zM436 987q0 34 8.5 57t23.5 37.5t35 21t43 6.5q22 0 42.5 -6.5 t36 -21t24.5 -37.5t9 -57q0 -32 -9 -54.5t-24.5 -37.5t-36 -22t-42.5 -7q-23 0 -43 7t-35 22t-23.5 37.5t-8.5 54.5zM439 1236z" />
<glyph unicode="&#xf8;" horiz-adv-x="1201" d="M110 534q0 260 130 405t364 145q147 0 260 -71l78 111l117 -75l-90 -126q125 -150 125 -389q0 -260 -132 -406.5t-364 -146.5q-147 0 -257 65l-79 -112l-115 78l90 123q-127 151 -127 399zM290 534q0 -161 48 -254l437 608q-71 50 -176 50q-309 0 -309 -404zM431 171 q67 -46 171 -46q153 0 232.5 104.5t79.5 304.5q0 148 -46 245z" />
<glyph unicode="&#xf9;" horiz-adv-x="1228" d="M157 368v697h177v-686q0 -129 57.5 -191.5t178.5 -62.5q164 0 239 91t75 294v555h175v-1065h-143l-26 141h-8q-48 -77 -135 -118.5t-203 -41.5q-192 0 -289.5 92t-97.5 295zM315 1502v20h209q31 -64 88 -153t103 -141v-24h-117q-73 58 -160 150.5t-123 147.5z" />
<glyph unicode="&#xfa;" horiz-adv-x="1228" d="M157 368v697h177v-686q0 -129 57.5 -191.5t178.5 -62.5q164 0 239 91t75 294v555h175v-1065h-143l-26 141h-8q-48 -77 -135 -118.5t-203 -41.5q-192 0 -289.5 92t-97.5 295zM488 1204v24q37 47 94 132.5t96 161.5h210v-20q-43 -63 -133 -157t-151 -141h-116z" />
<glyph unicode="&#xfb;" horiz-adv-x="1228" d="M157 368v697h177v-686q0 -129 57.5 -191.5t178.5 -62.5q164 0 239 91t75 294v555h175v-1065h-143l-26 141h-8q-48 -77 -135 -118.5t-203 -41.5q-192 0 -289.5 92t-97.5 295zM271 1204v22q121 130 171 192t74 104h178q51 -98 248 -296v-22h-123q-87 51 -216 178 q-127 -124 -212 -178h-120z" />
<glyph unicode="&#xfc;" horiz-adv-x="1228" d="M157 368v697h177v-686q0 -129 57.5 -191.5t178.5 -62.5q164 0 239 91t75 294v555h175v-1065h-143l-26 141h-8q-48 -77 -135 -118.5t-203 -41.5q-192 0 -289.5 92t-97.5 295zM328 1353q0 52 27 74.5t66 22.5q38 0 66 -22.5t28 -74.5q0 -51 -28 -75.5t-66 -24.5 q-39 0 -66 24.5t-27 75.5zM701 1353q0 52 27.5 74.5t63.5 22.5q38 0 66.5 -22.5t28.5 -74.5q0 -51 -28.5 -75.5t-66.5 -24.5q-36 0 -63.5 24.5t-27.5 75.5z" />
<glyph unicode="&#xfd;" horiz-adv-x="1012" d="M2 1065h187l230 -606q73 -198 89 -290h8q9 36 40 134.5t52 157.5l216 604h189l-459 -1212q-67 -177 -159 -253.5t-228 -76.5q-73 0 -145 16v139q49 -12 117 -12q83 0 141.5 46t94.5 142l56 142zM397 1204v24q37 47 94 132.5t96 161.5h210v-20q-43 -63 -133 -157 t-151 -141h-116z" />
<glyph unicode="&#xfe;" horiz-adv-x="1222" d="M169 -477v1986h174v-444q0 -68 -5 -143h7q65 88 146 125t184 37q207 0 322.5 -145t115.5 -405t-115.5 -406.5t-322.5 -146.5q-215 0 -332 154h-11q11 -128 11 -167v-445h-174zM343 534q0 -216 72 -312.5t233 -96.5q284 0 284 411q0 202 -69.5 302t-216.5 100 q-156 0 -228.5 -87t-74.5 -279v-38z" />
<glyph unicode="&#xff;" horiz-adv-x="1012" d="M2 1065h187l230 -606q73 -198 89 -290h8q9 36 40 134.5t52 157.5l216 604h189l-459 -1212q-67 -177 -159 -253.5t-228 -76.5q-73 0 -145 16v139q49 -12 117 -12q83 0 141.5 46t94.5 142l56 142zM227 1353q0 52 27 74.5t66 22.5q38 0 66 -22.5t28 -74.5q0 -51 -28 -75.5 t-66 -24.5q-39 0 -66 24.5t-27 75.5zM600 1353q0 52 27.5 74.5t63.5 22.5q38 0 66.5 -22.5t28.5 -74.5q0 -51 -28.5 -75.5t-66.5 -24.5q-36 0 -63.5 24.5t-27.5 75.5z" />
<glyph unicode="&#x100;" horiz-adv-x="1269" d="M0 0l554 1424h161l553 -1424h-185l-171 439h-563l-169 -439h-180zM354 1532v140h590v-140h-590zM409 598h449l-159 429l-68 213q-29 -117 -61 -213z" />
<glyph unicode="&#x101;" horiz-adv-x="1114" d="M91 296q0 324 511 339l181 7v63q0 121 -52.5 179t-167.5 58q-85 0 -160 -25.5t-141 -56.5l-53 131q80 43 175 67.5t188 24.5q193 0 287.5 -85.5t94.5 -271.5v-726h-128l-34 151h-7q-80 -100 -159 -135t-199 -35q-157 0 -246.5 82.5t-89.5 232.5zM273 294 q0 -84 50.5 -128.5t143.5 -44.5q146 0 230 79t84 225v96l-157 -7q-184 -7 -267.5 -58.5t-83.5 -161.5zM283 1204v140h590v-140h-590z" />
<glyph unicode="&#x102;" horiz-adv-x="1269" d="M0 0l554 1424h161l553 -1424h-185l-171 439h-563l-169 -439h-180zM324 1799h107q8 -69 48.5 -98t152.5 -29q98 0 145.5 31t55.5 96h109q-12 -128 -95.5 -197.5t-218.5 -69.5q-137 0 -216 67t-88 200zM409 598h449l-159 429l-68 213q-29 -117 -61 -213z" />
<glyph unicode="&#x103;" horiz-adv-x="1114" d="M91 296q0 324 511 339l181 7v63q0 121 -52.5 179t-167.5 58q-85 0 -160 -25.5t-141 -56.5l-53 131q80 43 175 67.5t188 24.5q193 0 287.5 -85.5t94.5 -271.5v-726h-128l-34 151h-7q-80 -100 -159 -135t-199 -35q-157 0 -246.5 82.5t-89.5 232.5zM255 1471h107 q8 -69 48.5 -98t152.5 -29q98 0 145.5 31t55.5 96h109q-12 -128 -95.5 -197.5t-218.5 -69.5q-137 0 -216 67t-88 200zM273 294q0 -84 50.5 -128.5t143.5 -44.5q146 0 230 79t84 225v96l-157 -7q-184 -7 -267.5 -58.5t-83.5 -161.5z" />
<glyph unicode="&#x104;" horiz-adv-x="1269" d="M0 0l554 1424h161l553 -1424h-185l-171 439h-563l-169 -439h-180zM409 598h449l-159 429l-68 213q-29 -117 -61 -213zM930 -250q0 135 155 250h123q-68 -64 -101.5 -117t-33.5 -114q0 -44 23.5 -66.5t65.5 -22.5t96 13v-112q-67 -18 -123 -18q-205 0 -205 187z" />
<glyph unicode="&#x105;" horiz-adv-x="1114" d="M91 296q0 324 511 339l181 7v63q0 121 -52.5 179t-167.5 58q-85 0 -160 -25.5t-141 -56.5l-53 131q80 43 175 67.5t188 24.5q193 0 287.5 -85.5t94.5 -271.5v-726h-128l-34 151h-7q-80 -100 -159 -135t-199 -35q-157 0 -246.5 82.5t-89.5 232.5zM273 294 q0 -84 50.5 -128.5t143.5 -44.5q146 0 230 79t84 225v96l-157 -7q-184 -7 -267.5 -58.5t-83.5 -161.5zM671 -250q0 135 155 250h123q-68 -64 -101.5 -117t-33.5 -114q0 -44 23.5 -66.5t65.5 -22.5t96 13v-112q-67 -18 -123 -18q-205 0 -205 187z" />
<glyph unicode="&#x106;" horiz-adv-x="1255" d="M121 711q0 219 81 384t236 254.5t364 89.5q225 0 392 -84l-72 -151q-169 77 -322 77q-229 0 -360 -153t-131 -419q0 -274 127.5 -423t361.5 -149q152 0 341 56v-155q-90 -33 -173.5 -45t-192.5 -12q-313 0 -482.5 190.5t-169.5 539.5zM631 1532v24q37 47 94 132.5 t96 161.5h210v-20q-43 -63 -133 -157t-151 -141h-116z" />
<glyph unicode="&#x107;" horiz-adv-x="953" d="M110 527q0 267 129.5 412t368.5 145q78 0 154 -16t126 -41l-54 -145q-135 50 -230 50q-161 0 -237.5 -101.5t-76.5 -301.5q0 -193 76.5 -295.5t227.5 -102.5q140 0 276 62v-155q-110 -57 -274 -57q-230 0 -358 141t-128 405zM445 1204v24q37 47 94 132.5t96 161.5h210 v-20q-43 -63 -133 -157t-151 -141h-116z" />
<glyph unicode="&#x108;" horiz-adv-x="1255" d="M121 711q0 219 81 384t236 254.5t364 89.5q225 0 392 -84l-72 -151q-169 77 -322 77q-229 0 -360 -153t-131 -419q0 -274 127.5 -423t361.5 -149q152 0 341 56v-155q-90 -33 -173.5 -45t-192.5 -12q-313 0 -482.5 190.5t-169.5 539.5zM436 1532v22q121 130 171 192 t74 104h178q51 -98 248 -296v-22h-123q-87 51 -216 178q-127 -124 -212 -178h-120z" />
<glyph unicode="&#x109;" horiz-adv-x="953" d="M110 527q0 267 129.5 412t368.5 145q78 0 154 -16t126 -41l-54 -145q-135 50 -230 50q-161 0 -237.5 -101.5t-76.5 -301.5q0 -193 76.5 -295.5t227.5 -102.5q140 0 276 62v-155q-110 -57 -274 -57q-230 0 -358 141t-128 405zM234 1204v22q121 130 171 192t74 104h178 q51 -98 248 -296v-22h-123q-87 51 -216 178q-127 -124 -212 -178h-120z" />
<glyph unicode="&#x10a;" horiz-adv-x="1255" d="M121 711q0 219 81 384t236 254.5t364 89.5q225 0 392 -84l-72 -151q-169 77 -322 77q-229 0 -360 -153t-131 -419q0 -274 127.5 -423t361.5 -149q152 0 341 56v-155q-90 -33 -173.5 -45t-192.5 -12q-313 0 -482.5 190.5t-169.5 539.5zM669 1681q0 58 29.5 84.5t73.5 26.5 q41 0 71.5 -26.5t30.5 -84.5q0 -57 -30.5 -84t-71.5 -27q-44 0 -73.5 27t-29.5 84z" />
<glyph unicode="&#x10b;" horiz-adv-x="953" d="M110 527q0 267 129.5 412t368.5 145q78 0 154 -16t126 -41l-54 -145q-135 50 -230 50q-161 0 -237.5 -101.5t-76.5 -301.5q0 -193 76.5 -295.5t227.5 -102.5q140 0 276 62v-155q-110 -57 -274 -57q-230 0 -358 141t-128 405zM479 1353q0 58 29.5 84.5t73.5 26.5 q41 0 71.5 -26.5t30.5 -84.5q0 -57 -30.5 -84t-71.5 -27q-44 0 -73.5 27t-29.5 84z" />
<glyph unicode="&#x10c;" horiz-adv-x="1255" d="M121 711q0 219 81 384t236 254.5t364 89.5q225 0 392 -84l-72 -151q-169 77 -322 77q-229 0 -360 -153t-131 -419q0 -274 127.5 -423t361.5 -149q152 0 341 56v-155q-90 -33 -173.5 -45t-192.5 -12q-313 0 -482.5 190.5t-169.5 539.5zM436 1824v26h120q110 -72 212 -183 q122 122 216 183h123v-26q-198 -199 -248 -292h-178q-59 99 -245 292z" />
<glyph unicode="&#x10d;" horiz-adv-x="953" d="M110 527q0 267 129.5 412t368.5 145q78 0 154 -16t126 -41l-54 -145q-135 50 -230 50q-161 0 -237.5 -101.5t-76.5 -301.5q0 -193 76.5 -295.5t227.5 -102.5q140 0 276 62v-155q-110 -57 -274 -57q-230 0 -358 141t-128 405zM241 1496v26h120q110 -72 212 -183 q122 122 216 183h123v-26q-198 -199 -248 -292h-178q-59 99 -245 292z" />
<glyph unicode="&#x10e;" horiz-adv-x="1450" d="M193 0v1418h437q330 0 514.5 -182t184.5 -513q0 -351 -191.5 -537t-549.5 -186h-395zM337 1824v26h120q110 -72 212 -183q122 122 216 183h123v-26q-198 -199 -248 -292h-178q-59 99 -245 292zM372 153h193q576 0 576 564q0 270 -133.5 409.5t-403.5 139.5h-232v-1113z " />
<glyph unicode="&#x10f;" horiz-adv-x="1222" d="M110 531q0 261 115 407t323 146q214 0 330 -157h12q-2 20 -7 78.5t-5 78.5v425h174v-1509h-140l-26 143h-8q-112 -162 -332 -162q-207 0 -321.5 143.5t-114.5 406.5zM290 527q0 -198 73 -300t211 -102q159 0 232.5 87t73.5 285v32q0 222 -74.5 316.5t-233.5 94.5 q-135 0 -208.5 -107t-73.5 -306zM1141 1192v23q23 64 41.5 154.5t24.5 139.5h173v-17q-13 -52 -54.5 -141t-89.5 -159h-95z" />
<glyph unicode="&#x110;" horiz-adv-x="1450" d="M59 624v155h148v639h423q330 0 514.5 -183t184.5 -512q0 -349 -190.5 -536t-552.5 -187h-379v624h-148zM385 153h180q576 0 576 564q0 271 -135 410t-402 139h-219v-487h354v-155h-354v-471z" />
<glyph unicode="&#x111;" horiz-adv-x="1226" d="M110 527q0 263 114 407.5t322 144.5q216 0 332 -157h12q-2 13 -7 66.5t-5 92.5v121h-423v131h423v176h174v-176h152v-131h-152v-1202h-142l-26 143h-8q-112 -162 -330 -162q-207 0 -321.5 142.5t-114.5 403.5zM292 525q0 -191 70 -295.5t214 -104.5q158 0 231 86t73 282 v34q0 223 -74 315t-234 92q-136 0 -208 -103.5t-72 -305.5z" />
<glyph unicode="&#x112;" horiz-adv-x="1104" d="M193 0v1418h793v-157h-614v-442h578v-156h-578v-506h614v-157h-793zM294 1532v140h590v-140h-590z" />
<glyph unicode="&#x113;" horiz-adv-x="1120" d="M110 525q0 256 127 407.5t343 151.5q201 0 320 -129.5t119 -350.5v-105h-729q5 -182 92 -276t248 -94q85 0 161.5 15t179.5 59v-154q-88 -37 -165.5 -52.5t-183.5 -15.5q-240 0 -376 145t-136 399zM294 637h542q-2 150 -69 227.5t-189 77.5q-125 0 -198 -80.5t-86 -224.5 zM298 1204v140h590v-140h-590z" />
<glyph unicode="&#x114;" horiz-adv-x="1104" d="M193 0v1418h793v-157h-614v-442h578v-156h-578v-506h614v-157h-793zM290 1799h107q8 -69 48.5 -98t152.5 -29q98 0 145.5 31t55.5 96h109q-12 -128 -95.5 -197.5t-218.5 -69.5q-137 0 -216 67t-88 200z" />
<glyph unicode="&#x115;" horiz-adv-x="1120" d="M110 525q0 256 127 407.5t343 151.5q201 0 320 -129.5t119 -350.5v-105h-729q5 -182 92 -276t248 -94q85 0 161.5 15t179.5 59v-154q-88 -37 -165.5 -52.5t-183.5 -15.5q-240 0 -376 145t-136 399zM275 1471h107q8 -69 48.5 -98t152.5 -29q98 0 145.5 31t55.5 96h109 q-12 -128 -95.5 -197.5t-218.5 -69.5q-137 0 -216 67t-88 200zM294 637h542q-2 150 -69 227.5t-189 77.5q-125 0 -198 -80.5t-86 -224.5z" />
<glyph unicode="&#x116;" horiz-adv-x="1104" d="M193 0v1418h793v-157h-614v-442h578v-156h-578v-506h614v-157h-793zM502 1653q0 58 29.5 84.5t73.5 26.5q41 0 71.5 -26.5t30.5 -84.5q0 -57 -30.5 -84t-71.5 -27q-44 0 -73.5 27t-29.5 84z" />
<glyph unicode="&#x117;" horiz-adv-x="1120" d="M110 525q0 256 127 407.5t343 151.5q201 0 320 -129.5t119 -350.5v-105h-729q5 -182 92 -276t248 -94q85 0 161.5 15t179.5 59v-154q-88 -37 -165.5 -52.5t-183.5 -15.5q-240 0 -376 145t-136 399zM294 637h542q-2 150 -69 227.5t-189 77.5q-125 0 -198 -80.5t-86 -224.5 zM483 1353q0 58 29.5 84.5t73.5 26.5q41 0 71.5 -26.5t30.5 -84.5q0 -57 -30.5 -84t-71.5 -27q-44 0 -73.5 27t-29.5 84z" />
<glyph unicode="&#x118;" horiz-adv-x="1104" d="M193 0v1418h793v-157h-614v-442h578v-156h-578v-506h614v-157h-793zM636 -250q0 135 155 250h123q-68 -64 -101.5 -117t-33.5 -114q0 -44 23.5 -66.5t65.5 -22.5t96 13v-112q-67 -18 -123 -18q-205 0 -205 187z" />
<glyph unicode="&#x119;" horiz-adv-x="1120" d="M110 525q0 256 127 407.5t343 151.5q201 0 320 -129.5t119 -350.5v-105h-729q5 -182 92 -276t248 -94q85 0 161.5 15t179.5 59v-154q-88 -37 -165.5 -52.5t-183.5 -15.5q-240 0 -376 145t-136 399zM294 637h542q-2 150 -69 227.5t-189 77.5q-125 0 -198 -80.5t-86 -224.5 zM626 -222q0 135 155 250h123q-68 -64 -101.5 -117t-33.5 -114q0 -44 23.5 -66.5t65.5 -22.5t96 13v-112q-67 -18 -123 -18q-205 0 -205 187z" />
<glyph unicode="&#x11a;" horiz-adv-x="1104" d="M193 0v1418h793v-157h-614v-442h578v-156h-578v-506h614v-157h-793zM264 1824v26h120q110 -72 212 -183q122 122 216 183h123v-26q-198 -199 -248 -292h-178q-59 99 -245 292z" />
<glyph unicode="&#x11b;" horiz-adv-x="1120" d="M110 525q0 256 127 407.5t343 151.5q201 0 320 -129.5t119 -350.5v-105h-729q5 -182 92 -276t248 -94q85 0 161.5 15t179.5 59v-154q-88 -37 -165.5 -52.5t-183.5 -15.5q-240 0 -376 145t-136 399zM249 1496v26h120q110 -72 212 -183q122 122 216 183h123v-26 q-198 -199 -248 -292h-178q-59 99 -245 292zM294 637h542q-2 150 -69 227.5t-189 77.5q-125 0 -198 -80.5t-86 -224.5z" />
<glyph unicode="&#x11c;" horiz-adv-x="1446" d="M121 709q0 222 88.5 388t254.5 254t393 88q226 0 422 -84l-67 -155q-188 81 -366 81q-253 0 -396 -153t-143 -419q0 -281 137 -427.5t398 -146.5q143 0 278 34v421h-311v159h490v-696q-113 -36 -229 -54t-270 -18q-324 0 -501.5 192t-177.5 536zM493 1532v22 q121 130 171 192t74 104h178q51 -98 248 -296v-22h-123q-87 51 -216 178q-127 -124 -212 -178h-120z" />
<glyph unicode="&#x11d;" horiz-adv-x="1222" d="M110 531q0 257 116.5 405t319.5 148q216 0 334 -161h10l24 142h138v-1082q0 -229 -115.5 -344.5t-360.5 -115.5q-233 0 -383 68v161q155 -84 393 -84q136 0 215 79.5t79 220.5v42l6 131h-8q-108 -160 -330 -160q-207 0 -322.5 144t-115.5 406zM262 1204v22 q121 130 171 192t74 104h178q51 -98 248 -296v-22h-123q-87 51 -216 178q-127 -124 -212 -178h-120zM290 529q0 -198 71.5 -302t212.5 -104q161 0 234.5 87t73.5 279v42q0 213 -74 310t-238 97q-134 0 -207 -106t-73 -303z" />
<glyph unicode="&#x11e;" horiz-adv-x="1446" d="M121 709q0 222 88.5 388t254.5 254t393 88q226 0 422 -84l-67 -155q-188 81 -366 81q-253 0 -396 -153t-143 -419q0 -281 137 -427.5t398 -146.5q143 0 278 34v421h-311v159h490v-696q-113 -36 -229 -54t-270 -18q-324 0 -501.5 192t-177.5 536zM519 1799h107 q8 -69 48.5 -98t152.5 -29q98 0 145.5 31t55.5 96h109q-12 -128 -95.5 -197.5t-218.5 -69.5q-137 0 -216 67t-88 200z" />
<glyph unicode="&#x11f;" horiz-adv-x="1222" d="M110 531q0 257 116.5 405t319.5 148q216 0 334 -161h10l24 142h138v-1082q0 -229 -115.5 -344.5t-360.5 -115.5q-233 0 -383 68v161q155 -84 393 -84q136 0 215 79.5t79 220.5v42l6 131h-8q-108 -160 -330 -160q-207 0 -322.5 144t-115.5 406zM290 529q0 -198 71.5 -302 t212.5 -104q161 0 234.5 87t73.5 279v42q0 213 -74 310t-238 97q-134 0 -207 -106t-73 -303zM292 1471h107q8 -69 48.5 -98t152.5 -29q98 0 145.5 31t55.5 96h109q-12 -128 -95.5 -197.5t-218.5 -69.5q-137 0 -216 67t-88 200z" />
<glyph unicode="&#x120;" horiz-adv-x="1446" d="M121 709q0 222 88.5 388t254.5 254t393 88q226 0 422 -84l-67 -155q-188 81 -366 81q-253 0 -396 -153t-143 -419q0 -281 137 -427.5t398 -146.5q143 0 278 34v421h-311v159h490v-696q-113 -36 -229 -54t-270 -18q-324 0 -501.5 192t-177.5 536zM737 1681q0 58 29.5 84.5 t73.5 26.5q41 0 71.5 -26.5t30.5 -84.5q0 -57 -30.5 -84t-71.5 -27q-44 0 -73.5 27t-29.5 84z" />
<glyph unicode="&#x121;" horiz-adv-x="1222" d="M110 531q0 257 116.5 405t319.5 148q216 0 334 -161h10l24 142h138v-1082q0 -229 -115.5 -344.5t-360.5 -115.5q-233 0 -383 68v161q155 -84 393 -84q136 0 215 79.5t79 220.5v42l6 131h-8q-108 -160 -330 -160q-207 0 -322.5 144t-115.5 406zM290 529q0 -198 71.5 -302 t212.5 -104q161 0 234.5 87t73.5 279v42q0 213 -74 310t-238 97q-134 0 -207 -106t-73 -303zM491 1353q0 58 29.5 84.5t73.5 26.5q41 0 71.5 -26.5t30.5 -84.5q0 -57 -30.5 -84t-71.5 -27q-44 0 -73.5 27t-29.5 84z" />
<glyph unicode="&#x122;" horiz-adv-x="1446" d="M121 709q0 222 88.5 388t254.5 254t393 88q226 0 422 -84l-67 -155q-188 81 -366 81q-253 0 -396 -153t-143 -419q0 -281 137 -427.5t398 -146.5q143 0 278 34v421h-311v159h490v-696q-113 -36 -229 -54t-270 -18q-324 0 -501.5 192t-177.5 536zM640 -415 q21 49 47.5 139.5t33.5 154.5h173v-18q-15 -61 -62 -151.5t-97 -148.5h-95v24z" />
<glyph unicode="&#x123;" horiz-adv-x="1222" d="M110 531q0 257 116.5 405t319.5 148q216 0 334 -161h10l24 142h138v-1082q0 -229 -115.5 -344.5t-360.5 -115.5q-233 0 -383 68v161q155 -84 393 -84q136 0 215 79.5t79 220.5v42l6 131h-8q-108 -160 -330 -160q-207 0 -322.5 144t-115.5 406zM290 529q0 -198 71.5 -302 t212.5 -104q161 0 234.5 87t73.5 279v42q0 213 -74 310t-238 97q-134 0 -207 -106t-73 -303zM497 1204v18q14 55 62 148t97 152h97v-24q-26 -58 -51.5 -148t-32.5 -146h-172z" />
<glyph unicode="&#x124;" horiz-adv-x="1472" d="M193 0v1418h179v-599h727v599h178v-1418h-178v662h-727v-662h-179zM398 1532v22q121 130 171 192t74 104h178q51 -98 248 -296v-22h-123q-87 51 -216 178q-127 -124 -212 -178h-120z" />
<glyph unicode="&#x125;" horiz-adv-x="1228" d="M169 0v1509h174v-442q0 -87 -9 -149h11q48 77 135 121t197 44q194 0 292 -93t98 -296v-694h-173v681q0 130 -57.5 193.5t-180.5 63.5q-162 0 -237.5 -90t-75.5 -298v-550h-174zM284 1585v22q121 130 171 192t74 104h178q51 -98 248 -296v-22h-123q-87 51 -216 178 q-127 -124 -212 -178h-120z" />
<glyph unicode="&#x126;" horiz-adv-x="1472" d="M0 1039v143h193v236h179v-236h727v236h178v-236h194v-143h-194v-1039h-178v662h-727v-662h-179v1039h-193zM372 819h727v220h-727v-220z" />
<glyph unicode="&#x127;" horiz-adv-x="1228" d="M17 1200v131h152v178h174v-178h421v-131h-421v-173q0 -85 -9 -147h11q52 82 140.5 123.5t193.5 41.5q193 0 290.5 -94t97.5 -297v-654h-173v642q0 129 -57.5 192.5t-180.5 63.5q-164 0 -238.5 -89.5t-74.5 -296.5v-512h-174v1200h-152z" />
<glyph unicode="&#x128;" horiz-adv-x="673" d="M-27 1532q12 118 68 186t151 68q43 0 84.5 -18t79 -39t72.5 -39t66 -18q47 0 70.5 29t38.5 87h100q-12 -116 -68 -185t-150 -69q-41 0 -81 18t-78 38.5t-73.5 38.5t-68.5 18q-48 0 -72 -28.5t-38 -86.5h-101zM80 0v103l166 38v1135l-166 39v103h512v-103l-167 -39v-1135 l167 -38v-103h-512z" />
<glyph unicode="&#x129;" horiz-adv-x="512" d="M-107 1204q12 118 68 186t151 68q43 0 84.5 -18t79 -39t72.5 -39t66 -18q47 0 70.5 29t38.5 87h100q-12 -116 -68 -185t-150 -69q-41 0 -81 18t-78 38.5t-73.5 38.5t-68.5 18q-48 0 -72 -28.5t-38 -86.5h-101zM169 0v1065h174v-1065h-174z" />
<glyph unicode="&#x12a;" horiz-adv-x="673" d="M43 1532v140h590v-140h-590zM80 0v103l166 38v1135l-166 39v103h512v-103l-167 -39v-1135l167 -38v-103h-512z" />
<glyph unicode="&#x12b;" horiz-adv-x="512" d="M-35 1204v140h590v-140h-590zM169 0v1065h174v-1065h-174z" />
<glyph unicode="&#x12c;" horiz-adv-x="673" d="M29 1799h107q8 -69 48.5 -98t152.5 -29q98 0 145.5 31t55.5 96h109q-12 -128 -95.5 -197.5t-218.5 -69.5q-137 0 -216 67t-88 200zM80 0v103l166 38v1135l-166 39v103h512v-103l-167 -39v-1135l167 -38v-103h-512z" />
<glyph unicode="&#x12d;" horiz-adv-x="512" d="M-53 1471h107q8 -69 48.5 -98t152.5 -29q98 0 145.5 31t55.5 96h109q-12 -128 -95.5 -197.5t-218.5 -69.5q-137 0 -216 67t-88 200zM169 0v1065h174v-1065h-174z" />
<glyph unicode="&#x12e;" horiz-adv-x="673" d="M80 0v103l166 38v1135l-166 39v103h512v-103l-167 -39v-1135l167 -38v-103h-512zM175 -250q0 135 155 250h123q-68 -64 -101.5 -117t-33.5 -114q0 -44 23.5 -66.5t65.5 -22.5t96 13v-112q-67 -18 -123 -18q-205 0 -205 187z" />
<glyph unicode="&#x12f;" horiz-adv-x="512" d="M50 -250q0 135 155 250h123q-68 -64 -101.5 -117t-33.5 -114q0 -44 23.5 -66.5t65.5 -22.5t96 13v-112q-67 -18 -123 -18q-205 0 -205 187zM155 1353q0 58 29.5 84.5t73.5 26.5q41 0 71.5 -26.5t30.5 -84.5q0 -57 -30.5 -84t-71.5 -27q-44 0 -73.5 27t-29.5 84zM169 0 v1065h174v-1065h-174z" />
<glyph unicode="&#x130;" horiz-adv-x="673" d="M80 0v103l166 38v1135l-166 39v103h512v-103l-167 -39v-1135l167 -38v-103h-512zM233 1681q0 58 29.5 84.5t73.5 26.5q41 0 71.5 -26.5t30.5 -84.5q0 -57 -30.5 -84t-71.5 -27q-44 0 -73.5 27t-29.5 84z" />
<glyph unicode="&#x131;" horiz-adv-x="512" d="M169 0v1065h174v-1065h-174z" />
<glyph unicode="&#x132;" horiz-adv-x="1215" d="M80 0v103l166 38v1135l-166 39v103h512v-103l-167 -39v-1135l167 -38v-103h-512zM518 -201q69 -19 143 -19q97 0 145.5 58.5t48.5 169.5v1410h180v-1396q0 -192 -95.5 -295.5t-274.5 -103.5q-91 0 -147 26v150z" />
<glyph unicode="&#x133;" horiz-adv-x="1021" d="M155 1353q0 58 29.5 84.5t73.5 26.5q41 0 71.5 -26.5t30.5 -84.5q0 -57 -30.5 -84t-71.5 -27q-44 0 -73.5 27t-29.5 84zM169 0v1065h174v-1065h-174zM398 -312q67 -20 132 -20q76 0 111.5 41.5t35.5 125.5v1230h174v-1224q0 -159 -76 -238.5t-223 -79.5q-92 0 -154 24 v141zM663 1353q0 58 29.5 84.5t73.5 26.5q41 0 71.5 -26.5t30.5 -84.5q0 -57 -30.5 -84t-71.5 -27q-44 0 -73.5 27t-29.5 84z" />
<glyph unicode="&#x134;" horiz-adv-x="542" d="M-155 -201q69 -19 143 -19q97 0 145.5 58.5t48.5 169.5v1410h180v-1396q0 -192 -95.5 -295.5t-274.5 -103.5q-91 0 -147 26v150zM-61 1532v22q121 130 171 192t74 104h178q51 -98 248 -296v-22h-123q-87 51 -216 178q-127 -124 -212 -178h-120z" />
<glyph unicode="&#x135;" horiz-adv-x="512" d="M-110 -312q67 -20 132 -20q76 0 111.5 41.5t35.5 125.5v1230h174v-1224q0 -159 -76 -238.5t-223 -79.5q-92 0 -154 24v141zM-85 1204v22q121 130 171 192t74 104h178q51 -98 248 -296v-22h-123q-87 51 -216 178q-127 -124 -212 -178h-120z" />
<glyph unicode="&#x136;" horiz-adv-x="1229" d="M193 0v1418h179v-699l122 135l505 564h209l-562 -618l584 -800h-211l-503 677l-144 -127v-550h-179zM489 -415q21 49 47.5 139.5t33.5 154.5h173v-18q-15 -61 -62 -151.5t-97 -148.5h-95v24z" />
<glyph unicode="&#x137;" horiz-adv-x="1061" d="M169 0v1509h172v-788l-7 -173h7l60 76l68 81l340 360h204l-431 -455l461 -610h-211l-369 497l-122 -106v-391h-172zM404 -415q21 49 47.5 139.5t33.5 154.5h173v-18q-15 -61 -62 -151.5t-97 -148.5h-95v24z" />
<glyph unicode="&#x138;" horiz-adv-x="1061" d="M169 0v1065h185v-276q0 -135 -13 -268l82 99l377 445h211l-403 -471l435 -594h-209l-349 481l-131 -108v-373h-185z" />
<glyph unicode="&#x139;" horiz-adv-x="1040" d="M193 0v1418h179v-1259h619v-159h-798zM233 1532v24q37 47 94 132.5t96 161.5h210v-20q-43 -63 -133 -157t-151 -141h-116z" />
<glyph unicode="&#x13a;" horiz-adv-x="512" d="M160 1587v24q37 47 94 132.5t96 161.5h210v-20q-43 -63 -133 -157t-151 -141h-116zM169 0v1509h174v-1509h-174z" />
<glyph unicode="&#x13b;" horiz-adv-x="1040" d="M193 0v1418h179v-1259h619v-159h-798zM405 -415q21 49 47.5 139.5t33.5 154.5h173v-18q-15 -61 -62 -151.5t-97 -148.5h-95v24z" />
<glyph unicode="&#x13c;" horiz-adv-x="512" d="M89 -415q21 49 47.5 139.5t33.5 154.5h173v-18q-15 -61 -62 -151.5t-97 -148.5h-95v24zM169 0v1509h174v-1509h-174z" />
<glyph unicode="&#x13d;" horiz-adv-x="1040" d="M193 0v1418h179v-1259h619v-159h-798zM661 1102v23q23 64 41.5 154.5t24.5 139.5h173v-17q-13 -52 -54.5 -141t-89.5 -159h-95z" />
<glyph unicode="&#x13e;" horiz-adv-x="512" d="M169 0v1509h174v-1509h-174zM434 1192v23q23 64 41.5 154.5t24.5 139.5h173v-17q-13 -52 -54.5 -141t-89.5 -159h-95z" />
<glyph unicode="&#x13f;" horiz-adv-x="1040" d="M193 0v1418h179v-1259h619v-159h-798zM659 710q0 58 29.5 84.5t73.5 26.5q41 0 71.5 -26.5t30.5 -84.5q0 -57 -30.5 -84t-71.5 -27q-44 0 -73.5 27t-29.5 84z" />
<glyph unicode="&#x140;" horiz-adv-x="646" d="M169 0v1509h174v-1509h-174zM477 662q0 58 29.5 84.5t73.5 26.5q41 0 71.5 -26.5t30.5 -84.5q0 -57 -30.5 -84t-71.5 -27q-44 0 -73.5 27t-29.5 84z" />
<glyph unicode="&#x141;" horiz-adv-x="1040" d="M26 554l167 100v764h179v-659l272 161l71 -126l-343 -198v-437h619v-159h-798v491l-98 -55z" />
<glyph unicode="&#x142;" horiz-adv-x="512" d="M-17 620l172 111v778h175v-665l127 88l74 -117l-201 -136v-679h-175v566l-102 -64z" />
<glyph unicode="&#x143;" horiz-adv-x="1509" d="M193 0v1418h207l43 -69l466 -719l247 -386h8q-2 24 -8 167t-6 207v800h167v-1418h-208l-760 1178h-8l5 -79q12 -177 12 -307v-792h-165zM631 1532v24q37 47 94 132.5t96 161.5h210v-20q-43 -63 -133 -157t-151 -141h-116z" />
<glyph unicode="&#x144;" horiz-adv-x="1228" d="M169 0v1065h140l27 -145h9q50 78 139 121t197 43q196 0 291 -95t95 -295v-694h-173v681q0 130 -57.5 193.5t-180.5 63.5q-164 0 -238.5 -90.5t-74.5 -295.5v-552h-174zM496 1204v24q37 47 94 132.5t96 161.5h210v-20q-43 -63 -133 -157t-151 -141h-116z" />
<glyph unicode="&#x145;" horiz-adv-x="1509" d="M193 0v1418h207l43 -69l466 -719l247 -386h8q-2 24 -8 167t-6 207v800h167v-1418h-208l-760 1178h-8l5 -79q12 -177 12 -307v-792h-165zM559 -415q21 49 47.5 139.5t33.5 154.5h173v-18q-15 -61 -62 -151.5t-97 -148.5h-95v24z" />
<glyph unicode="&#x146;" horiz-adv-x="1228" d="M169 0v1065h140l27 -145h9q50 78 139 121t197 43q196 0 291 -95t95 -295v-694h-173v681q0 130 -57.5 193.5t-180.5 63.5q-164 0 -238.5 -90.5t-74.5 -295.5v-552h-174zM441 -415q21 49 47.5 139.5t33.5 154.5h173v-18q-15 -61 -62 -151.5t-97 -148.5h-95v24z" />
<glyph unicode="&#x147;" horiz-adv-x="1509" d="M193 0v1418h207l43 -69l466 -719l247 -386h8q-2 24 -8 167t-6 207v800h167v-1418h-208l-760 1178h-8l5 -79q12 -177 12 -307v-792h-165zM419 1824v26h120q110 -72 212 -183q122 122 216 183h123v-26q-198 -199 -248 -292h-178q-59 99 -245 292z" />
<glyph unicode="&#x148;" horiz-adv-x="1228" d="M169 0v1065h140l27 -145h9q50 78 139 121t197 43q196 0 291 -95t95 -295v-694h-173v681q0 130 -57.5 193.5t-180.5 63.5q-164 0 -238.5 -90.5t-74.5 -295.5v-552h-174zM286 1496v26h120q110 -72 212 -183q122 122 216 183h123v-26q-198 -199 -248 -292h-178 q-59 99 -245 292z" />
<glyph unicode="&#x149;" horiz-adv-x="1372" d="M3 932q68 277 99 486h186l15 -21q-50 -193 -171 -465h-129zM310 0v1065h140l27 -145h9q50 78 139 121t197 43q196 0 291 -95t95 -295v-694h-173v681q0 130 -57.5 193.5t-180.5 63.5q-164 0 -238.5 -90.5t-74.5 -295.5v-552h-174z" />
<glyph unicode="&#x14a;" horiz-adv-x="1509" d="M193 0v1418h207l756 -1136h8q-14 150 -14 397v739h167v-1406q0 -190 -96.5 -289.5t-276.5 -99.5q-95 0 -152 26v150q69 -19 152 -19q99 0 151.5 56.5t54.5 163.5l-801 1178h-8q17 -248 17 -409v-769h-165z" />
<glyph unicode="&#x14b;" horiz-adv-x="1228" d="M169 0v1065h140l29 -145h9q51 79 138 121.5t194 42.5q196 0 293 -92.5t97 -296.5v-854q0 -149 -69.5 -233.5t-216.5 -84.5q-84 0 -141 24v141q58 -20 118 -20q134 0 134 167v849q0 129 -57.5 191.5t-178.5 62.5q-165 0 -240 -90.5t-75 -293.5v-554h-174z" />
<glyph unicode="&#x14c;" horiz-adv-x="1551" d="M121 713q0 346 170.5 536.5t487.5 190.5q308 0 480 -193.5t172 -535.5q0 -340 -172.5 -535t-481.5 -195q-313 0 -484.5 191.5t-171.5 540.5zM309 711q0 -281 119.5 -428.5t348.5 -147.5q228 0 346.5 145.5t118.5 430.5q0 284 -117.5 428t-345.5 144q-231 0 -350.5 -146 t-119.5 -426zM481 1532v140h590v-140h-590z" />
<glyph unicode="&#x14d;" horiz-adv-x="1201" d="M110 534q0 260 130 405t364 145q225 0 357.5 -147.5t132.5 -402.5q0 -260 -132 -406.5t-364 -146.5q-145 0 -256.5 67t-171.5 193.5t-60 292.5zM290 534q0 -200 79 -304.5t233 -104.5q153 0 232.5 104.5t79.5 304.5q0 201 -80 302.5t-235 101.5q-309 0 -309 -404z M306 1204v140h590v-140h-590z" />
<glyph unicode="&#x14e;" horiz-adv-x="1551" d="M121 713q0 346 170.5 536.5t487.5 190.5q308 0 480 -193.5t172 -535.5q0 -340 -172.5 -535t-481.5 -195q-313 0 -484.5 191.5t-171.5 540.5zM309 711q0 -281 119.5 -428.5t348.5 -147.5q228 0 346.5 145.5t118.5 430.5q0 284 -117.5 428t-345.5 144q-231 0 -350.5 -146 t-119.5 -426zM465 1799h107q8 -69 48.5 -98t152.5 -29q98 0 145.5 31t55.5 96h109q-12 -128 -95.5 -197.5t-218.5 -69.5q-137 0 -216 67t-88 200z" />
<glyph unicode="&#x14f;" horiz-adv-x="1201" d="M110 534q0 260 130 405t364 145q225 0 357.5 -147.5t132.5 -402.5q0 -260 -132 -406.5t-364 -146.5q-145 0 -256.5 67t-171.5 193.5t-60 292.5zM290 534q0 -200 79 -304.5t233 -104.5q153 0 232.5 104.5t79.5 304.5q0 201 -80 302.5t-235 101.5q-309 0 -309 -404z M290 1471h107q8 -69 48.5 -98t152.5 -29q98 0 145.5 31t55.5 96h109q-12 -128 -95.5 -197.5t-218.5 -69.5q-137 0 -216 67t-88 200z" />
<glyph unicode="&#x150;" horiz-adv-x="1551" d="M121 713q0 346 170.5 536.5t487.5 190.5q308 0 480 -193.5t172 -535.5q0 -340 -172.5 -535t-481.5 -195q-313 0 -484.5 191.5t-171.5 540.5zM309 711q0 -281 119.5 -428.5t348.5 -147.5q228 0 346.5 145.5t118.5 430.5q0 284 -117.5 428t-345.5 144q-231 0 -350.5 -146 t-119.5 -426zM489 1532v24q34 45 84.5 130.5t88.5 163.5h191v-20q-32 -55 -116 -150t-148 -148h-100zM839 1532v24q46 63 97.5 151.5t75.5 142.5h190v-20q-32 -55 -116 -150t-148 -148h-99z" />
<glyph unicode="&#x151;" horiz-adv-x="1201" d="M110 534q0 260 130 405t364 145q225 0 357.5 -147.5t132.5 -402.5q0 -260 -132 -406.5t-364 -146.5q-145 0 -256.5 67t-171.5 193.5t-60 292.5zM290 534q0 -200 79 -304.5t233 -104.5q153 0 232.5 104.5t79.5 304.5q0 201 -80 302.5t-235 101.5q-309 0 -309 -404z M305 1204v24q34 45 84.5 130.5t88.5 163.5h191v-20q-32 -55 -116 -150t-148 -148h-100zM655 1204v24q46 63 97.5 151.5t75.5 142.5h190v-20q-32 -55 -116 -150t-148 -148h-99z" />
<glyph unicode="&#x152;" horiz-adv-x="1843" d="M121 713q0 348 167.5 537.5t478.5 189.5q103 0 190 -22h768v-157h-571v-442h533v-156h-533v-506h571v-157h-756q-99 -19 -192 -19q-315 0 -485.5 191t-170.5 541zM307 711q0 -280 120.5 -428t353.5 -148q113 0 197 34v1082q-83 32 -195 32q-235 0 -355.5 -146.5 t-120.5 -425.5z" />
<glyph unicode="&#x153;" horiz-adv-x="1878" d="M108 534q0 258 128 403.5t358 145.5q126 0 225 -55.5t159 -163.5q58 106 151 162.5t215 56.5q199 0 315.5 -129t116.5 -350v-105h-707q8 -370 322 -370q87 0 162 15t176 59v-154q-91 -38 -165.5 -53t-174.5 -15q-281 0 -405 220q-62 -110 -163 -165t-233 -55 q-219 0 -349.5 149t-130.5 404zM290 534q0 -201 71 -305t229 -104q155 0 226.5 101.5t71.5 300.5q0 207 -72.5 309t-229.5 102q-156 0 -226 -102.5t-70 -301.5zM1073 637h518q0 147 -62.5 225t-186.5 78q-119 0 -188.5 -77t-80.5 -226z" />
<glyph unicode="&#x154;" horiz-adv-x="1235" d="M193 0v1418h391q264 0 390.5 -100.5t126.5 -301.5q0 -283 -284 -381l389 -635h-209l-343 586h-282v-586h-179zM372 737h212q173 0 252.5 68t79.5 202t-80.5 195.5t-261.5 61.5h-202v-527zM494 1532v24q37 47 94 132.5t96 161.5h210v-20q-43 -63 -133 -157t-151 -141h-116 z" />
<glyph unicode="&#x155;" horiz-adv-x="820" d="M169 0v1065h143l20 -195h8q61 106 144 160t181 54q71 0 126 -11l-22 -161q-59 13 -115 13q-85 0 -157 -46.5t-113 -128.5t-41 -182v-568h-174zM346 1204v24q37 47 94 132.5t96 161.5h210v-20q-43 -63 -133 -157t-151 -141h-116z" />
<glyph unicode="&#x156;" horiz-adv-x="1235" d="M193 0v1418h391q264 0 390.5 -100.5t126.5 -301.5q0 -283 -284 -381l389 -635h-209l-343 586h-282v-586h-179zM372 737h212q173 0 252.5 68t79.5 202t-80.5 195.5t-261.5 61.5h-202v-527zM481 -415q21 49 47.5 139.5t33.5 154.5h173v-18q-15 -61 -62 -151.5t-97 -148.5 h-95v24z" />
<glyph unicode="&#x157;" horiz-adv-x="820" d="M95 -415q21 49 47.5 139.5t33.5 154.5h173v-18q-15 -61 -62 -151.5t-97 -148.5h-95v24zM169 0v1065h143l20 -195h8q61 106 144 160t181 54q71 0 126 -11l-22 -161q-59 13 -115 13q-85 0 -157 -46.5t-113 -128.5t-41 -182v-568h-174z" />
<glyph unicode="&#x158;" horiz-adv-x="1235" d="M193 0v1418h391q264 0 390.5 -100.5t126.5 -301.5q0 -283 -284 -381l389 -635h-209l-343 586h-282v-586h-179zM280 1824v26h120q110 -72 212 -183q122 122 216 183h123v-26q-198 -199 -248 -292h-178q-59 99 -245 292zM372 737h212q173 0 252.5 68t79.5 202t-80.5 195.5 t-261.5 61.5h-202v-527z" />
<glyph unicode="&#x159;" horiz-adv-x="820" d="M122 1496v26h120q110 -72 212 -183q122 122 216 183h123v-26q-198 -199 -248 -292h-178q-59 99 -245 292zM169 0v1065h143l20 -195h8q61 106 144 160t181 54q71 0 126 -11l-22 -161q-59 13 -115 13q-85 0 -157 -46.5t-113 -128.5t-41 -182v-568h-174z" />
<glyph unicode="&#x15a;" horiz-adv-x="1090" d="M101 48v170q90 -39 197 -61t201 -22q159 0 239.5 61t80.5 168q0 71 -29.5 116.5t-97.5 85t-207 90.5q-197 72 -281.5 169t-84.5 252q0 166 125 264t328 98q213 0 391 -80l-55 -153q-182 75 -340 75q-126 0 -197 -54t-71 -152q0 -70 27.5 -116t89 -84t193.5 -86 q158 -59 235.5 -113.5t114.5 -126t37 -170.5q0 -185 -134 -291.5t-372 -106.5q-252 0 -390 67zM451 1532v24q37 47 94 132.5t96 161.5h210v-20q-43 -63 -133 -157t-151 -141h-116z" />
<glyph unicode="&#x15b;" horiz-adv-x="951" d="M101 802q0 131 106.5 206.5t293.5 75.5q181 0 339 -71l-59 -139q-162 68 -292 68q-109 0 -165 -34.5t-56 -94.5q0 -58 48.5 -96.5t225.5 -106.5q133 -49 196.5 -92t93.5 -96t30 -128q0 -149 -111.5 -231t-313.5 -82q-210 0 -334 67v159q175 -86 338 -86q132 0 192.5 43 t60.5 114q0 63 -58 107t-205 100q-151 58 -212 99.5t-89.5 92.5t-28.5 125zM359 1204v24q37 47 94 132.5t96 161.5h210v-20q-43 -63 -133 -157t-151 -141h-116z" />
<glyph unicode="&#x15c;" horiz-adv-x="1090" d="M101 48v170q90 -39 197 -61t201 -22q159 0 239.5 61t80.5 168q0 71 -29.5 116.5t-97.5 85t-207 90.5q-197 72 -281.5 169t-84.5 252q0 166 125 264t328 98q213 0 391 -80l-55 -153q-182 75 -340 75q-126 0 -197 -54t-71 -152q0 -70 27.5 -116t89 -84t193.5 -86 q158 -59 235.5 -113.5t114.5 -126t37 -170.5q0 -185 -134 -291.5t-372 -106.5q-252 0 -390 67zM231 1532v22q121 130 171 192t74 104h178q51 -98 248 -296v-22h-123q-87 51 -216 178q-127 -124 -212 -178h-120z" />
<glyph unicode="&#x15d;" horiz-adv-x="951" d="M101 802q0 131 106.5 206.5t293.5 75.5q181 0 339 -71l-59 -139q-162 68 -292 68q-109 0 -165 -34.5t-56 -94.5q0 -58 48.5 -96.5t225.5 -106.5q133 -49 196.5 -92t93.5 -96t30 -128q0 -149 -111.5 -231t-313.5 -82q-210 0 -334 67v159q175 -86 338 -86q132 0 192.5 43 t60.5 114q0 63 -58 107t-205 100q-151 58 -212 99.5t-89.5 92.5t-28.5 125zM152 1204v22q121 130 171 192t74 104h178q51 -98 248 -296v-22h-123q-87 51 -216 178q-127 -124 -212 -178h-120z" />
<glyph unicode="&#x15e;" horiz-adv-x="1090" d="M101 48v170q90 -39 197 -61t201 -22q159 0 239.5 61t80.5 168q0 71 -29.5 116.5t-97.5 85t-207 90.5q-197 72 -281.5 169t-84.5 252q0 166 125 264t328 98q213 0 391 -80l-55 -153q-182 75 -340 75q-126 0 -197 -54t-71 -152q0 -70 27.5 -116t89 -84t193.5 -86 q158 -59 235.5 -113.5t114.5 -126t37 -170.5q0 -185 -134 -291.5t-372 -106.5q-252 0 -390 67zM318 -358q35 -10 105 -10q73 0 110 19t37 69q0 86 -181 109l85 171h116l-52 -106q173 -37 173 -170q0 -96 -73 -148.5t-221 -52.5q-63 0 -99 10v109z" />
<glyph unicode="&#x15f;" horiz-adv-x="951" d="M101 802q0 131 106.5 206.5t293.5 75.5q181 0 339 -71l-59 -139q-162 68 -292 68q-109 0 -165 -34.5t-56 -94.5q0 -58 48.5 -96.5t225.5 -106.5q133 -49 196.5 -92t93.5 -96t30 -128q0 -149 -111.5 -231t-313.5 -82q-210 0 -334 67v159q175 -86 338 -86q132 0 192.5 43 t60.5 114q0 63 -58 107t-205 100q-151 58 -212 99.5t-89.5 92.5t-28.5 125zM242 -358q35 -10 105 -10q73 0 110 19t37 69q0 86 -181 109l85 171h116l-52 -106q173 -37 173 -170q0 -96 -73 -148.5t-221 -52.5q-63 0 -99 10v109z" />
<glyph unicode="&#x160;" horiz-adv-x="1090" d="M101 48v170q90 -39 197 -61t201 -22q159 0 239.5 61t80.5 168q0 71 -29.5 116.5t-97.5 85t-207 90.5q-197 72 -281.5 169t-84.5 252q0 166 125 264t328 98q213 0 391 -80l-55 -153q-182 75 -340 75q-126 0 -197 -54t-71 -152q0 -70 27.5 -116t89 -84t193.5 -86 q158 -59 235.5 -113.5t114.5 -126t37 -170.5q0 -185 -134 -291.5t-372 -106.5q-252 0 -390 67zM227 1824v26h120q110 -72 212 -183q122 122 216 183h123v-26q-198 -199 -248 -292h-178q-59 99 -245 292z" />
<glyph unicode="&#x161;" horiz-adv-x="951" d="M101 802q0 131 106.5 206.5t293.5 75.5q181 0 339 -71l-59 -139q-162 68 -292 68q-109 0 -165 -34.5t-56 -94.5q0 -58 48.5 -96.5t225.5 -106.5q133 -49 196.5 -92t93.5 -96t30 -128q0 -149 -111.5 -231t-313.5 -82q-210 0 -334 67v159q175 -86 338 -86q132 0 192.5 43 t60.5 114q0 63 -58 107t-205 100q-151 58 -212 99.5t-89.5 92.5t-28.5 125zM164 1496v26h120q110 -72 212 -183q122 122 216 183h123v-26q-198 -199 -248 -292h-178q-59 99 -245 292z" />
<glyph unicode="&#x162;" horiz-adv-x="1104" d="M19 1261v157h1064v-157h-441v-1261h-179v1261h-444zM344 -358q35 -10 105 -10q73 0 110 19t37 69q0 86 -181 109l85 171h116l-52 -106q173 -37 173 -170q0 -96 -73 -148.5t-221 -52.5q-63 0 -99 10v109z" />
<glyph unicode="&#x163;" horiz-adv-x="716" d="M32 929v84l152 70l70 227h104v-245h307v-136h-307v-615q0 -92 44 -141.5t123 -49.5q34 0 79.5 7t68.5 16v-134q-24 -11 -75 -21t-103 -10q-313 0 -313 328v620h-150zM227 -358q35 -10 105 -10q73 0 110 19t37 69q0 86 -181 109l85 171h116l-52 -106q173 -37 173 -170 q0 -96 -73 -148.5t-221 -52.5q-63 0 -99 10v109z" />
<glyph unicode="&#x164;" horiz-adv-x="1104" d="M19 1261v157h1064v-157h-441v-1261h-179v1261h-444zM219 1824v26h120q110 -72 212 -183q122 122 216 183h123v-26q-198 -199 -248 -292h-178q-59 99 -245 292z" />
<glyph unicode="&#x165;" horiz-adv-x="716" d="M32 929v84l152 70l70 227h104v-245h307v-136h-307v-615q0 -92 44 -141.5t123 -49.5q34 0 79.5 7t68.5 16v-134q-24 -11 -75 -21t-103 -10q-313 0 -313 328v620h-150zM489 1192v23q23 64 41.5 154.5t24.5 139.5h173v-17q-13 -52 -54.5 -141t-89.5 -159h-95z" />
<glyph unicode="&#x166;" horiz-adv-x="1104" d="M19 1259v159h1064v-159h-444v-467h295v-146h-295v-646h-178v646h-296v146h296v467h-442z" />
<glyph unicode="&#x167;" horiz-adv-x="716" d="M32 929v84l152 70l70 227h104v-245h307v-136h-307v-241h290v-132h-290v-226q0 -103 41 -155t130 -52q82 0 144 23v-134q-25 -12 -77 -21.5t-107 -9.5q-307 0 -307 339v236h-134v132h134v241h-150z" />
<glyph unicode="&#x168;" horiz-adv-x="1452" d="M178 504v914h180v-919q0 -174 92.5 -269t278.5 -95q176 0 270.5 94t94.5 272v917h178v-917q0 -243 -146.5 -381.5t-406.5 -138.5q-257 0 -399 140t-142 383zM362 1532q12 118 68 186t151 68q43 0 84.5 -18t79 -39t72.5 -39t66 -18q47 0 70.5 29t38.5 87h100 q-12 -116 -68 -185t-150 -69q-41 0 -81 18t-78 38.5t-73.5 38.5t-68.5 18q-48 0 -72 -28.5t-38 -86.5h-101z" />
<glyph unicode="&#x169;" horiz-adv-x="1228" d="M157 368v697h177v-686q0 -129 57.5 -191.5t178.5 -62.5q164 0 239 91t75 294v555h175v-1065h-143l-26 141h-8q-48 -77 -135 -118.5t-203 -41.5q-192 0 -289.5 92t-97.5 295zM247 1204q12 118 68 186t151 68q43 0 84.5 -18t79 -39t72.5 -39t66 -18q47 0 70.5 29t38.5 87 h100q-12 -116 -68 -185t-150 -69q-41 0 -81 18t-78 38.5t-73.5 38.5t-68.5 18q-48 0 -72 -28.5t-38 -86.5h-101z" />
<glyph unicode="&#x16a;" horiz-adv-x="1452" d="M178 504v914h180v-919q0 -174 92.5 -269t278.5 -95q176 0 270.5 94t94.5 272v917h178v-917q0 -243 -146.5 -381.5t-406.5 -138.5q-257 0 -399 140t-142 383zM431 1532v140h590v-140h-590z" />
<glyph unicode="&#x16b;" horiz-adv-x="1228" d="M157 368v697h177v-686q0 -129 57.5 -191.5t178.5 -62.5q164 0 239 91t75 294v555h175v-1065h-143l-26 141h-8q-48 -77 -135 -118.5t-203 -41.5q-192 0 -289.5 92t-97.5 295zM316 1204v140h590v-140h-590z" />
<glyph unicode="&#x16c;" horiz-adv-x="1452" d="M178 504v914h180v-919q0 -174 92.5 -269t278.5 -95q176 0 270.5 94t94.5 272v917h178v-917q0 -243 -146.5 -381.5t-406.5 -138.5q-257 0 -399 140t-142 383zM413 1799h107q8 -69 48.5 -98t152.5 -29q98 0 145.5 31t55.5 96h109q-12 -128 -95.5 -197.5t-218.5 -69.5 q-137 0 -216 67t-88 200z" />
<glyph unicode="&#x16d;" horiz-adv-x="1228" d="M157 368v697h177v-686q0 -129 57.5 -191.5t178.5 -62.5q164 0 239 91t75 294v555h175v-1065h-143l-26 141h-8q-48 -77 -135 -118.5t-203 -41.5q-192 0 -289.5 92t-97.5 295zM297 1471h107q8 -69 48.5 -98t152.5 -29q98 0 145.5 31t55.5 96h109q-12 -128 -95.5 -197.5 t-218.5 -69.5q-137 0 -216 67t-88 200z" />
<glyph unicode="&#x16e;" horiz-adv-x="1452" d="M178 504v914h180v-919q0 -174 92.5 -269t278.5 -95q176 0 270.5 94t94.5 272v917h178v-917q0 -243 -146.5 -381.5t-406.5 -138.5q-257 0 -399 140t-142 383zM507 1742q0 95 58 152t158 57q98 0 159.5 -57.5t61.5 -149.5q0 -98 -61 -155t-160 -57q-100 0 -158 56.5 t-58 153.5zM612 1742q0 -52 28.5 -81.5t82.5 -29.5q50 0 80.5 29.5t30.5 81.5q0 53 -31.5 82.5t-79.5 29.5t-79.5 -29.5t-31.5 -82.5z" />
<glyph unicode="&#x16f;" horiz-adv-x="1228" d="M157 368v697h177v-686q0 -129 57.5 -191.5t178.5 -62.5q164 0 239 91t75 294v555h175v-1065h-143l-26 141h-8q-48 -77 -135 -118.5t-203 -41.5q-192 0 -289.5 92t-97.5 295zM392 1414q0 95 58 152t158 57q98 0 159.5 -57.5t61.5 -149.5q0 -98 -61 -155t-160 -57 q-100 0 -158 56.5t-58 153.5zM497 1414q0 -52 28.5 -81.5t82.5 -29.5q50 0 80.5 29.5t30.5 81.5q0 53 -31.5 82.5t-79.5 29.5t-79.5 -29.5t-31.5 -82.5z" />
<glyph unicode="&#x170;" horiz-adv-x="1452" d="M178 504v914h180v-919q0 -174 92.5 -269t278.5 -95q176 0 270.5 94t94.5 272v917h178v-917q0 -243 -146.5 -381.5t-406.5 -138.5q-257 0 -399 140t-142 383zM438 1532v24q34 45 84.5 130.5t88.5 163.5h191v-20q-32 -55 -116 -150t-148 -148h-100zM788 1532v24 q46 63 97.5 151.5t75.5 142.5h190v-20q-32 -55 -116 -150t-148 -148h-99z" />
<glyph unicode="&#x171;" horiz-adv-x="1228" d="M157 368v697h177v-686q0 -129 57.5 -191.5t178.5 -62.5q164 0 239 91t75 294v555h175v-1065h-143l-26 141h-8q-48 -77 -135 -118.5t-203 -41.5q-192 0 -289.5 92t-97.5 295zM326 1204v24q34 45 84.5 130.5t88.5 163.5h191v-20q-32 -55 -116 -150t-148 -148h-100z M676 1204v24q46 63 97.5 151.5t75.5 142.5h190v-20q-32 -55 -116 -150t-148 -148h-99z" />
<glyph unicode="&#x172;" horiz-adv-x="1452" d="M178 504v914h180v-919q0 -174 92.5 -269t278.5 -95q176 0 270.5 94t94.5 272v917h178v-917q0 -243 -146.5 -381.5t-406.5 -138.5q-257 0 -399 140t-142 383zM565 -250q0 135 155 250h123q-68 -64 -101.5 -117t-33.5 -114q0 -44 23.5 -66.5t65.5 -22.5t96 13v-112 q-67 -18 -123 -18q-205 0 -205 187z" />
<glyph unicode="&#x173;" horiz-adv-x="1228" d="M157 368v697h177v-686q0 -129 57.5 -191.5t178.5 -62.5q164 0 239 91t75 294v555h175v-1065h-143l-26 141h-8q-48 -77 -135 -118.5t-203 -41.5q-192 0 -289.5 92t-97.5 295zM767 -250q0 135 155 250h123q-68 -64 -101.5 -117t-33.5 -114q0 -44 23.5 -66.5t65.5 -22.5 t96 13v-112q-67 -18 -123 -18q-205 0 -205 187z" />
<glyph unicode="&#x174;" horiz-adv-x="1847" d="M24 1418h186l221 -866q44 -170 68 -338q21 159 75 349l250 855h185l261 -862q50 -168 77 -342q16 134 69 340l219 864h187l-378 -1418h-180l-277 929q-61 208 -71 281q-16 -112 -68 -287l-268 -923h-180zM584 1532v22q121 130 171 192t74 104h178q51 -98 248 -296v-22 h-123q-87 51 -216 178q-127 -124 -212 -178h-120z" />
<glyph unicode="&#x175;" horiz-adv-x="1561" d="M22 1065h181q101 -393 153.5 -597.5t62.5 -289.5h8l13 61q30 138 59 226l189 600h190l183 -600q10 -34 21 -72.5t21 -76t17.5 -72.5t11.5 -64h9q8 74 71 317l149 568h178l-295 -1065h-205l-182 599q-26 75 -74 283h-8q-41 -189 -72 -284l-191 -598h-198zM445 1204v22 q121 130 171 192t74 104h178q51 -98 248 -296v-22h-123q-87 51 -216 178q-127 -124 -212 -178h-120z" />
<glyph unicode="&#x176;" horiz-adv-x="1124" d="M0 1418h195l368 -697l369 697h192l-472 -868v-550h-180v542zM227 1532v22q121 130 171 192t74 104h178q51 -98 248 -296v-22h-123q-87 51 -216 178q-127 -124 -212 -178h-120z" />
<glyph unicode="&#x177;" horiz-adv-x="1012" d="M2 1065h187l230 -606q73 -198 89 -290h8q9 36 40 134.5t52 157.5l216 604h189l-459 -1212q-67 -177 -159 -253.5t-228 -76.5q-73 0 -145 16v139q49 -12 117 -12q83 0 141.5 46t94.5 142l56 142zM177 1204v22q121 130 171 192t74 104h178q51 -98 248 -296v-22h-123 q-87 51 -216 178q-127 -124 -212 -178h-120z" />
<glyph unicode="&#x178;" horiz-adv-x="1124" d="M0 1418h195l368 -697l369 697h192l-472 -868v-550h-180v542zM285 1681q0 52 27 74.5t66 22.5q38 0 66 -22.5t28 -74.5q0 -51 -28 -75.5t-66 -24.5q-39 0 -66 24.5t-27 75.5zM658 1681q0 52 27.5 74.5t63.5 22.5q38 0 66.5 -22.5t28.5 -74.5q0 -51 -28.5 -75.5 t-66.5 -24.5q-36 0 -63.5 24.5t-27.5 75.5z" />
<glyph unicode="&#x179;" horiz-adv-x="1135" d="M76 0v135l747 1124h-724v159h940v-135l-747 -1124h767v-159h-983zM439 1532v24q37 47 94 132.5t96 161.5h210v-20q-43 -63 -133 -157t-151 -141h-116z" />
<glyph unicode="&#x17a;" horiz-adv-x="934" d="M78 0v115l572 814h-538v136h730v-131l-564 -799h579v-135h-779zM359 1204v24q37 47 94 132.5t96 161.5h210v-20q-43 -63 -133 -157t-151 -141h-116z" />
<glyph unicode="&#x17b;" horiz-adv-x="1135" d="M76 0v135l747 1124h-724v159h940v-135l-747 -1124h767v-159h-983zM462 1681q0 58 29.5 84.5t73.5 26.5q41 0 71.5 -26.5t30.5 -84.5q0 -57 -30.5 -84t-71.5 -27q-44 0 -73.5 27t-29.5 84z" />
<glyph unicode="&#x17c;" horiz-adv-x="934" d="M78 0v115l572 814h-538v136h730v-131l-564 -799h579v-135h-779zM367 1353q0 58 29.5 84.5t73.5 26.5q41 0 71.5 -26.5t30.5 -84.5q0 -57 -30.5 -84t-71.5 -27q-44 0 -73.5 27t-29.5 84z" />
<glyph unicode="&#x17d;" horiz-adv-x="1135" d="M76 0v135l747 1124h-724v159h940v-135l-747 -1124h767v-159h-983zM236 1824v26h120q110 -72 212 -183q122 122 216 183h123v-26q-198 -199 -248 -292h-178q-59 99 -245 292z" />
<glyph unicode="&#x17e;" horiz-adv-x="934" d="M78 0v115l572 814h-538v136h730v-131l-564 -799h579v-135h-779zM136 1496v26h120q110 -72 212 -183q122 122 216 183h123v-26q-198 -199 -248 -292h-178q-59 99 -245 292z" />
<glyph unicode="&#x17f;" horiz-adv-x="647" d="M169 0v1147q0 373 352 373q97 0 198 -38l-46 -138q-87 30 -154 30q-91 0 -133.5 -56.5t-42.5 -170.5v-1147h-174z" />
<glyph unicode="&#x180;" horiz-adv-x="1222" d="M17 1202v131h152v176h174v-176h424v-131h-424v-59q0 -110 -9 -220h9q108 160 330 160q211 0 325.5 -145.5t114.5 -404.5q0 -264 -116.5 -408t-323.5 -144q-107 0 -191.5 38.5t-138.5 115.5h-13q-30 -117 -36 -135h-125v1202h-152zM343 531q0 -219 71.5 -312.5 t233.5 -93.5q144 0 214 105.5t70 303.5q0 202 -70.5 303t-217.5 101q-161 0 -231 -91t-70 -309v-7z" />
<glyph unicode="&#x181;" horiz-adv-x="1450" d="M19 1168q0 129 68.5 189.5t212.5 60.5h457q285 0 411.5 -85t126.5 -266q0 -126 -69 -208t-201 -106v-10q162 -28 239.5 -113t77.5 -226q0 -192 -130 -298t-361 -106h-500v1266h-51q-122 0 -122 -100q0 -59 21 -107h-157q-9 21 -16 53t-7 56zM531 151h286q170 0 252.5 66 t82.5 200q0 127 -87 187.5t-263 60.5h-271v-514zM531 815h261q167 0 243 53.5t76 178.5q0 116 -83 167.5t-264 51.5h-233v-451z" />
<glyph unicode="&#x182;" horiz-adv-x="1222" d="M193 0v1418h842v-157h-663v-442h210q272 0 405 -96t133 -308q0 -209 -126 -312t-386 -103h-415zM372 153h218q182 0 264 61.5t82 200.5q0 136 -85.5 192t-289.5 56h-189v-510z" />
<glyph unicode="&#x183;" horiz-adv-x="1222" d="M169 0v1509h836v-146h-662v-220q0 -110 -9 -220h9q108 160 330 160q211 0 325.5 -145.5t114.5 -404.5q0 -264 -116.5 -408t-323.5 -144q-107 0 -191.5 38.5t-138.5 115.5h-13q-30 -117 -36 -135h-125zM343 531q0 -219 71.5 -312.5t233.5 -93.5q144 0 214 105.5t70 303.5 q0 202 -70.5 303t-217.5 101q-161 0 -231 -91t-70 -309v-7z" />
<glyph unicode="&#x184;" horiz-adv-x="1261" d="M178 417v1001h180v-599h266q257 0 396.5 -105.5t139.5 -306.5q0 -200 -126.5 -313t-356.5 -113q-499 0 -499 436zM358 417q0 -153 74 -218.5t243 -65.5q158 0 229.5 71t71.5 203q0 137 -95.5 196.5t-278.5 59.5h-244v-246z" />
<glyph unicode="&#x185;" horiz-adv-x="1215" d="M163 531v978h175v-366q0 -110 -10 -220h10q107 160 329 160q211 0 325.5 -145.5t114.5 -404.5q0 -266 -122 -409t-346 -143q-228 0 -352 143.5t-124 406.5zM338 527q0 -190 81 -296t223 -106q143 0 213 106t70 303q0 202 -70 303t-218 101q-160 0 -229.5 -91.5 t-69.5 -308.5v-11z" />
<glyph unicode="&#x186;" horiz-adv-x="1255" d="M61 1355q167 84 422 84q314 0 482.5 -191.5t168.5 -540.5q0 -218 -78.5 -382.5t-227.5 -254t-345 -89.5q-110 0 -195.5 12.5t-170.5 44.5v155q188 -56 338 -56q229 0 360 153t131 419q0 273 -126.5 422.5t-364.5 149.5q-152 0 -322 -77z" />
<glyph unicode="&#x187;" horiz-adv-x="1255" d="M121 711q0 219 81 384t236 254.5t364 89.5q120 0 233 -29v29q0 128 53.5 196.5t175.5 68.5q59 0 118 -25v-143q-47 20 -103 20q-93 0 -93 -96v-101l-71 -155q-66 30 -143 53.5t-172 23.5q-229 0 -360 -153t-131 -419q0 -274 127.5 -423t361.5 -149q152 0 341 56v-155 q-90 -33 -173.5 -45t-192.5 -12q-313 0 -482.5 190.5t-169.5 539.5z" />
<glyph unicode="&#x188;" horiz-adv-x="999" d="M110 527q0 267 129.5 412t368.5 145q55 0 129 -11v180q0 128 53 197.5t175 69.5q58 0 119 -26v-145q-45 20 -102 20q-94 0 -94 -95v-247l-54 -145q-135 50 -230 50q-161 0 -237.5 -101.5t-76.5 -301.5q0 -193 76.5 -295.5t227.5 -102.5q140 0 276 62v-155 q-110 -57 -274 -57q-230 0 -358 141t-128 405z" />
<glyph unicode="&#x189;" horiz-adv-x="1450" d="M59 624v155h148v639h423q330 0 514.5 -183t184.5 -512q0 -349 -190.5 -536t-552.5 -187h-379v624h-148zM385 153h180q576 0 576 564q0 271 -135 410t-402 139h-219v-487h354v-155h-354v-471z" />
<glyph unicode="&#x18a;" horiz-adv-x="1609" d="M19 1168q0 129 68.5 189.5t212.5 60.5h489q333 0 516 -183.5t183 -511.5q0 -351 -191.5 -537t-549.5 -186h-396v1266h-51q-122 0 -122 -100q0 -59 21 -107h-157q-9 21 -16 53t-7 56zM531 153h192q576 0 576 564q0 270 -133.5 409.5t-403.5 139.5h-231v-1113z" />
<glyph unicode="&#x18b;" horiz-adv-x="1222" d="M101 394q0 204 146.5 314.5t419.5 110.5h184v442h-664v157h842v-1418h-396q-532 0 -532 394zM286 402q0 -126 88 -187.5t276 -61.5h201v512h-163q-211 0 -306.5 -63t-95.5 -200z" />
<glyph unicode="&#x18c;" horiz-adv-x="1222" d="M110 531q0 261 115 407t323 146q214 0 330 -157h12q-2 20 -7 78.5t-5 78.5v279h-662v146h836v-1509h-140l-26 143h-8q-112 -162 -332 -162q-207 0 -321.5 143.5t-114.5 406.5zM290 527q0 -198 73 -300t211 -102q159 0 232.5 87t73.5 285v32q0 222 -74.5 316.5 t-233.5 94.5q-135 0 -208.5 -107t-73.5 -306z" />
<glyph unicode="&#x18d;" horiz-adv-x="1199" d="M108 1021q0 229 131 358.5t365 129.5q222 0 355 -120t133 -324q0 -174 -107.5 -298t-307.5 -183q132 -75 189 -152.5t57 -173.5q0 -128 -95 -202.5t-262 -74.5q-100 0 -192.5 22t-216.5 84l76 137q74 -42 157 -71.5t184 -29.5q80 0 126.5 37t46.5 100q0 67 -53 119 t-213 140q-206 113 -289.5 231.5t-83.5 270.5zM288 1023q0 -122 59.5 -209t190.5 -154q184 43 278 147t94 260q0 134 -82.5 216t-223.5 82q-153 0 -234.5 -88t-81.5 -254z" />
<glyph unicode="&#x18e;" horiz-adv-x="1104" d="M119 0v157h614v506h-578v156h578v442h-614v157h793v-1418h-793z" />
<glyph unicode="&#x18f;" horiz-adv-x="1467" d="M117 709v68h1039q-16 251 -141.5 378.5t-354.5 127.5q-219 0 -453 -81v163q121 42 226.5 58.5t229.5 16.5q323 0 502 -194t179 -539q0 -339 -168 -532.5t-471 -193.5q-292 0 -440 182.5t-148 545.5zM307 620q0 -248 97.5 -365.5t300.5 -117.5q199 0 317.5 126.5 t133.5 356.5h-849z" />
<glyph unicode="&#x190;" horiz-adv-x="1167" d="M108 387q0 151 92.5 240.5t271.5 113.5v8q-142 24 -220.5 112t-78.5 225q0 162 120.5 257.5t330.5 95.5q128 0 246.5 -37.5t215.5 -110.5l-85 -121q-104 71 -187.5 96t-185.5 25q-127 0 -198.5 -60.5t-71.5 -161.5q0 -119 95.5 -189.5t287.5 -70.5h193v-149h-203 q-218 0 -327.5 -65.5t-109.5 -192.5q0 -133 96 -204t277 -71q209 0 425 104v-163q-178 -87 -434 -87q-268 0 -409 102.5t-141 303.5z" />
<glyph unicode="&#x191;" horiz-adv-x="1031" d="M-22 -300q40 -20 90 -20q70 0 97.5 40t27.5 123v1575h793v-157h-614v-502h576v-157h-576v-767q0 -312 -283 -312q-64 0 -111 26v151z" />
<glyph unicode="&#x192;" horiz-adv-x="1135" d="M184 -314q68 -18 125 -18q90 0 126.5 46.5t36.5 158.5v933h-208v82l208 60v129q0 187 79 274.5t258 87.5q90 0 204 -42l-44 -136q-99 32 -154 32q-91 0 -129 -48.5t-38 -165.5v-137h268v-136h-264v-933q0 -181 -79.5 -265.5t-252.5 -84.5q-71 0 -136 18v145z" />
<glyph unicode="&#x193;" horiz-adv-x="1446" d="M121 709q0 222 88.5 388t254.5 254t393 88q141 0 271 -34v34q0 128 53.5 196.5t175.5 68.5q57 0 119 -25v-143q-47 20 -103 20q-94 0 -94 -96v-105l-67 -155q-188 81 -366 81q-253 0 -396 -153t-143 -419q0 -281 137 -427.5t398 -146.5q143 0 278 34v421h-311v159h490 v-696q-113 -36 -229 -54t-270 -18q-324 0 -501.5 192t-177.5 536z" />
<glyph unicode="&#x194;" horiz-adv-x="1131" d="M0 1418h187q178 -471 271.5 -719.5t107.5 -330.5q20 101 99 313l279 737h188l-469 -1204q66 -130 99.5 -241t33.5 -185q0 -118 -63.5 -191.5t-166.5 -73.5q-106 0 -168 75t-62 190q0 154 133 424zM499 -205q0 -61 18.5 -89t48.5 -28q67 0 67 113q0 53 -17 124t-50 134 q-37 -74 -52 -142t-15 -112z" />
<glyph unicode="&#x195;" horiz-adv-x="1855" d="M169 0v1509h174v-442q0 -87 -9 -149h11q49 82 132 123.5t179 41.5q180 0 271.5 -93t91.5 -296v-313q0 -129 61 -192.5t190 -63.5q133 0 191.5 71.5t58.5 224.5v644h175v-650q0 -227 -101 -330.5t-324 -103.5q-219 0 -322.5 96.5t-103.5 292.5v311q0 130 -52 193.5 t-164 63.5q-148 0 -216.5 -90.5t-68.5 -297.5v-550h-174z" />
<glyph unicode="&#x196;" horiz-adv-x="691" d="M178 312v1106h178v-1090q0 -96 36 -143.5t116 -47.5q43 0 88.5 6.5t74.5 15.5v-147q-25 -12 -79.5 -21.5t-108.5 -9.5q-159 0 -232 82t-73 249z" />
<glyph unicode="&#x197;" horiz-adv-x="673" d="M68 650v154h178v472l-166 39v103h512v-103l-167 -39v-472h179v-154h-179v-509l167 -38v-103h-512v103l166 38v509h-178z" />
<glyph unicode="&#x198;" horiz-adv-x="1229" d="M193 0v1418h179v-715q55 70 119 144q43 48 367 446q58 75 109 106.5t132 31.5q60 0 99 -17v-138q-41 5 -87 5q-33 0 -62.5 -19t-72.5 -72l-326 -386l580 -804h-211q-59 79 -240 342q-142 205 -250 337l-157 -152v-527h-179z" />
<glyph unicode="&#x199;" horiz-adv-x="1061" d="M169 0v1242q0 278 240 278q65 0 129 -26v-145q-45 20 -102 20q-46 0 -70.5 -26.5t-24.5 -89.5v-532l-7 -173h7l60 76l68 81l340 360h204l-431 -455l461 -610h-211l-369 497l-122 -106v-391h-172z" />
<glyph unicode="&#x19a;" horiz-adv-x="512" d="M30 703v131h139v675h174v-675h140v-131h-140v-703h-174v703h-139z" />
<glyph unicode="&#x19b;" horiz-adv-x="1076" d="M-12 0l459 1045l-45 127l-211 -63l-38 125l196 59q-25 45 -58 64t-90 19q-60 0 -112 -11v140q66 17 131 17q106 0 173.5 -41.5t116.5 -138.5l218 66l36 -125l-201 -64l355 -988q19 -55 42 -81.5t58 -26.5q23 0 59 10v-129q-49 -23 -114 -23q-72 0 -115.5 35.5 t-74.5 124.5l-145 407q-83 236 -99 316h-8q-32 -122 -110 -306l-242 -558h-181z" />
<glyph unicode="&#x19c;" horiz-adv-x="2045" d="M178 413v1005h180v-1005q0 -138 57 -208t183 -70q167 0 247 93.5t80 292.5v897h180v-1005q0 -138 57.5 -208t186.5 -70q167 0 245 99t78 327v857h180v-1418h-142l-29 163h-11q-49 -84 -146 -133t-213 -49q-134 0 -219 48.5t-129 148.5h-9q-57 -95 -159 -146t-225 -51 q-204 0 -298 104.5t-94 327.5z" />
<glyph unicode="&#x19d;" horiz-adv-x="1509" d="M-22 -300q40 -20 90 -20q70 0 97.5 40t27.5 123v1575h207l43 -69l466 -719l247 -386h8q-2 24 -8 167t-6 207v800h167v-1418h-208l-760 1178h-8l5 -79q12 -177 12 -307v-957q0 -164 -67.5 -238t-201.5 -74q-64 0 -111 26v151z" />
<glyph unicode="&#x19e;" horiz-adv-x="1228" d="M169 0v1065h140l27 -145h9q50 78 139 121t197 43q196 0 291 -95t95 -295v-1171h-173v1158q0 128 -57 192.5t-181 64.5q-164 0 -238.5 -92.5t-74.5 -293.5v-552h-174z" />
<glyph unicode="&#x19f;" horiz-adv-x="1553" d="M121 713q0 346 170.5 536.5t487.5 190.5q308 0 480 -193.5t172 -535.5q0 -340 -172.5 -535t-481.5 -195q-313 0 -484.5 191.5t-171.5 540.5zM312 646q13 -252 131 -381.5t334 -129.5q215 0 333 129.5t130 381.5h-928zM312 800h926q-19 241 -135 362t-324 121 q-212 0 -330 -121.5t-137 -361.5z" />
<glyph unicode="&#x1a0;" horiz-adv-x="1557" d="M121 713q0 349 171.5 538t486.5 189t491 -206q66 18 96.5 78.5t30.5 196.5h188l15 -21q-31 -155 -96 -239.5t-165 -122.5q90 -169 90 -415q0 -343 -172.5 -536.5t-479.5 -193.5q-313 0 -484.5 190.5t-171.5 541.5zM309 711q0 -282 118.5 -429t349.5 -147q230 0 346.5 145 t116.5 431q0 283 -116 427.5t-345 144.5q-234 0 -352 -146.5t-118 -425.5z" />
<glyph unicode="&#x1a1;" horiz-adv-x="1224" d="M110 534q0 260 130 405t364 145q105 0 193.5 -35t152.5 -101q48 14 76.5 46.5t42.5 81.5t14 152h187l13 -22q-31 -156 -92 -241t-164 -123q67 -136 67 -308q0 -260 -132 -406.5t-364 -146.5q-145 0 -256.5 67t-171.5 193.5t-60 292.5zM290 534q0 -209 76.5 -309 t235.5 -100q164 0 238 104t74 305q0 199 -75.5 301.5t-239.5 102.5q-163 0 -236 -102.5t-73 -301.5z" />
<glyph unicode="&#x1a2;" horiz-adv-x="2135" d="M121 713q0 346 162.5 536.5t463.5 190.5q282 0 445 -181q55 85 154.5 133t219.5 48q202 0 296 -104.5t94 -328.5v-1007h-178v1007q0 140 -57 209t-184 69q-104 0 -171 -30t-105 -91q106 -183 106 -453q0 -343 -164 -536.5t-458 -193.5q-298 0 -461 191t-163 541zM309 711 q0 -281 111.5 -428.5t324.5 -147.5q212 0 322.5 145.5t110.5 430.5q0 284 -109.5 428t-321.5 144q-215 0 -326.5 -146t-111.5 -426z" />
<glyph unicode="&#x1a3;" horiz-adv-x="1679" d="M110 534q0 259 123.5 404.5t344.5 145.5q211 0 336 -142q51 73 126.5 107.5t159.5 34.5q159 0 238.5 -93t79.5 -297v-1171h-174v1163q0 252 -182 252q-126 0 -186 -87q69 -126 69 -317q0 -261 -126 -407t-345 -146q-138 0 -244 67t-163 194.5t-57 291.5zM290 534 q0 -200 73 -304.5t213 -104.5q141 0 214.5 104t73.5 305q0 200 -73 302t-215 102q-286 0 -286 -404z" />
<glyph unicode="&#x1a4;" horiz-adv-x="1360" d="M19 1168q0 129 68.5 189.5t212.5 60.5h428q531 0 531 -417q0 -216 -147.5 -332.5t-417.5 -116.5h-163v-552h-180v1266h-51q-122 0 -122 -100q0 -59 21 -107h-157q-9 21 -16 53t-7 56zM531 705h142q212 0 307 68.5t95 219.5q0 137 -88.5 205t-275.5 68h-180v-561z" />
<glyph unicode="&#x1a5;" horiz-adv-x="1222" d="M169 -477l2 1719q0 278 240 278q65 0 129 -26v-145q-45 20 -103 20q-45 0 -69.5 -26.5t-24.5 -89.5v-159q0 -59 -7 -135l-4 -39h11q62 87 143.5 125.5t188.5 38.5q208 0 323 -144t115 -406q0 -260 -115.5 -406.5t-324.5 -146.5q-214 0 -330 154h-11l4 -40q7 -76 7 -135 v-437h-174zM343 534q0 -216 72 -312.5t233 -96.5q134 0 209 108.5t75 302.5q0 195 -75 298.5t-213 103.5q-158 0 -228.5 -89t-72.5 -281v-34z" />
<glyph unicode="&#x1a6;" horiz-adv-x="1235" d="M193 0v1418h179v-199h212q264 0 390.5 -100.5t126.5 -301.5q0 -282 -284 -380l389 -636h-209l-343 586h-282v-387h-179zM372 538h212q173 0 252.5 68t79.5 203q0 134 -80.5 195t-261.5 61h-202v-527z" />
<glyph unicode="&#x1a7;" horiz-adv-x="1090" d="M93 379q0 96 40 167t121.5 126.5t246.5 116.5q135 50 196 87.5t87.5 83.5t26.5 115q0 98 -71.5 152t-197.5 54q-142 0 -305 -75l-57 153q170 80 358 80q203 0 328 -98t125 -264q0 -152 -82.5 -250.5t-282.5 -170.5q-155 -57 -224 -96.5t-99 -85t-30 -110.5 q0 -107 80 -168t239 -61q180 0 397 94v-172q-67 -33 -168.5 -54.5t-221.5 -21.5q-237 0 -371.5 106.5t-134.5 291.5z" />
<glyph unicode="&#x1a8;" horiz-adv-x="951" d="M89 294q0 74 30 127t93 96t197 93q176 67 225.5 105.5t49.5 97.5q0 60 -56.5 94.5t-164.5 34.5q-100 0 -262 -68l-60 139q160 71 310 71q195 0 297.5 -72.5t102.5 -209.5q0 -74 -29 -125t-90 -92.5t-211 -99.5q-105 -40 -160.5 -71t-79 -61.5t-23.5 -74.5 q0 -77 63.5 -117t188.5 -40q167 0 338 86v-159q-124 -67 -334 -67q-425 0 -425 313z" />
<glyph unicode="&#x1a9;" horiz-adv-x="1131" d="M72 0v147l464 594l-453 529v148h944v-159h-646l-93 2l447 -518l-467 -588l324 2h492v-157h-1012z" />
<glyph unicode="&#x1aa;" horiz-adv-x="614" d="M-112 1299q0 107 65 164t184 57q126 0 192.5 -72t66.5 -208v-1383q0 -97 36 -144t116 -47q38 0 87 6.5t76 15.5v-133q-30 -14 -83 -23t-103 -9q-158 0 -230.5 82t-72.5 249v1223h-89q-119 0 -182 58t-63 164zM48 1299q0 -80 98 -80h76v26q0 70 -24 100.5t-73 30.5 q-43 0 -60 -23.5t-17 -53.5z" />
<glyph unicode="&#x1ab;" horiz-adv-x="716" d="M32 929v84l152 70l70 227h104v-245h307v-136h-307v-615q0 -92 44 -141.5t123 -49.5q34 0 79.5 7t68.5 16v-358q0 -265 -232 -265q-58 0 -119 24v146q45 -19 99 -19q95 0 95 104v203h-21q-313 0 -313 328v620h-150z" />
<glyph unicode="&#x1ac;" horiz-adv-x="1144" d="M19 1168q0 129 68.5 189.5t212.5 60.5h822v-157h-441v-1261h-179v1261h-202q-122 0 -122 -95q0 -59 21 -107h-157q-9 21 -16 53t-7 56z" />
<glyph unicode="&#x1ad;" horiz-adv-x="716" d="M32 929v84l152 70v130q0 307 293 307q77 0 153 -26v-145q-23 8 -69 14t-84 6q-63 0 -91 -34t-28 -101v-169h307v-136h-307v-615q0 -92 44 -141.5t123 -49.5q34 0 79.5 7t68.5 16v-134q-24 -11 -75 -21t-103 -10q-313 0 -313 328v620h-150z" />
<glyph unicode="&#x1ae;" horiz-adv-x="1104" d="M19 1261v157h1064v-157h-441v-1418q0 -85 28 -124t97 -39q49 0 90 20v-151q-48 -26 -126 -26q-134 0 -201 74t-67 238v1426h-444z" />
<glyph unicode="&#x1af;" horiz-adv-x="1549" d="M178 504v914h180v-921q0 -172 94 -267t285 -95q175 0 266 92t91 272v919h178v-192q79 11 116.5 73.5t37.5 209.5h185l14 -21q-32 -179 -117.5 -269.5t-235.5 -115.5v-602q0 -249 -140.5 -384.5t-398.5 -135.5q-264 0 -409.5 139.5t-145.5 383.5z" />
<glyph unicode="&#x1b0;" horiz-adv-x="1338" d="M157 368v695h177v-684q0 -129 57.5 -191.5t178.5 -62.5q164 0 239 91t75 294v553h175v-117q78 12 113.5 74.5t35.5 209.5h185l13 -22q-31 -186 -116.5 -277.5t-230.5 -107.5v-823h-143l-26 141h-8q-49 -77 -135 -118.5t-199 -41.5q-195 0 -293 92t-98 295z" />
<glyph unicode="&#x1b1;" horiz-adv-x="1553" d="M74 1261v157h572v-142q-174 -125 -254 -283t-80 -371q0 -239 118 -363t347 -124q227 0 344 123.5t117 363.5q0 218 -80.5 374.5t-251.5 279.5v142h572v-157h-354q147 -113 224.5 -279.5t77.5 -365.5q0 -299 -172 -468.5t-477 -169.5q-308 0 -480 168.5t-172 467.5 q0 199 77.5 367.5t222.5 279.5h-351z" />
<glyph unicode="&#x1b2;" horiz-adv-x="1192" d="M0 1418h187l321 -925q61 -175 90 -311q16 60 53 145q42 99 64 162l169 403q71 176 71 249q0 77 -32 108.5t-93 31.5q-48 0 -89 -20v151q45 27 125 27q268 0 268 -287q0 -105 -89 -312l-359 -840h-180z" />
<glyph unicode="&#x1b3;" horiz-adv-x="1124" d="M0 1274v144q56 22 119 22q73 0 117.5 -34t81.5 -115l254 -570l360 697h192l-462 -868v-550h-179v542l-322 677q-35 70 -83 70q-42 0 -78 -15z" />
<glyph unicode="&#x1b4;" horiz-adv-x="1076" d="M2 1065h187l230 -606q73 -198 89 -290h8q17 71 96 292l150 431q38 108 82.5 150t118.5 42q65 0 114 -23v-129q-36 10 -59 10q-35 0 -57 -26.5t-43 -81.5l-364 -981q-63 -174 -156.5 -252t-230.5 -78q-73 0 -145 16v139q49 -12 117 -12q168 0 240 188l52 142z" />
<glyph unicode="&#x1b5;" horiz-adv-x="1135" d="M76 0v135l353 532h-272v142h366l300 450h-724v159h940v-135l-316 -474h242v-142h-335l-338 -508h767v-159h-983z" />
<glyph unicode="&#x1b6;" horiz-adv-x="934" d="M78 0v115l258 368h-223v139h320l217 307h-538v136h730v-131l-220 -312h201v-139h-300l-245 -348h579v-135h-779z" />
<glyph unicode="&#x1b7;" horiz-adv-x="1160" d="M70 57v163q97 -46 206.5 -69.5t204.5 -23.5q193 0 288 81.5t95 232.5q0 138 -98 213t-285 75h-123v129l409 401h-657v159h881v-141l-413 -403q135 -4 243.5 -59t169 -152t60.5 -224q0 -217 -150.5 -337.5t-421.5 -120.5q-251 0 -409 76z" />
<glyph unicode="&#x1b8;" horiz-adv-x="1160" d="M110 419q0 135 59.5 236.5t167 158t245.5 60.5l-413 403v141h882v-159h-655l406 -401v-129h-154q-168 0 -260 -80.5t-92 -225.5q0 -141 98 -218.5t285 -77.5q97 0 206 23.5t205 69.5v-163q-89 -42 -194.5 -59t-237.5 -17q-174 0 -297 53.5t-187 152.5t-64 232z" />
<glyph unicode="&#x1b9;" horiz-adv-x="989" d="M68 -22q0 209 127.5 333.5t360.5 141.5l-435 485v127h813v-147h-608l434 -482v-122h-116q-200 0 -301 -84t-101 -247q0 -142 94 -228.5t250 -86.5q198 0 375 84v-159q-136 -70 -389 -70q-225 0 -364.5 125.5t-139.5 329.5z" />
<glyph unicode="&#x1ba;" horiz-adv-x="989" d="M55 -241q0 125 92.5 183t273.5 58q158 0 227 54.5t69 187.5q0 119 -88.5 174.5t-283.5 55.5h-116v122l363 324h-537v147h783v-127l-371 -326q205 -10 315 -102.5t110 -265.5q0 -189 -118 -289.5t-349 -100.5q-105 0 -155 -20t-50 -75q0 -41 53 -66t156 -25q167 0 318 72 v-159q-118 -58 -320 -58q-180 0 -276 62t-96 174z" />
<glyph unicode="&#x1bb;" horiz-adv-x="1131" d="M95 0v146l348 426l93 122h-381v138h478q55 88 78.5 163t23.5 161q0 100 -59 155.5t-164 55.5q-90 0 -162.5 -33t-144.5 -98l-93 117q185 167 404 167q186 0 293 -96.5t107 -263.5q0 -83 -21 -161t-71 -167h199v-138h-286q-21 -32 -46.5 -64.5t-400.5 -482.5v-8h743v-139 h-938z" />
<glyph unicode="&#x1bc;" horiz-adv-x="1160" d="M70 57v163q97 -46 206.5 -69.5t204.5 -23.5q193 0 288 81.5t95 232.5q0 135 -93 211.5t-259 76.5h-246v530h-156v159h881v-159h-546v-383h84q153 0 272.5 -53.5t184.5 -152.5t65 -231q0 -217 -150.5 -337.5t-421.5 -120.5q-251 0 -409 76z" />
<glyph unicode="&#x1bd;" horiz-adv-x="973" d="M66 49v158q177 -84 361 -84q137 0 210.5 53t73.5 158t-74.5 156.5t-229.5 51.5h-189v376h-123v147h724v-147h-425v-232h45q213 0 329 -92.5t116 -269.5q0 -162 -120.5 -252.5t-334.5 -90.5q-235 0 -363 68z" />
<glyph unicode="&#x1be;" horiz-adv-x="919" d="M72 48v159q170 -86 337 -86q132 0 192.5 43t60.5 114q0 59 -48 99.5t-178 92.5q-95 40 -130 104t-35 177v178h-182v84l184 70l68 227h104v-245h308v-136h-308v-182q0 -67 20.5 -98.5t72.5 -49.5q164 -61 228 -131.5t64 -173.5q0 -149 -111.5 -231t-313.5 -82 q-209 0 -333 67z" />
<glyph unicode="&#x1bf;" horiz-adv-x="1165" d="M169 -477v1542h143l24 -145h7q109 164 315 164q190 0 301.5 -117t111.5 -325q0 -181 -91 -327t-258 -234t-379 -100v-458h-174zM343 123q260 34 403.5 170t143.5 344q0 138 -71.5 219.5t-196.5 81.5q-145 0 -212 -87.5t-67 -282.5v-445z" />
<glyph unicode="&#x1c0;" horiz-adv-x="1025" d="M436 -477v1986h154v-1986h-154z" />
<glyph unicode="&#x1c1;" horiz-adv-x="1025" d="M181 -477v1986h154v-1986h-154zM692 -477v1986h154v-1986h-154z" />
<glyph unicode="&#x1c2;" horiz-adv-x="1025" d="M129 266v143h307v247h-307v142h307v711h154v-711h306v-142h-306v-247h306v-143h-306v-743h-154v743h-307z" />
<glyph unicode="&#x1c3;" horiz-adv-x="534" d="M143 108q0 64 31.5 98.5t91.5 34.5t91.5 -35.5t31.5 -97.5t-32.5 -99t-90.5 -37q-59 0 -91 36t-32 100zM161 1418h212l-49 -1018h-114z" />
<glyph unicode="&#x1c4;" horiz-adv-x="2566" d="M193 0v1418h437q330 0 514.5 -182t184.5 -513q0 -351 -191.5 -537t-549.5 -186h-395zM372 153h193q576 0 576 564q0 270 -133.5 409.5t-403.5 139.5h-232v-1113zM1507 0v135l747 1124h-724v159h940v-135l-747 -1124h767v-159h-983zM1643 1824v26h120q110 -72 212 -183 q122 122 216 183h123v-26q-198 -199 -248 -292h-178q-59 99 -245 292z" />
<glyph unicode="&#x1c5;" horiz-adv-x="2384" d="M193 0v1418h437q330 0 514.5 -182t184.5 -513q0 -351 -191.5 -537t-549.5 -186h-395zM372 153h193q576 0 576 564q0 270 -133.5 409.5t-403.5 139.5h-232v-1113zM1528 0v115l572 814h-538v136h730v-131l-564 -799h579v-135h-779zM1589 1496v26h120q110 -72 212 -183 q122 122 216 183h123v-26q-198 -199 -248 -292h-178q-59 99 -245 292z" />
<glyph unicode="&#x1c6;" horiz-adv-x="2155" d="M110 531q0 261 115 407t323 146q214 0 330 -157h12q-2 20 -7 78.5t-5 78.5v425h174v-1509h-140l-26 143h-8q-112 -162 -332 -162q-207 0 -321.5 143.5t-114.5 406.5zM290 527q0 -198 73 -300t211 -102q159 0 232.5 87t73.5 285v32q0 222 -74.5 316.5t-233.5 94.5 q-135 0 -208.5 -107t-73.5 -306zM1300 0v115l572 814h-538v136h730v-131l-564 -799h579v-135h-779zM1365 1496v26h120q110 -72 212 -183q122 122 216 183h123v-26q-198 -199 -248 -292h-178q-59 99 -245 292z" />
<glyph unicode="&#x1c7;" horiz-adv-x="1583" d="M193 0v1418h179v-1259h619v-159h-798zM886 -201q69 -19 143 -19q97 0 145.5 58.5t48.5 169.5v1410h180v-1396q0 -192 -95.5 -295.5t-274.5 -103.5q-91 0 -147 26v150z" />
<glyph unicode="&#x1c8;" horiz-adv-x="1553" d="M193 0v1418h179v-1259h619v-159h-798zM931 -312q67 -20 132 -20q76 0 111.5 41.5t35.5 125.5v1230h174v-1224q0 -159 -76 -238.5t-223 -79.5q-92 0 -154 24v141zM1196 1353q0 58 29.5 84.5t73.5 26.5q41 0 71.5 -26.5t30.5 -84.5q0 -57 -30.5 -84t-71.5 -27 q-44 0 -73.5 27t-29.5 84z" />
<glyph unicode="&#x1c9;" horiz-adv-x="1025" d="M169 0v1509h174v-1509h-174zM402 -312q67 -20 132 -20q76 0 111.5 41.5t35.5 125.5v1230h174v-1224q0 -159 -76 -238.5t-223 -79.5q-92 0 -154 24v141zM667 1353q0 58 29.5 84.5t73.5 26.5q41 0 71.5 -26.5t30.5 -84.5q0 -57 -30.5 -84t-71.5 -27q-44 0 -73.5 27 t-29.5 84z" />
<glyph unicode="&#x1ca;" horiz-adv-x="2052" d="M193 0v1418h207l43 -69l466 -719l247 -386h8q-2 24 -8 167t-6 207v800h167v-1418h-208l-760 1178h-8l5 -79q12 -177 12 -307v-792h-165zM1354 -201q69 -19 143 -19q97 0 145.5 58.5t48.5 169.5v1410h180v-1396q0 -192 -95.5 -295.5t-274.5 -103.5q-91 0 -147 26v150z" />
<glyph unicode="&#x1cb;" horiz-adv-x="2022" d="M193 0v1418h207l43 -69l466 -719l247 -386h8q-2 24 -8 167t-6 207v800h167v-1418h-208l-760 1178h-8l5 -79q12 -177 12 -307v-792h-165zM1399 -312q67 -20 132 -20q76 0 111.5 41.5t35.5 125.5v1230h174v-1224q0 -159 -76 -238.5t-223 -79.5q-92 0 -154 24v141z M1664 1353q0 58 29.5 84.5t73.5 26.5q41 0 71.5 -26.5t30.5 -84.5q0 -57 -30.5 -84t-71.5 -27q-44 0 -73.5 27t-29.5 84z" />
<glyph unicode="&#x1cc;" horiz-adv-x="1740" d="M169 0v1065h140l27 -145h9q50 78 139 121t197 43q196 0 291 -95t95 -295v-694h-173v681q0 130 -57.5 193.5t-180.5 63.5q-164 0 -238.5 -90.5t-74.5 -295.5v-552h-174zM1118 -312q67 -20 132 -20q76 0 111.5 41.5t35.5 125.5v1230h174v-1224q0 -159 -76 -238.5 t-223 -79.5q-92 0 -154 24v141zM1383 1353q0 58 29.5 84.5t73.5 26.5q41 0 71.5 -26.5t30.5 -84.5q0 -57 -30.5 -84t-71.5 -27q-44 0 -73.5 27t-29.5 84z" />
<glyph unicode="&#x1cd;" horiz-adv-x="1269" d="M0 0l554 1424h161l553 -1424h-185l-171 439h-563l-169 -439h-180zM298 1850v26h120q110 -72 212 -183q122 122 216 183h123v-26q-198 -199 -248 -292h-178q-59 99 -245 292zM409 598h449l-159 429l-68 213q-29 -117 -61 -213z" />
<glyph unicode="&#x1ce;" horiz-adv-x="1114" d="M91 296q0 324 511 339l181 7v63q0 121 -52.5 179t-167.5 58q-85 0 -160 -25.5t-141 -56.5l-53 131q80 43 175 67.5t188 24.5q193 0 287.5 -85.5t94.5 -271.5v-726h-128l-34 151h-7q-80 -100 -159 -135t-199 -35q-157 0 -246.5 82.5t-89.5 232.5zM223 1496v26h120 q110 -72 212 -183q122 122 216 183h123v-26q-198 -199 -248 -292h-178q-59 99 -245 292zM273 294q0 -84 50.5 -128.5t143.5 -44.5q146 0 230 79t84 225v96l-157 -7q-184 -7 -267.5 -58.5t-83.5 -161.5z" />
<glyph unicode="&#x1cf;" horiz-adv-x="673" d="M3 1850v26h120q110 -72 212 -183q122 122 216 183h123v-26q-198 -199 -248 -292h-178q-59 99 -245 292zM80 0v103l166 38v1135l-166 39v103h512v-103l-167 -39v-1135l167 -38v-103h-512z" />
<glyph unicode="&#x1d0;" horiz-adv-x="512" d="M-79 1496v26h120q110 -72 212 -183q122 122 216 183h123v-26q-198 -199 -248 -292h-178q-59 99 -245 292zM169 0v1065h174v-1065h-174z" />
<glyph unicode="&#x1d1;" horiz-adv-x="1551" d="M121 713q0 346 170.5 536.5t487.5 190.5q308 0 480 -193.5t172 -535.5q0 -340 -172.5 -535t-481.5 -195q-313 0 -484.5 191.5t-171.5 540.5zM309 711q0 -281 119.5 -428.5t348.5 -147.5q228 0 346.5 145.5t118.5 430.5q0 284 -117.5 428t-345.5 144q-231 0 -350.5 -146 t-119.5 -426zM439 1850v26h120q110 -72 212 -183q122 122 216 183h123v-26q-198 -199 -248 -292h-178q-59 99 -245 292z" />
<glyph unicode="&#x1d2;" horiz-adv-x="1201" d="M110 534q0 260 130 405t364 145q225 0 357.5 -147.5t132.5 -402.5q0 -260 -132 -406.5t-364 -146.5q-145 0 -256.5 67t-171.5 193.5t-60 292.5zM264 1496v26h120q110 -72 212 -183q122 122 216 183h123v-26q-198 -199 -248 -292h-178q-59 99 -245 292zM290 534 q0 -200 79 -304.5t233 -104.5q153 0 232.5 104.5t79.5 304.5q0 201 -80 302.5t-235 101.5q-309 0 -309 -404z" />
<glyph unicode="&#x1d3;" horiz-adv-x="1452" d="M178 504v914h180v-919q0 -174 92.5 -269t278.5 -95q176 0 270.5 94t94.5 272v917h178v-917q0 -243 -146.5 -381.5t-406.5 -138.5q-257 0 -399 140t-142 383zM389 1850v26h120q110 -72 212 -183q122 122 216 183h123v-26q-198 -199 -248 -292h-178q-59 99 -245 292z" />
<glyph unicode="&#x1d4;" horiz-adv-x="1228" d="M157 368v697h177v-686q0 -129 57.5 -191.5t178.5 -62.5q164 0 239 91t75 294v555h175v-1065h-143l-26 141h-8q-48 -77 -135 -118.5t-203 -41.5q-192 0 -289.5 92t-97.5 295zM278 1496v26h120q110 -72 212 -183q122 122 216 183h123v-26q-198 -199 -248 -292h-178 q-59 99 -245 292z" />
<glyph unicode="&#x1d5;" horiz-adv-x="1452" d="M178 504v914h180v-919q0 -174 92.5 -269t278.5 -95q176 0 270.5 94t94.5 272v917h178v-917q0 -243 -146.5 -381.5t-406.5 -138.5q-257 0 -399 140t-142 383zM435 1848v141h590v-141h-590zM451 1619q0 51 28 75.5t65 24.5q38 0 65 -24.5t27 -75.5t-27 -74t-65 -23 q-45 0 -69 26t-24 71zM822 1619q0 51 28 75.5t65 24.5q40 0 67 -24.5t27 -75.5q0 -46 -24.5 -71.5t-69.5 -25.5q-44 0 -68.5 26t-24.5 71z" />
<glyph unicode="&#x1d6;" horiz-adv-x="1228" d="M157 368v697h177v-686q0 -129 57.5 -191.5t178.5 -62.5q164 0 239 91t75 294v555h175v-1065h-143l-26 141h-8q-48 -77 -135 -118.5t-203 -41.5q-192 0 -289.5 92t-97.5 295zM314 1520v141h590v-141h-590zM330 1291q0 51 28 75.5t65 24.5q38 0 65 -24.5t27 -75.5t-27 -74 t-65 -23q-45 0 -69 26t-24 71zM701 1291q0 51 28 75.5t65 24.5q40 0 67 -24.5t27 -75.5q0 -46 -24.5 -71.5t-69.5 -25.5q-44 0 -68.5 26t-24.5 71z" />
<glyph unicode="&#x1d7;" horiz-adv-x="1452" d="M178 504v914h180v-919q0 -174 92.5 -269t278.5 -95q176 0 270.5 94t94.5 272v917h178v-917q0 -243 -146.5 -381.5t-406.5 -138.5q-257 0 -399 140t-142 383zM433 1619q0 51 28 75.5t65 24.5q38 0 65 -24.5t27 -75.5t-27 -74t-65 -23q-45 0 -69 26t-24 71zM605 1770v24 q145 167 191 264h209v-20q-55 -86 -282 -268h-118zM804 1619q0 51 28 75.5t65 24.5q40 0 67 -24.5t27 -75.5q0 -46 -24.5 -71.5t-69.5 -25.5q-44 0 -68.5 26t-24.5 71z" />
<glyph unicode="&#x1d8;" horiz-adv-x="1228" d="M157 368v697h177v-686q0 -129 57.5 -191.5t178.5 -62.5q164 0 239 91t75 294v555h175v-1065h-143l-26 141h-8q-48 -77 -135 -118.5t-203 -41.5q-192 0 -289.5 92t-97.5 295zM328 1291q0 51 28 75.5t65 24.5q38 0 65 -24.5t27 -75.5t-27 -74t-65 -23q-45 0 -69 26t-24 71z M500 1442v24q145 167 191 264h209v-20q-55 -86 -282 -268h-118zM699 1291q0 51 28 75.5t65 24.5q40 0 67 -24.5t27 -75.5q0 -46 -24.5 -71.5t-69.5 -25.5q-44 0 -68.5 26t-24.5 71z" />
<glyph unicode="&#x1d9;" horiz-adv-x="1452" d="M178 504v914h180v-919q0 -174 92.5 -269t278.5 -95q176 0 270.5 94t94.5 272v917h178v-917q0 -243 -146.5 -381.5t-406.5 -138.5q-257 0 -399 140t-142 383zM387 2053v25h120q51 -34 107 -72t105 -91q54 54 109 91.5t107 71.5h124v-25l-64 -62q-146 -138 -185 -211h-178 q-43 72 -183 211zM443 1619q0 51 28 75.5t65 24.5q38 0 65 -24.5t27 -75.5t-27 -74t-65 -23q-45 0 -69 26t-24 71zM814 1619q0 51 28 75.5t65 24.5q40 0 67 -24.5t27 -75.5q0 -46 -24.5 -71.5t-69.5 -25.5q-44 0 -68.5 26t-24.5 71z" />
<glyph unicode="&#x1da;" horiz-adv-x="1228" d="M157 368v697h177v-686q0 -129 57.5 -191.5t178.5 -62.5q164 0 239 91t75 294v555h175v-1065h-143l-26 141h-8q-48 -77 -135 -118.5t-203 -41.5q-192 0 -289.5 92t-97.5 295zM268 1725v25h120q51 -34 107 -72t105 -91q54 54 109 91.5t107 71.5h124v-25l-64 -62 q-146 -138 -185 -211h-178q-43 72 -183 211zM324 1291q0 51 28 75.5t65 24.5q38 0 65 -24.5t27 -75.5t-27 -74t-65 -23q-45 0 -69 26t-24 71zM695 1291q0 51 28 75.5t65 24.5q40 0 67 -24.5t27 -75.5q0 -46 -24.5 -71.5t-69.5 -25.5q-44 0 -68.5 26t-24.5 71z" />
<glyph unicode="&#x1db;" horiz-adv-x="1452" d="M178 504v914h180v-919q0 -174 92.5 -269t278.5 -95q176 0 270.5 94t94.5 272v917h178v-917q0 -243 -146.5 -381.5t-406.5 -138.5q-257 0 -399 140t-142 383zM423 2038v20h209q46 -97 191 -264v-24h-118q-227 182 -282 268zM435 1619q0 51 28 75.5t65 24.5q38 0 65 -24.5 t27 -75.5t-27 -74t-65 -23q-45 0 -69 26t-24 71zM806 1619q0 51 28 75.5t65 24.5q40 0 67 -24.5t27 -75.5q0 -46 -24.5 -71.5t-69.5 -25.5q-44 0 -68.5 26t-24.5 71z" />
<glyph unicode="&#x1dc;" horiz-adv-x="1228" d="M157 368v697h177v-686q0 -129 57.5 -191.5t178.5 -62.5q164 0 239 91t75 294v555h175v-1065h-143l-26 141h-8q-48 -77 -135 -118.5t-203 -41.5q-192 0 -289.5 92t-97.5 295zM318 1710v20h209q46 -97 191 -264v-24h-118q-227 182 -282 268zM330 1291q0 51 28 75.5t65 24.5 q38 0 65 -24.5t27 -75.5t-27 -74t-65 -23q-45 0 -69 26t-24 71zM701 1291q0 51 28 75.5t65 24.5q40 0 67 -24.5t27 -75.5q0 -46 -24.5 -71.5t-69.5 -25.5q-44 0 -68.5 26t-24.5 71z" />
<glyph unicode="&#x1dd;" horiz-adv-x="1120" d="M101 461v105h729q-5 181 -92 275.5t-247 94.5q-86 0 -162.5 -15t-179.5 -59v154q89 37 166.5 52.5t183.5 15.5q240 0 376 -145t136 -399q0 -256 -127 -407.5t-344 -151.5q-200 0 -319.5 129.5t-119.5 350.5zM284 427q2 -147 68 -225.5t190 -78.5q125 0 198 80.5t86 223.5 h-542z" />
<glyph unicode="&#x1de;" horiz-adv-x="1269" d="M0 0l554 1424h161l553 -1424h-185l-171 439h-563l-169 -439h-180zM339 1848v141h590v-141h-590zM355 1619q0 51 28 75.5t65 24.5q38 0 65 -24.5t27 -75.5t-27 -74t-65 -23q-45 0 -69 26t-24 71zM409 598h449l-159 429l-68 213q-29 -117 -61 -213zM726 1619q0 51 28 75.5 t65 24.5q40 0 67 -24.5t27 -75.5q0 -46 -24.5 -71.5t-69.5 -25.5q-44 0 -68.5 26t-24.5 71z" />
<glyph unicode="&#x1df;" horiz-adv-x="1114" d="M91 296q0 324 511 339l181 7v63q0 121 -52.5 179t-167.5 58q-85 0 -160 -25.5t-141 -56.5l-53 131q80 43 175 67.5t188 24.5q193 0 287.5 -85.5t94.5 -271.5v-726h-128l-34 151h-7q-80 -100 -159 -135t-199 -35q-157 0 -246.5 82.5t-89.5 232.5zM272 1520v141h590v-141 h-590zM273 294q0 -84 50.5 -128.5t143.5 -44.5q146 0 230 79t84 225v96l-157 -7q-184 -7 -267.5 -58.5t-83.5 -161.5zM288 1291q0 51 28 75.5t65 24.5q38 0 65 -24.5t27 -75.5t-27 -74t-65 -23q-45 0 -69 26t-24 71zM659 1291q0 51 28 75.5t65 24.5q40 0 67 -24.5t27 -75.5 q0 -46 -24.5 -71.5t-69.5 -25.5q-44 0 -68.5 26t-24.5 71z" />
<glyph unicode="&#x1e0;" horiz-adv-x="1269" d="M0 0l554 1424h161l553 -1424h-185l-171 439h-563l-169 -439h-180zM339 1848v140h590v-140h-590zM409 598h449l-159 429l-68 213q-29 -117 -61 -213zM534 1641q0 58 29.5 84.5t73.5 26.5q46 0 73.5 -29.5t27.5 -81.5t-28 -81.5t-73 -29.5q-44 0 -73.5 27t-29.5 84z" />
<glyph unicode="&#x1e1;" horiz-adv-x="1114" d="M91 296q0 324 511 339l181 7v63q0 121 -52.5 179t-167.5 58q-85 0 -160 -25.5t-141 -56.5l-53 131q80 43 175 67.5t188 24.5q193 0 287.5 -85.5t94.5 -271.5v-726h-128l-34 151h-7q-80 -100 -159 -135t-199 -35q-157 0 -246.5 82.5t-89.5 232.5zM272 1522v141h590v-141 h-590zM273 294q0 -84 50.5 -128.5t143.5 -44.5q146 0 230 79t84 225v96l-157 -7q-184 -7 -267.5 -58.5t-83.5 -161.5zM467 1315q0 59 29.5 85t73.5 26q46 0 73.5 -29.5t27.5 -81.5t-28 -81.5t-73 -29.5q-44 0 -73.5 27t-29.5 84z" />
<glyph unicode="&#x1e2;" horiz-adv-x="1749" d="M-2 0l673 1418h960v-157h-560v-442h522v-156h-522v-506h560v-157h-739v439h-496l-214 -439h-184zM465 598h427v661h-115zM690 1532v140h590v-140h-590z" />
<glyph unicode="&#x1e3;" horiz-adv-x="1715" d="M91 296q0 324 485 339l179 7v67q0 118 -55 175.5t-167 57.5q-135 0 -298 -82l-55 131q69 39 167.5 65.5t198.5 26.5q124 0 204 -40.5t122 -130.5q52 82 134.5 127t191.5 45q191 0 304 -130.5t113 -345.5v-107h-681q8 -372 308 -372q85 0 159.5 16t166.5 58v-154 q-86 -37 -159.5 -52.5t-172.5 -15.5q-282 0 -404 224q-79 -121 -175 -172.5t-228 -51.5q-159 0 -248.5 82.5t-89.5 232.5zM273 294q0 -89 50 -131t134 -42q136 0 215 79t79 225v96l-149 -7q-171 -7 -250 -58.5t-79 -161.5zM563 1204v140h590v-140h-590zM938 637h493 q0 148 -60.5 226.5t-174.5 78.5q-115 0 -181 -78t-77 -227z" />
<glyph unicode="&#x1e4;" horiz-adv-x="1446" d="M121 709q0 222 88.5 388t254.5 254t393 88q226 0 422 -84l-67 -155q-188 81 -366 81q-253 0 -396 -153t-143 -419q0 -281 137 -427.5t398 -146.5q143 0 278 34v140h-292v142h292v139h-311v159h490v-298h127v-142h-127v-256q-113 -36 -229 -54t-270 -18q-324 0 -501.5 192 t-177.5 536z" />
<glyph unicode="&#x1e5;" horiz-adv-x="1222" d="M110 540q0 255 115 399.5t321 144.5q216 0 334 -161h10l24 142h138v-1082q0 -39 -3 -74h113v-142h-143q-94 -244 -443 -244q-233 0 -383 68v161q155 -84 393 -84q152 0 233 99h-296v142h353l4 59v62l6 131h-8q-108 -161 -330 -161q-208 0 -323 140.5t-115 399.5zM290 538 q0 -395 284 -395q166 0 237 84.5t71 271.5v32q0 213 -74 310t-238 97q-135 0 -207.5 -101t-72.5 -299z" />
<glyph unicode="&#x1e6;" horiz-adv-x="1446" d="M121 709q0 222 88.5 388t254.5 254t393 88q226 0 422 -84l-67 -155q-188 81 -366 81q-253 0 -396 -153t-143 -419q0 -281 137 -427.5t398 -146.5q143 0 278 34v421h-311v159h490v-696q-113 -36 -229 -54t-270 -18q-324 0 -501.5 192t-177.5 536zM493 1824v26h120 q110 -72 212 -183q122 122 216 183h123v-26q-198 -199 -248 -292h-178q-59 99 -245 292z" />
<glyph unicode="&#x1e7;" horiz-adv-x="1222" d="M110 531q0 257 116.5 405t319.5 148q216 0 334 -161h10l24 142h138v-1082q0 -229 -115.5 -344.5t-360.5 -115.5q-233 0 -383 68v161q155 -84 393 -84q136 0 215 79.5t79 220.5v42l6 131h-8q-108 -160 -330 -160q-207 0 -322.5 144t-115.5 406zM274 1496v26h120 q110 -72 212 -183q122 122 216 183h123v-26q-198 -199 -248 -292h-178q-59 99 -245 292zM290 529q0 -198 71.5 -302t212.5 -104q161 0 234.5 87t73.5 279v42q0 213 -74 310t-238 97q-134 0 -207 -106t-73 -303z" />
<glyph unicode="&#x1e8;" horiz-adv-x="1229" d="M193 0v1418h179v-699l122 135l505 564h209l-562 -618l584 -800h-211l-503 677l-144 -127v-550h-179zM326 1824v26h120q110 -72 212 -183q122 122 216 183h123v-26q-198 -199 -248 -292h-178q-59 99 -245 292z" />
<glyph unicode="&#x1e9;" horiz-adv-x="1061" d="M169 0v1509h172v-788l-7 -173h7l60 76l68 81l340 360h204l-431 -455l461 -610h-211l-369 497l-122 -106v-391h-172zM254 1864v26h120q110 -72 212 -183q122 122 216 183h123v-26q-198 -199 -248 -292h-178q-59 99 -245 292z" />
<glyph unicode="&#x1ea;" horiz-adv-x="1551" d="M121 713q0 346 170.5 536.5t487.5 190.5q308 0 480 -193.5t172 -535.5q0 -340 -172.5 -535t-481.5 -195q-313 0 -484.5 191.5t-171.5 540.5zM309 711q0 -281 119.5 -428.5t348.5 -147.5q228 0 346.5 145.5t118.5 430.5q0 284 -117.5 428t-345.5 144q-231 0 -350.5 -146 t-119.5 -426zM652 -250q0 135 155 250h123q-68 -64 -101.5 -117t-33.5 -114q0 -44 23.5 -66.5t65.5 -22.5t96 13v-112q-67 -18 -123 -18q-205 0 -205 187z" />
<glyph unicode="&#x1eb;" horiz-adv-x="1201" d="M110 534q0 260 130 405t364 145q225 0 357.5 -147.5t132.5 -402.5q0 -260 -132 -406.5t-364 -146.5q-145 0 -256.5 67t-171.5 193.5t-60 292.5zM290 534q0 -200 79 -304.5t233 -104.5q153 0 232.5 104.5t79.5 304.5q0 201 -80 302.5t-235 101.5q-309 0 -309 -404z M457 -250q0 135 155 250h123q-68 -64 -101.5 -117t-33.5 -114q0 -44 23.5 -66.5t65.5 -22.5t96 13v-112q-67 -18 -123 -18q-205 0 -205 187z" />
<glyph unicode="&#x1ec;" horiz-adv-x="1551" d="M121 713q0 346 170.5 536.5t487.5 190.5q308 0 480 -193.5t172 -535.5q0 -340 -172.5 -535t-481.5 -195q-313 0 -484.5 191.5t-171.5 540.5zM309 711q0 -281 119.5 -428.5t348.5 -147.5q228 0 346.5 145.5t118.5 430.5q0 284 -117.5 428t-345.5 144q-231 0 -350.5 -146 t-119.5 -426zM481 1532v140h590v-140h-590zM652 -250q0 135 155 250h123q-68 -64 -101.5 -117t-33.5 -114q0 -44 23.5 -66.5t65.5 -22.5t96 13v-112q-67 -18 -123 -18q-205 0 -205 187z" />
<glyph unicode="&#x1ed;" horiz-adv-x="1201" d="M110 534q0 260 130 405t364 145q225 0 357.5 -147.5t132.5 -402.5q0 -260 -132 -406.5t-364 -146.5q-145 0 -256.5 67t-171.5 193.5t-60 292.5zM290 534q0 -200 79 -304.5t233 -104.5q153 0 232.5 104.5t79.5 304.5q0 201 -80 302.5t-235 101.5q-309 0 -309 -404z M306 1204v140h590v-140h-590zM457 -250q0 135 155 250h123q-68 -64 -101.5 -117t-33.5 -114q0 -44 23.5 -66.5t65.5 -22.5t96 13v-112q-67 -18 -123 -18q-205 0 -205 187z" />
<glyph unicode="&#x1ee;" horiz-adv-x="1160" d="M70 57v163q97 -46 206.5 -69.5t204.5 -23.5q193 0 288 81.5t95 232.5q0 138 -98 213t-285 75h-123v129l409 401h-657v159h881v-141l-413 -403q135 -4 243.5 -59t169 -152t60.5 -224q0 -217 -150.5 -337.5t-421.5 -120.5q-251 0 -409 76zM204 1824v26h120 q110 -72 212 -183q122 122 216 183h123v-26q-198 -199 -248 -292h-178q-59 99 -245 292z" />
<glyph unicode="&#x1ef;" horiz-adv-x="989" d="M28 -248q178 -84 376 -84q157 0 250 90t93 240q0 152 -101 234t-301 82h-116v122l434 482h-608v147h813v-127l-435 -485q228 -16 358.5 -136t130.5 -315q0 -140 -65 -249.5t-186 -169.5t-275 -60q-232 0 -368 70v159zM114 1496v26h120q110 -72 212 -183q122 122 216 183 h123v-26q-198 -199 -248 -292h-178q-59 99 -245 292z" />
<glyph unicode="&#x1f0;" horiz-adv-x="512" d="M-110 -312q67 -20 132 -20q76 0 111.5 41.5t35.5 125.5v1230h174v-1224q0 -159 -76 -238.5t-223 -79.5q-92 0 -154 24v141zM-79 1496v26h120q110 -72 212 -183q122 122 216 183h123v-26q-198 -199 -248 -292h-178q-59 99 -245 292z" />
<glyph unicode="&#x1f1;" horiz-adv-x="2566" d="M193 0v1418h437q330 0 514.5 -182t184.5 -513q0 -351 -191.5 -537t-549.5 -186h-395zM372 153h193q576 0 576 564q0 270 -133.5 409.5t-403.5 139.5h-232v-1113zM1507 0v135l747 1124h-724v159h940v-135l-747 -1124h767v-159h-983z" />
<glyph unicode="&#x1f2;" horiz-adv-x="2384" d="M193 0v1418h437q330 0 514.5 -182t184.5 -513q0 -351 -191.5 -537t-549.5 -186h-395zM372 153h193q576 0 576 564q0 270 -133.5 409.5t-403.5 139.5h-232v-1113zM1528 0v115l572 814h-538v136h730v-131l-564 -799h579v-135h-779z" />
<glyph unicode="&#x1f3;" horiz-adv-x="2155" d="M110 531q0 261 115 407t323 146q214 0 330 -157h12q-2 20 -7 78.5t-5 78.5v425h174v-1509h-140l-26 143h-8q-112 -162 -332 -162q-207 0 -321.5 143.5t-114.5 406.5zM290 527q0 -198 73 -300t211 -102q159 0 232.5 87t73.5 285v32q0 222 -74.5 316.5t-233.5 94.5 q-135 0 -208.5 -107t-73.5 -306zM1300 0v115l572 814h-538v136h730v-131l-564 -799h579v-135h-779z" />
<glyph unicode="&#x1f4;" horiz-adv-x="1446" d="M121 709q0 222 88.5 388t254.5 254t393 88q226 0 422 -84l-67 -155q-188 81 -366 81q-253 0 -396 -153t-143 -419q0 -281 137 -427.5t398 -146.5q143 0 278 34v421h-311v159h490v-696q-113 -36 -229 -54t-270 -18q-324 0 -501.5 192t-177.5 536zM720 1532v24 q37 47 94 132.5t96 161.5h210v-20q-43 -63 -133 -157t-151 -141h-116z" />
<glyph unicode="&#x1f5;" horiz-adv-x="1222" d="M110 531q0 257 116.5 405t319.5 148q216 0 334 -161h10l24 142h138v-1082q0 -229 -115.5 -344.5t-360.5 -115.5q-233 0 -383 68v161q155 -84 393 -84q136 0 215 79.5t79 220.5v42l6 131h-8q-108 -160 -330 -160q-207 0 -322.5 144t-115.5 406zM290 529q0 -198 71.5 -302 t212.5 -104q161 0 234.5 87t73.5 279v42q0 213 -74 310t-238 97q-134 0 -207 -106t-73 -303zM447 1204v24q37 47 94 132.5t96 161.5h210v-20q-43 -63 -133 -157t-151 -141h-116z" />
<glyph unicode="&#x1f6;" horiz-adv-x="1863" d="M193 0v1418h179v-599h587v599h180v-1092q0 -90 45.5 -139.5t138.5 -49.5q88 0 135 50t47 141v737h180v-737q0 -160 -97 -252.5t-271 -92.5q-169 0 -263.5 91t-94.5 256v332h-587v-662h-179z" />
<glyph unicode="&#x1f7;" horiz-adv-x="1313" d="M193 -477v1897h141l30 -192h9q74 110 172.5 161t227.5 51q204 0 317.5 -127t113.5 -356q0 -320 -212 -565.5t-620 -410.5v-458h-179zM372 147q320 134 486.5 341t166.5 467q0 161 -73.5 245.5t-210.5 84.5q-187 0 -278 -110t-91 -345v-683z" />
<glyph unicode="&#x1f8;" horiz-adv-x="1509" d="M193 0v1418h207l43 -69l466 -719l247 -386h8q-2 24 -8 167t-6 207v800h167v-1418h-208l-760 1178h-8l5 -79q12 -177 12 -307v-792h-165zM474 1830v20h209q31 -64 88 -153t103 -141v-24h-117q-73 58 -160 150.5t-123 147.5z" />
<glyph unicode="&#x1f9;" horiz-adv-x="1228" d="M169 0v1065h140l27 -145h9q50 78 139 121t197 43q196 0 291 -95t95 -295v-694h-173v681q0 130 -57.5 193.5t-180.5 63.5q-164 0 -238.5 -90.5t-74.5 -295.5v-552h-174zM354 1502v20h209q31 -64 88 -153t103 -141v-24h-117q-73 58 -160 150.5t-123 147.5z" />
<glyph unicode="&#x1fa;" horiz-adv-x="1271" d="M0 0l512 1208q-97 52 -97 179q0 95 58.5 153t157.5 58q100 0 162 -58.5t62 -150.5q0 -63 -26.5 -108.5t-69.5 -70.5l513 -1210h-186l-163 381h-585l-156 -381h-182zM400 540h472l-167 412q-26 59 -72 200q-30 -103 -68 -204zM521 1387q0 -52 28.5 -81.5t81.5 -29.5 q50 0 81 28.5t31 82.5q0 53 -31 82t-81 29q-47 0 -78.5 -29t-31.5 -82zM538 1647v18q56 65 102 132.5t67 105.5h211v-15q-29 -41 -115 -120.5t-147 -120.5h-118z" />
<glyph unicode="&#x1fb;" horiz-adv-x="1114" d="M91 296q0 324 511 339l181 7v63q0 121 -52.5 179t-167.5 58q-85 0 -160 -25.5t-141 -56.5l-53 131q80 43 175 67.5t188 24.5q193 0 287.5 -85.5t94.5 -271.5v-726h-128l-34 151h-7q-80 -100 -159 -135t-199 -35q-157 0 -246.5 82.5t-89.5 232.5zM273 294 q0 -84 50.5 -128.5t143.5 -44.5q146 0 230 79t84 225v96l-157 -7q-184 -7 -267.5 -58.5t-83.5 -161.5zM349 1414q0 94 58.5 151.5t158.5 57.5q98 0 159.5 -57.5t61.5 -149.5q0 -98 -61 -155t-160 -57t-158 57t-59 153zM455 1414q0 -52 28.5 -81.5t82.5 -29.5q50 0 80.5 29.5 t30.5 81.5q0 53 -31.5 82.5t-79.5 29.5t-79.5 -29.5t-31.5 -82.5zM457 1700v16q44 41 95.5 99t73.5 88h260v-11q-21 -24 -100.5 -75t-203.5 -117h-125z" />
<glyph unicode="&#x1fc;" horiz-adv-x="1749" d="M-2 0l673 1418h960v-157h-560v-442h522v-156h-522v-506h560v-157h-739v439h-496l-214 -439h-184zM465 598h427v661h-115zM953 1532v24q37 47 94 132.5t96 161.5h210v-20q-43 -63 -133 -157t-151 -141h-116z" />
<glyph unicode="&#x1fd;" horiz-adv-x="1715" d="M91 296q0 324 485 339l179 7v67q0 118 -55 175.5t-167 57.5q-135 0 -298 -82l-55 131q69 39 167.5 65.5t198.5 26.5q124 0 204 -40.5t122 -130.5q52 82 134.5 127t191.5 45q191 0 304 -130.5t113 -345.5v-107h-681q8 -372 308 -372q85 0 159.5 16t166.5 58v-154 q-86 -37 -159.5 -52.5t-172.5 -15.5q-282 0 -404 224q-79 -121 -175 -172.5t-228 -51.5q-159 0 -248.5 82.5t-89.5 232.5zM273 294q0 -89 50 -131t134 -42q136 0 215 79t79 225v96l-149 -7q-171 -7 -250 -58.5t-79 -161.5zM758 1204v24q37 47 94 132.5t96 161.5h210v-20 q-43 -63 -133 -157t-151 -141h-116zM938 637h493q0 148 -60.5 226.5t-174.5 78.5q-115 0 -181 -78t-77 -227z" />
<glyph unicode="&#x1fe;" horiz-adv-x="1551" d="M121 713q0 346 170.5 536.5t487.5 190.5q198 0 353 -89l92 131l120 -81l-100 -142q187 -197 187 -548q0 -340 -172.5 -535t-481.5 -195q-225 0 -368 93l-95 -135l-121 78l103 148q-175 192 -175 548zM309 711q0 -251 95 -393l633 895q-106 70 -258 70q-231 0 -350.5 -146 t-119.5 -426zM504 210q111 -75 273 -75q228 0 346.5 145.5t118.5 430.5q0 256 -101 402zM650 1532v24q37 47 94 132.5t96 161.5h210v-20q-43 -63 -133 -157t-151 -141h-116z" />
<glyph unicode="&#x1ff;" horiz-adv-x="1201" d="M110 534q0 260 130 405t364 145q147 0 260 -71l78 111l117 -75l-90 -126q125 -150 125 -389q0 -260 -132 -406.5t-364 -146.5q-147 0 -257 65l-79 -112l-115 78l90 123q-127 151 -127 399zM290 534q0 -161 48 -254l437 608q-71 50 -176 50q-309 0 -309 -404zM431 171 q67 -46 171 -46q153 0 232.5 104.5t79.5 304.5q0 148 -46 245zM460 1204v24q37 47 94 132.5t96 161.5h210v-20q-43 -63 -133 -157t-151 -141h-116z" />
<glyph unicode="&#x200;" horiz-adv-x="1269" d="M0 0l554 1424h161l553 -1424h-185l-171 439h-563l-169 -439h-180zM179 1830v20h193q27 -59 75 -143.5t96 -150.5v-24h-99q-63 50 -148 147t-117 151zM409 598h449l-159 429l-68 213q-29 -117 -61 -213zM529 1830v20h192q27 -59 75 -143.5t96 -150.5v-24h-99 q-58 46 -143.5 142.5t-120.5 155.5z" />
<glyph unicode="&#x201;" horiz-adv-x="1114" d="M91 296q0 324 511 339l181 7v63q0 121 -52.5 179t-167.5 58q-85 0 -160 -25.5t-141 -56.5l-53 131q80 43 175 67.5t188 24.5q193 0 287.5 -85.5t94.5 -271.5v-726h-128l-34 151h-7q-80 -100 -159 -135t-199 -35q-157 0 -246.5 82.5t-89.5 232.5zM112 1502v20h193 q27 -59 75 -143.5t96 -150.5v-24h-99q-63 50 -148 147t-117 151zM273 294q0 -84 50.5 -128.5t143.5 -44.5q146 0 230 79t84 225v96l-157 -7q-184 -7 -267.5 -58.5t-83.5 -161.5zM462 1502v20h192q27 -59 75 -143.5t96 -150.5v-24h-99q-58 46 -143.5 142.5t-120.5 155.5z" />
<glyph unicode="&#x202;" horiz-adv-x="1269" d="M0 0l554 1424h161l553 -1424h-185l-171 439h-563l-169 -439h-180zM326 1532q10 125 93.5 196t219.5 71q137 0 216 -67t87 -200h-106q-9 71 -50 98t-151 27q-100 0 -146.5 -31t-54.5 -94h-108zM409 598h449l-159 429l-68 213q-29 -117 -61 -213z" />
<glyph unicode="&#x203;" horiz-adv-x="1114" d="M91 296q0 324 511 339l181 7v63q0 121 -52.5 179t-167.5 58q-85 0 -160 -25.5t-141 -56.5l-53 131q80 43 175 67.5t188 24.5q193 0 287.5 -85.5t94.5 -271.5v-726h-128l-34 151h-7q-80 -100 -159 -135t-199 -35q-157 0 -246.5 82.5t-89.5 232.5zM269 1204 q10 125 93.5 196t219.5 71q137 0 216 -67t87 -200h-106q-9 71 -50 98t-151 27q-100 0 -146.5 -31t-54.5 -94h-108zM273 294q0 -84 50.5 -128.5t143.5 -44.5q146 0 230 79t84 225v96l-157 -7q-184 -7 -267.5 -58.5t-83.5 -161.5z" />
<glyph unicode="&#x204;" horiz-adv-x="1104" d="M155 1830v20h193q27 -59 75 -143.5t96 -150.5v-24h-99q-63 50 -148 147t-117 151zM193 0v1418h793v-157h-614v-442h578v-156h-578v-506h614v-157h-793zM505 1830v20h192q27 -59 75 -143.5t96 -150.5v-24h-99q-58 46 -143.5 142.5t-120.5 155.5z" />
<glyph unicode="&#x205;" horiz-adv-x="1120" d="M110 525q0 256 127 407.5t343 151.5q201 0 320 -129.5t119 -350.5v-105h-729q5 -182 92 -276t248 -94q85 0 161.5 15t179.5 59v-154q-88 -37 -165.5 -52.5t-183.5 -15.5q-240 0 -376 145t-136 399zM143 1502v20h193q27 -59 75 -143.5t96 -150.5v-24h-99q-63 50 -148 147 t-117 151zM294 637h542q-2 150 -69 227.5t-189 77.5q-125 0 -198 -80.5t-86 -224.5zM493 1502v20h192q27 -59 75 -143.5t96 -150.5v-24h-99q-58 46 -143.5 142.5t-120.5 155.5z" />
<glyph unicode="&#x206;" horiz-adv-x="1104" d="M193 0v1418h793v-157h-614v-442h578v-156h-578v-506h614v-157h-793zM283 1532q10 125 93.5 196t219.5 71q137 0 216 -67t87 -200h-106q-9 71 -50 98t-151 27q-100 0 -146.5 -31t-54.5 -94h-108z" />
<glyph unicode="&#x207;" horiz-adv-x="1120" d="M110 525q0 256 127 407.5t343 151.5q201 0 320 -129.5t119 -350.5v-105h-729q5 -182 92 -276t248 -94q85 0 161.5 15t179.5 59v-154q-88 -37 -165.5 -52.5t-183.5 -15.5q-240 0 -376 145t-136 399zM271 1204q10 125 93.5 196t219.5 71q137 0 216 -67t87 -200h-106 q-9 71 -50 98t-151 27q-100 0 -146.5 -31t-54.5 -94h-108zM294 637h542q-2 150 -69 227.5t-189 77.5q-125 0 -198 -80.5t-86 -224.5z" />
<glyph unicode="&#x208;" horiz-adv-x="673" d="M-119 1830v20h193q27 -59 75 -143.5t96 -150.5v-24h-99q-63 50 -148 147t-117 151zM80 0v103l166 38v1135l-166 39v103h512v-103l-167 -39v-1135l167 -38v-103h-512zM231 1830v20h192q27 -59 75 -143.5t96 -150.5v-24h-99q-58 46 -143.5 142.5t-120.5 155.5z" />
<glyph unicode="&#x209;" horiz-adv-x="512" d="M-201 1502v20h193q27 -59 75 -143.5t96 -150.5v-24h-99q-63 50 -148 147t-117 151zM149 1502v20h192q27 -59 75 -143.5t96 -150.5v-24h-99q-58 46 -143.5 142.5t-120.5 155.5zM169 0v1065h174v-1065h-174z" />
<glyph unicode="&#x20a;" horiz-adv-x="673" d="M29 1532q10 125 93.5 196t219.5 71q137 0 216 -67t87 -200h-106q-9 71 -50 98t-151 27q-100 0 -146.5 -31t-54.5 -94h-108zM80 0v103l166 38v1135l-166 39v103h512v-103l-167 -39v-1135l167 -38v-103h-512z" />
<glyph unicode="&#x20b;" horiz-adv-x="512" d="M-53 1204q10 125 93.5 196t219.5 71q137 0 216 -67t87 -200h-106q-9 71 -50 98t-151 27q-100 0 -146.5 -31t-54.5 -94h-108zM169 0v1065h174v-1065h-174z" />
<glyph unicode="&#x20c;" horiz-adv-x="1551" d="M121 713q0 346 170.5 536.5t487.5 190.5q308 0 480 -193.5t172 -535.5q0 -340 -172.5 -535t-481.5 -195q-313 0 -484.5 191.5t-171.5 540.5zM309 711q0 -281 119.5 -428.5t348.5 -147.5q228 0 346.5 145.5t118.5 430.5q0 284 -117.5 428t-345.5 144q-231 0 -350.5 -146 t-119.5 -426zM322 1830v20h193q27 -59 75 -143.5t96 -150.5v-24h-99q-63 50 -148 147t-117 151zM672 1830v20h192q27 -59 75 -143.5t96 -150.5v-24h-99q-58 46 -143.5 142.5t-120.5 155.5z" />
<glyph unicode="&#x20d;" horiz-adv-x="1201" d="M110 534q0 260 130 405t364 145q225 0 357.5 -147.5t132.5 -402.5q0 -260 -132 -406.5t-364 -146.5q-145 0 -256.5 67t-171.5 193.5t-60 292.5zM157 1502v20h193q27 -59 75 -143.5t96 -150.5v-24h-99q-63 50 -148 147t-117 151zM290 534q0 -200 79 -304.5t233 -104.5 q153 0 232.5 104.5t79.5 304.5q0 201 -80 302.5t-235 101.5q-309 0 -309 -404zM507 1502v20h192q27 -59 75 -143.5t96 -150.5v-24h-99q-58 46 -143.5 142.5t-120.5 155.5z" />
<glyph unicode="&#x20e;" horiz-adv-x="1551" d="M121 713q0 346 170.5 536.5t487.5 190.5q308 0 480 -193.5t172 -535.5q0 -340 -172.5 -535t-481.5 -195q-313 0 -484.5 191.5t-171.5 540.5zM309 711q0 -281 119.5 -428.5t348.5 -147.5q228 0 346.5 145.5t118.5 430.5q0 284 -117.5 428t-345.5 144q-231 0 -350.5 -146 t-119.5 -426zM468 1532q10 125 93.5 196t219.5 71q137 0 216 -67t87 -200h-106q-9 71 -50 98t-151 27q-100 0 -146.5 -31t-54.5 -94h-108z" />
<glyph unicode="&#x20f;" horiz-adv-x="1201" d="M110 534q0 260 130 405t364 145q225 0 357.5 -147.5t132.5 -402.5q0 -260 -132 -406.5t-364 -146.5q-145 0 -256.5 67t-171.5 193.5t-60 292.5zM290 534q0 -200 79 -304.5t233 -104.5q153 0 232.5 104.5t79.5 304.5q0 201 -80 302.5t-235 101.5q-309 0 -309 -404z M293 1204q10 125 93.5 196t219.5 71q137 0 216 -67t87 -200h-106q-9 71 -50 98t-151 27q-100 0 -146.5 -31t-54.5 -94h-108z" />
<glyph unicode="&#x210;" horiz-adv-x="1235" d="M161 1830v20h193q27 -59 75 -143.5t96 -150.5v-24h-99q-63 50 -148 147t-117 151zM193 0v1418h391q264 0 390.5 -100.5t126.5 -301.5q0 -283 -284 -381l389 -635h-209l-343 586h-282v-586h-179zM372 737h212q173 0 252.5 68t79.5 202t-80.5 195.5t-261.5 61.5h-202v-527z M511 1830v20h192q27 -59 75 -143.5t96 -150.5v-24h-99q-58 46 -143.5 142.5t-120.5 155.5z" />
<glyph unicode="&#x211;" horiz-adv-x="820" d="M34 1502v20h193q27 -59 75 -143.5t96 -150.5v-24h-99q-63 50 -148 147t-117 151zM169 0v1065h143l20 -195h8q61 106 144 160t181 54q71 0 126 -11l-22 -161q-59 13 -115 13q-85 0 -157 -46.5t-113 -128.5t-41 -182v-568h-174zM384 1502v20h192q27 -59 75 -143.5 t96 -150.5v-24h-99q-58 46 -143.5 142.5t-120.5 155.5z" />
<glyph unicode="&#x212;" horiz-adv-x="1235" d="M193 0v1418h391q264 0 390.5 -100.5t126.5 -301.5q0 -283 -284 -381l389 -635h-209l-343 586h-282v-586h-179zM309 1532q10 125 93.5 196t219.5 71q137 0 216 -67t87 -200h-106q-9 71 -50 98t-151 27q-100 0 -146.5 -31t-54.5 -94h-108zM372 737h212q173 0 252.5 68 t79.5 202t-80.5 195.5t-261.5 61.5h-202v-527z" />
<glyph unicode="&#x213;" horiz-adv-x="820" d="M169 0v1065h143l20 -195h8q61 106 144 160t181 54q71 0 126 -11l-22 -161q-59 13 -115 13q-85 0 -157 -46.5t-113 -128.5t-41 -182v-568h-174zM172 1204q10 125 93.5 196t219.5 71q137 0 216 -67t87 -200h-106q-9 71 -50 98t-151 27q-100 0 -146.5 -31t-54.5 -94h-108z " />
<glyph unicode="&#x214;" horiz-adv-x="1452" d="M178 504v914h180v-919q0 -174 92.5 -269t278.5 -95q176 0 270.5 94t94.5 272v917h178v-917q0 -243 -146.5 -381.5t-406.5 -138.5q-257 0 -399 140t-142 383zM298 1830v20h193q27 -59 75 -143.5t96 -150.5v-24h-99q-63 50 -148 147t-117 151zM648 1830v20h192 q27 -59 75 -143.5t96 -150.5v-24h-99q-58 46 -143.5 142.5t-120.5 155.5z" />
<glyph unicode="&#x215;" horiz-adv-x="1228" d="M157 368v697h177v-686q0 -129 57.5 -191.5t178.5 -62.5q164 0 239 91t75 294v555h175v-1065h-143l-26 141h-8q-48 -77 -135 -118.5t-203 -41.5q-192 0 -289.5 92t-97.5 295zM157 1502v20h193q27 -59 75 -143.5t96 -150.5v-24h-99q-63 50 -148 147t-117 151zM507 1502v20 h192q27 -59 75 -143.5t96 -150.5v-24h-99q-58 46 -143.5 142.5t-120.5 155.5z" />
<glyph unicode="&#x216;" horiz-adv-x="1452" d="M178 504v914h180v-919q0 -174 92.5 -269t278.5 -95q176 0 270.5 94t94.5 272v917h178v-917q0 -243 -146.5 -381.5t-406.5 -138.5q-257 0 -399 140t-142 383zM419 1532q10 125 93.5 196t219.5 71q137 0 216 -67t87 -200h-106q-9 71 -50 98t-151 27q-100 0 -146.5 -31 t-54.5 -94h-108z" />
<glyph unicode="&#x217;" horiz-adv-x="1228" d="M157 368v697h177v-686q0 -129 57.5 -191.5t178.5 -62.5q164 0 239 91t75 294v555h175v-1065h-143l-26 141h-8q-48 -77 -135 -118.5t-203 -41.5q-192 0 -289.5 92t-97.5 295zM305 1204q10 125 93.5 196t219.5 71q137 0 216 -67t87 -200h-106q-9 71 -50 98t-151 27 q-100 0 -146.5 -31t-54.5 -94h-108z" />
<glyph unicode="&#x218;" horiz-adv-x="1090" d="M101 48v170q90 -39 197 -61t201 -22q159 0 239.5 61t80.5 168q0 71 -29.5 116.5t-97.5 85t-207 90.5q-197 72 -281.5 169t-84.5 252q0 166 125 264t328 98q213 0 391 -80l-55 -153q-182 75 -340 75q-126 0 -197 -54t-71 -152q0 -70 27.5 -116t89 -84t193.5 -86 q158 -59 235.5 -113.5t114.5 -126t37 -170.5q0 -185 -134 -291.5t-372 -106.5q-252 0 -390 67zM378 -415q21 49 47.5 139.5t33.5 154.5h173v-18q-15 -61 -62 -151.5t-97 -148.5h-95v24z" />
<glyph unicode="&#x219;" horiz-adv-x="951" d="M101 802q0 131 106.5 206.5t293.5 75.5q181 0 339 -71l-59 -139q-162 68 -292 68q-109 0 -165 -34.5t-56 -94.5q0 -58 48.5 -96.5t225.5 -106.5q133 -49 196.5 -92t93.5 -96t30 -128q0 -149 -111.5 -231t-313.5 -82q-210 0 -334 67v159q175 -86 338 -86q132 0 192.5 43 t60.5 114q0 63 -58 107t-205 100q-151 58 -212 99.5t-89.5 92.5t-28.5 125zM321 -415q21 49 47.5 139.5t33.5 154.5h173v-18q-15 -61 -62 -151.5t-97 -148.5h-95v24z" />
<glyph unicode="&#x21a;" horiz-adv-x="1104" d="M19 1261v157h1064v-157h-441v-1261h-179v1261h-444zM380 -415q21 49 47.5 139.5t33.5 154.5h173v-18q-15 -61 -62 -151.5t-97 -148.5h-95v24z" />
<glyph unicode="&#x21b;" horiz-adv-x="716" d="M32 929v84l152 70l70 227h104v-245h307v-136h-307v-615q0 -92 44 -141.5t123 -49.5q34 0 79.5 7t68.5 16v-134q-24 -11 -75 -21t-103 -10q-313 0 -313 328v620h-150zM281 -415q21 49 47.5 139.5t33.5 154.5h173v-18q-15 -61 -62 -151.5t-97 -148.5h-95v24z" />
<glyph unicode="&#x21c;" horiz-adv-x="1167" d="M76 57v163q96 -45 206 -69t205 -24q192 0 289.5 71t97.5 204q0 127 -109.5 192.5t-327.5 65.5h-202v149h192q210 0 314.5 70.5t104.5 189.5q0 103 -77 162.5t-208 59.5q-111 0 -199.5 -26t-194.5 -95l-86 121q205 148 482 148q218 0 343 -95.5t125 -257.5 q0 -137 -88 -225t-248 -112v-8q181 -24 273.5 -111.5t92.5 -227.5q0 -199 -150.5 -310t-421.5 -111q-255 0 -413 76z" />
<glyph unicode="&#x21d;" horiz-adv-x="989" d="M19 -244q89 -42 189.5 -65t195.5 -23q157 0 250 90t93 240q0 152 -101 234t-301 82h-156v139h194q140 0 222.5 69.5t82.5 178.5q0 110 -77 175.5t-206 65.5q-59 0 -120 -14.5t-144 -53.5l-60 139q88 41 165 56t169 15q205 0 322.5 -95.5t117.5 -262.5q0 -122 -63.5 -209 t-189.5 -130q160 -41 240 -140.5t80 -244.5q0 -140 -65 -249.5t-186 -169.5t-275 -60q-231 0 -377 73v160z" />
<glyph unicode="&#x21e;" horiz-adv-x="1472" d="M193 0v1418h179v-599h727v599h178v-1418h-178v662h-727v-662h-179zM399 1824v26h120q110 -72 212 -183q122 122 216 183h123v-26q-198 -199 -248 -292h-178q-59 99 -245 292z" />
<glyph unicode="&#x21f;" horiz-adv-x="1228" d="M169 0v1509h174v-442q0 -87 -9 -149h11q48 77 135 121t197 44q194 0 292 -93t98 -296v-694h-173v681q0 130 -57.5 193.5t-180.5 63.5q-162 0 -237.5 -90t-75.5 -298v-550h-174zM328 1864v26h120q110 -72 212 -183q122 122 216 183h123v-26q-198 -199 -248 -292h-178 q-59 99 -245 292z" />
<glyph unicode="&#x220;" horiz-adv-x="1472" d="M193 0v1420h141l30 -182h9q64 90 185 146t242 56q491 0 491 -524v-1393h-178v1393q0 193 -81.5 281t-252.5 88q-407 0 -407 -445v-840h-179z" />
<glyph unicode="&#x221;" horiz-adv-x="1222" d="M110 531q0 261 115 407t323 146q214 0 330 -157h12q-2 20 -7 78.5t-5 78.5v425h174v-1652q0 -102 24 -146.5t90 -44.5q71 0 113 22v-133q-45 -32 -151 -32q-250 0 -250 331v127q0 23 5 80.5t7 75.5h-12q-115 -156 -330 -156q-208 0 -323 144.5t-115 405.5zM290 527 q0 -198 73 -300t211 -102q159 0 232.5 87t73.5 285v32q0 222 -74.5 316.5t-233.5 94.5q-135 0 -208.5 -107t-73.5 -306z" />
<glyph unicode="&#x222;" horiz-adv-x="1332" d="M115 461q0 311 296 401q-224 92 -224 382v174h179v-174q0 -147 77.5 -228.5t221.5 -81.5q147 0 224.5 81.5t77.5 228.5v174h180v-174q0 -288 -229 -384q146 -46 222.5 -147.5t76.5 -251.5q0 -222 -147.5 -351t-407.5 -129q-161 0 -285.5 58.5t-193 168.5t-68.5 253z M304 461q0 -162 91 -244t270 -82q180 0 272 82.5t92 243.5q0 320 -366 320q-359 0 -359 -320z" />
<glyph unicode="&#x223;" horiz-adv-x="1201" d="M110 474q0 321 258 416q-102 38 -146.5 126.5t-44.5 236.5v256h174v-250q0 -153 59 -224.5t192 -71.5t192 71.5t59 224.5v250h174v-256q0 -153 -45.5 -240.5t-147.5 -124.5q130 -50 195 -155t65 -259q0 -232 -132.5 -362.5t-363.5 -130.5q-222 0 -355 134t-133 359z M290 474q0 -170 78.5 -259.5t233.5 -89.5q153 0 232.5 88.5t79.5 260.5q0 173 -81 259t-234 86q-152 0 -230.5 -86.5t-78.5 -258.5z" />
<glyph unicode="&#x224;" horiz-adv-x="1135" d="M76 0v135l747 1124h-724v159h940v-135l-747 -1124h767v-159h-983zM708 -224q45 -18 99 -18q95 0 95 103v298h157v-288q0 -265 -232 -265q-58 0 -119 24v146z" />
<glyph unicode="&#x225;" horiz-adv-x="934" d="M78 0v115l572 814h-538v136h730v-131l-564 -799h579v-264q0 -265 -233 -265q-58 0 -120 24v146q45 -18 100 -18q95 0 95 103v139h-621z" />
<glyph unicode="&#x226;" horiz-adv-x="1269" d="M0 0l554 1424h161l553 -1424h-185l-171 439h-563l-169 -439h-180zM409 598h449l-159 429l-68 213q-29 -117 -61 -213zM532 1681q0 58 29.5 84.5t73.5 26.5q41 0 71.5 -26.5t30.5 -84.5q0 -57 -30.5 -84t-71.5 -27q-44 0 -73.5 27t-29.5 84z" />
<glyph unicode="&#x227;" horiz-adv-x="1114" d="M91 296q0 324 511 339l181 7v63q0 121 -52.5 179t-167.5 58q-85 0 -160 -25.5t-141 -56.5l-53 131q80 43 175 67.5t188 24.5q193 0 287.5 -85.5t94.5 -271.5v-726h-128l-34 151h-7q-80 -100 -159 -135t-199 -35q-157 0 -246.5 82.5t-89.5 232.5zM273 294 q0 -84 50.5 -128.5t143.5 -44.5q146 0 230 79t84 225v96l-157 -7q-184 -7 -267.5 -58.5t-83.5 -161.5zM455 1353q0 58 29.5 84.5t73.5 26.5q41 0 71.5 -26.5t30.5 -84.5q0 -57 -30.5 -84t-71.5 -27q-44 0 -73.5 27t-29.5 84z" />
<glyph unicode="&#x228;" horiz-adv-x="1104" d="M193 0v1418h793v-157h-614v-442h578v-156h-578v-506h614v-157h-793zM396 -358q35 -10 105 -10q73 0 110 19t37 69q0 86 -181 109l85 171h116l-52 -106q173 -37 173 -170q0 -96 -73 -148.5t-221 -52.5q-63 0 -99 10v109z" />
<glyph unicode="&#x229;" horiz-adv-x="1120" d="M110 525q0 256 127 407.5t343 151.5q201 0 320 -129.5t119 -350.5v-105h-729q5 -182 92 -276t248 -94q85 0 161.5 15t179.5 59v-154q-88 -37 -165.5 -52.5t-183.5 -15.5q-240 0 -376 145t-136 399zM294 637h542q-2 150 -69 227.5t-189 77.5q-125 0 -198 -80.5t-86 -224.5 zM384 -358q35 -10 105 -10q73 0 110 19t37 69q0 86 -181 109l85 171h116l-52 -106q173 -37 173 -170q0 -96 -73 -148.5t-221 -52.5q-63 0 -99 10v109z" />
<glyph unicode="&#x22a;" horiz-adv-x="1551" d="M121 713q0 346 170.5 536.5t487.5 190.5q308 0 480 -193.5t172 -535.5q0 -340 -172.5 -535t-481.5 -195q-313 0 -484.5 191.5t-171.5 540.5zM309 711q0 -281 119.5 -428.5t348.5 -147.5q228 0 346.5 145.5t118.5 430.5q0 284 -117.5 428t-345.5 144q-231 0 -350.5 -146 t-119.5 -426zM481 1874v141h590v-141h-590zM497 1645q0 51 28 75.5t65 24.5q38 0 65 -24.5t27 -75.5t-27 -74t-65 -23q-45 0 -69 26t-24 71zM868 1645q0 51 28 75.5t65 24.5q40 0 67 -24.5t27 -75.5q0 -46 -24.5 -71.5t-69.5 -25.5q-44 0 -68.5 26t-24.5 71z" />
<glyph unicode="&#x22b;" horiz-adv-x="1201" d="M110 534q0 260 130 405t364 145q225 0 357.5 -147.5t132.5 -402.5q0 -260 -132 -406.5t-364 -146.5q-145 0 -256.5 67t-171.5 193.5t-60 292.5zM290 534q0 -200 79 -304.5t233 -104.5q153 0 232.5 104.5t79.5 304.5q0 201 -80 302.5t-235 101.5q-309 0 -309 -404z M306 1520v141h590v-141h-590zM322 1291q0 51 28 75.5t65 24.5q38 0 65 -24.5t27 -75.5t-27 -74t-65 -23q-45 0 -69 26t-24 71zM693 1291q0 51 28 75.5t65 24.5q40 0 67 -24.5t27 -75.5q0 -46 -24.5 -71.5t-69.5 -25.5q-44 0 -68.5 26t-24.5 71z" />
<glyph unicode="&#x22c;" horiz-adv-x="1551" d="M121 713q0 346 170.5 536.5t487.5 190.5q308 0 480 -193.5t172 -535.5q0 -340 -172.5 -535t-481.5 -195q-313 0 -484.5 191.5t-171.5 540.5zM309 711q0 -281 119.5 -428.5t348.5 -147.5q228 0 346.5 145.5t118.5 430.5q0 284 -117.5 428t-345.5 144q-231 0 -350.5 -146 t-119.5 -426zM441 1556q10 108 60.5 167.5t132.5 59.5q41 0 80 -15t74 -33t67.5 -33t62.5 -15q41 0 59.5 26t32.5 72h99q-11 -109 -60 -168t-133 -59q-38 0 -75.5 15t-73 32.5t-69.5 32.5t-64 15q-37 0 -57 -21.5t-35 -75.5h-101zM479 1874v141h590v-141h-590z" />
<glyph unicode="&#x22d;" horiz-adv-x="1201" d="M110 534q0 260 130 405t364 145q225 0 357.5 -147.5t132.5 -402.5q0 -260 -132 -406.5t-364 -146.5q-145 0 -256.5 67t-171.5 193.5t-60 292.5zM265 1202q10 108 60.5 167.5t132.5 59.5q41 0 80 -15t74 -33t67.5 -33t62.5 -15q41 0 59.5 26t32.5 72h99q-11 -109 -60 -168 t-133 -59q-38 0 -75.5 15t-73 32.5t-69.5 32.5t-64 15q-37 0 -57 -21.5t-35 -75.5h-101zM290 534q0 -200 79 -304.5t233 -104.5q153 0 232.5 104.5t79.5 304.5q0 201 -80 302.5t-235 101.5q-309 0 -309 -404zM303 1520v141h590v-141h-590z" />
<glyph unicode="&#x22e;" horiz-adv-x="1551" d="M121 713q0 346 170.5 536.5t487.5 190.5q308 0 480 -193.5t172 -535.5q0 -340 -172.5 -535t-481.5 -195q-313 0 -484.5 191.5t-171.5 540.5zM309 711q0 -281 119.5 -428.5t348.5 -147.5q228 0 346.5 145.5t118.5 430.5q0 284 -117.5 428t-345.5 144q-231 0 -350.5 -146 t-119.5 -426zM674 1681q0 58 29.5 84.5t73.5 26.5q41 0 71.5 -26.5t30.5 -84.5q0 -57 -30.5 -84t-71.5 -27q-44 0 -73.5 27t-29.5 84z" />
<glyph unicode="&#x22f;" horiz-adv-x="1201" d="M110 534q0 260 130 405t364 145q225 0 357.5 -147.5t132.5 -402.5q0 -260 -132 -406.5t-364 -146.5q-145 0 -256.5 67t-171.5 193.5t-60 292.5zM290 534q0 -200 79 -304.5t233 -104.5q153 0 232.5 104.5t79.5 304.5q0 201 -80 302.5t-235 101.5q-309 0 -309 -404z M498 1353q0 58 29.5 84.5t73.5 26.5q41 0 71.5 -26.5t30.5 -84.5q0 -57 -30.5 -84t-71.5 -27q-44 0 -73.5 27t-29.5 84z" />
<glyph unicode="&#x230;" horiz-adv-x="1551" d="M121 713q0 346 170.5 536.5t487.5 190.5q308 0 480 -193.5t172 -535.5q0 -340 -172.5 -535t-481.5 -195q-313 0 -484.5 191.5t-171.5 540.5zM309 711q0 -281 119.5 -428.5t348.5 -147.5q228 0 346.5 145.5t118.5 430.5q0 284 -117.5 428t-345.5 144q-231 0 -350.5 -146 t-119.5 -426zM479 1848v140h590v-140h-590zM674 1641q0 58 29.5 84.5t73.5 26.5q46 0 73.5 -29.5t27.5 -81.5t-28 -81.5t-73 -29.5q-44 0 -73.5 27t-29.5 84z" />
<glyph unicode="&#x231;" horiz-adv-x="1201" d="M110 534q0 260 130 405t364 145q225 0 357.5 -147.5t132.5 -402.5q0 -260 -132 -406.5t-364 -146.5q-145 0 -256.5 67t-171.5 193.5t-60 292.5zM290 534q0 -200 79 -304.5t233 -104.5q153 0 232.5 104.5t79.5 304.5q0 201 -80 302.5t-235 101.5q-309 0 -309 -404z M306 1522v141h590v-141h-590zM501 1315q0 59 29.5 85t73.5 26q46 0 73.5 -29.5t27.5 -81.5t-28 -81.5t-73 -29.5q-44 0 -73.5 27t-29.5 84z" />
<glyph unicode="&#x232;" horiz-adv-x="1124" d="M0 1418h195l368 -697l369 697h192l-472 -868v-550h-180v542zM269 1532v140h590v-140h-590z" />
<glyph unicode="&#x233;" horiz-adv-x="1012" d="M2 1065h187l230 -606q73 -198 89 -290h8q9 36 40 134.5t52 157.5l216 604h189l-459 -1212q-67 -177 -159 -253.5t-228 -76.5q-73 0 -145 16v139q49 -12 117 -12q83 0 141.5 46t94.5 142l56 142zM213 1204v140h590v-140h-590z" />
<glyph unicode="&#x234;" horiz-adv-x="756" d="M14 0q71 194 155 300v1209h174v-1076q61 24 136 24q120 0 189 -66.5t69 -172.5q0 -110 -69 -173.5t-196 -63.5q-91 0 -156 34t-102 93q-29 -60 -67 -167zM343 275q7 -160 127 -160q59 0 83.5 30t24.5 73q0 52 -30.5 78t-82.5 26q-61 0 -122 -47z" />
<glyph unicode="&#x235;" horiz-adv-x="1480" d="M169 0v1065h140l27 -145h9q50 78 139 121t197 43q196 0 291 -95t95 -295v-261q61 24 135 24q120 0 189 -66.5t69 -172.5q0 -110 -67.5 -173.5t-196.5 -63.5q-176 0 -256 127q-29 -56 -68 -167l-133 59q72 194 155 300v381q0 130 -57.5 193.5t-180.5 63.5 q-164 0 -238.5 -90.5t-74.5 -295.5v-552h-174zM1067 275q7 -160 127 -160q51 0 79 26t28 77q0 52 -30 78t-83 26q-60 0 -121 -47z" />
<glyph unicode="&#x236;" horiz-adv-x="771" d="M28 0q73 197 154 300v629h-150v84l152 70l70 227h104v-245h307v-136h-307v-496q61 24 135 24q120 0 189 -66.5t69 -172.5q0 -110 -67.5 -173.5t-196.5 -63.5q-91 0 -156 34t-102 93q-29 -56 -68 -167zM358 275q7 -160 127 -160q50 0 78.5 26t28.5 77q0 52 -30 78t-83 26 q-60 0 -121 -47z" />
<glyph unicode="&#x237;" horiz-adv-x="512" d="M-110 -312q67 -20 132 -20q76 0 111.5 41.5t35.5 125.5v1230h174v-1224q0 -159 -76 -238.5t-223 -79.5q-92 0 -154 24v141z" />
<glyph unicode="&#x238;" horiz-adv-x="1931" d="M110 531q0 261 115 407t323 146q214 0 330 -157h12q-3 26 -7.5 90t-4.5 119v373h174v-366q0 -110 -9 -220h9q108 160 330 160q211 0 325.5 -145.5t114.5 -404.5q0 -268 -123 -410t-352 -142q-273 0 -384 248q-110 -248 -383 -248q-228 0 -349 140.5t-121 409.5zM290 527 q0 -198 75 -300t221 -102q141 0 217.5 109t76.5 304q0 220 -73.5 311t-234.5 91q-135 0 -208.5 -107t-73.5 -306zM1052 538q0 -413 297 -413q292 0 292 409q0 202 -70.5 303t-217.5 101q-161 0 -231 -91t-70 -309z" />
<glyph unicode="&#x239;" horiz-adv-x="1931" d="M110 533q0 267 122.5 409t351.5 142q273 0 383 -248q56 128 156 188t228 60q228 0 349.5 -140.5t121.5 -409.5q0 -260 -115 -406.5t-325 -146.5q-215 0 -330 156h-11l4 -34q7 -73 7 -175v-405h-174v399q0 109 10 219h-10q-104 -158 -330 -158q-208 0 -323 144.5 t-115 405.5zM290 531q0 -203 70.5 -303.5t217.5 -100.5q160 0 230 91.5t70 308.5q0 413 -296 413q-292 0 -292 -409zM1051 527q0 -217 72 -309.5t236 -92.5q135 0 208.5 107.5t73.5 305.5t-75 300t-222 102q-139 0 -216 -108.5t-77 -304.5z" />
<glyph unicode="&#x23a;" horiz-adv-x="1269" d="M0 0l554 1424h161l60 -154l83 239h133l-147 -421l424 -1088h-185l-171 439h-294l-203 -588h-133l205 588h-138l-169 -439h-180zM409 598h133l153 441q-38 109 -64 201q-29 -117 -61 -213zM673 598h185l-96 257z" />
<glyph unicode="&#x23b;" horiz-adv-x="1255" d="M121 711q0 219 81 384t236 254.5t364 89.5q76 0 148 -10l28 80h133l-38 -108q59 -16 121 -46l-72 -151q-71 31 -104 41l-379 -1088q71 -20 159 -20q152 0 341 56v-155q-90 -33 -173.5 -45t-192.5 -12q-92 0 -187 19l-52 -149h-132l65 189q-170 79 -258 251t-88 420z M309 709q0 -364 216 -500l371 1065q-39 7 -96 7q-229 0 -360 -153t-131 -419z" />
<glyph unicode="&#x23c;" horiz-adv-x="953" d="M110 527q0 267 129.5 412t368.5 145h29l28 -1l154 426h133l-161 -448q55 -15 97 -34l-54 -145q-61 22 -95 30l-270 -759q55 -22 125 -22q140 0 276 62v-155q-110 -57 -274 -57q-91 0 -181 25l-149 -419h-133l169 474q-192 140 -192 466zM290 529q0 -192 74 -292l248 695 h-8q-161 0 -237.5 -101.5t-76.5 -301.5z" />
<glyph unicode="&#x23d;" horiz-adv-x="1040" d="M19 660v140h174v618h179v-618h337v-140h-337v-501h619v-159h-798v660h-174z" />
<glyph unicode="&#x23e;" horiz-adv-x="1104" d="M19 1261v157h832l43 91h139l-44 -91h94v-157h-165l-276 -594v-667h-179v282l-201 -431h-139l340 731v679h-444zM642 967l137 294h-137v-294z" />
<glyph unicode="&#x23f;" horiz-adv-x="951" d="M101 802q0 131 106.5 206.5t293.5 75.5q181 0 339 -71l-59 -139q-162 68 -292 68q-109 0 -165 -34.5t-56 -94.5q0 -58 48.5 -96.5t225.5 -106.5q133 -49 196.5 -92t93.5 -96t30 -128q0 -143 -101.5 -224t-293.5 -87q35 -53 58 -148q33 -167 208 -167q38 0 81 9t62 17 v-143q-68 -28 -161 -28q-158 0 -240.5 72.5t-112.5 239.5q-26 138 -150 171q-66 17 -109 42v159q175 -86 338 -86q132 0 192.5 43t60.5 114q0 63 -58 107t-205 100q-151 58 -212 99.5t-89.5 92.5t-28.5 125z" />
<glyph unicode="&#x240;" horiz-adv-x="934" d="M78 0v115l572 814h-538v136h730v-131l-564 -799q109 -20 173 -91t99 -209q22 -88 78 -127.5t153 -39.5q68 0 131 23v-144q-57 -24 -143 -24q-162 0 -251 69.5t-137 242.5q-25 94 -78 129.5t-156 35.5h-69z" />
<glyph unicode="&#x241;" horiz-adv-x="890" d="M4 1327q73 52 172.5 82t202.5 30q205 0 322.5 -101.5t117.5 -278.5q0 -163 -101 -297t-293 -224v-538h-179v639q175 54 279.5 163.5t104.5 249.5q0 112 -67 170.5t-191 58.5q-72 0 -158.5 -27t-143.5 -70z" />
<glyph unicode="&#x242;" horiz-adv-x="866" d="M24 974q154 110 355 110q198 0 306.5 -98t108.5 -281q0 -161 -97 -294t-276 -216v-195h-175v286q174 54 272 163t98 250q0 241 -244 241q-68 0 -144 -25.5t-139 -72.5z" />
<glyph unicode="&#x243;" horiz-adv-x="1291" d="M30 340v155h163v923h405q285 0 411.5 -85t126.5 -266q0 -126 -69 -208t-201 -106v-10q164 -28 241 -113.5t77 -225.5q0 -191 -130 -297.5t-362 -106.5h-499v340h-163zM372 151h286q170 0 252.5 66t82.5 200q0 127 -87 187.5t-262 60.5h-272v-170h293v-155h-293v-189z M372 815h261q167 0 243 53.5t76 178.5q0 116 -83 167.5t-263 51.5h-234v-451z" />
<glyph unicode="&#x244;" horiz-adv-x="1452" d="M19 703v155h159v560h180v-560h736v560h178v-560h161v-155h-161v-202q0 -243 -146.5 -381.5t-406.5 -138.5q-257 0 -399 140t-142 383v199h-159zM358 499q0 -174 92.5 -269t278.5 -95q176 0 270.5 94t94.5 272v202h-736v-204z" />
<glyph unicode="&#x245;" horiz-adv-x="1207" d="M0 0l508 1418h187l511 -1418h-188l-315 894q-71 201 -104 330q-19 -96 -98 -328l-312 -896h-189z" />
<glyph unicode="&#x246;" horiz-adv-x="1104" d="M193 0v1418h566l24 91h129l-24 -91h98v-157h-138l-113 -442h215v-156h-255l-127 -506h418v-157h-457l-38 -149h-129l38 149h-207zM372 157h67l129 506h-196v-506zM372 819h236l111 442h-347v-442z" />
<glyph unicode="&#x247;" horiz-adv-x="1120" d="M110 525q0 256 127 407.5t343 151.5q30 0 87 -7l152 432h133l-163 -470q109 -55 169.5 -167.5t60.5 -267.5v-105h-417l-119 -344q60 -26 147 -26q85 0 161.5 15t179.5 59v-154q-88 -37 -165.5 -52.5t-183.5 -15.5q-104 0 -191 27l-145 -421h-133l165 477 q-208 139 -208 461zM290 499q4 -175 85 -268l94 268h-179zM294 637h222l104 301l-42 4q-125 0 -198 -80.5t-86 -224.5zM650 637h186q-4 179 -99 255z" />
<glyph unicode="&#x248;" horiz-adv-x="542" d="M-155 -201q69 -19 143 -19q97 0 145.5 58.5t48.5 169.5v616h-163v155h163v639h180v-639h161v-155h-161v-602q0 -192 -95.5 -295.5t-274.5 -103.5q-91 0 -147 26v150z" />
<glyph unicode="&#x249;" horiz-adv-x="512" d="M-110 -312q67 -20 132 -20q76 0 111.5 41.5t35.5 125.5v658h-150v140h150v432h174v-432h150v-140h-150v-652q0 -159 -76 -238.5t-223 -79.5q-92 0 -154 24v141zM155 1353q0 58 29.5 84.5t73.5 26.5q41 0 71.5 -26.5t30.5 -84.5q0 -57 -30.5 -84t-71.5 -27q-44 0 -73.5 27 t-29.5 84z" />
<glyph unicode="&#x24a;" horiz-adv-x="1523" d="M121 711q0 342 158.5 535t441.5 193q139 0 254.5 -53.5t172.5 -149.5h10l30 182h141v-1575q0 -85 28 -124t97 -39q49 0 89 20v-151q-45 -26 -110 -26q-283 0 -283 312v205q0 52 8 142h-10q-55 -93 -166 -147t-271 -54q-181 0 -315 88t-204.5 254t-70.5 388zM307 709 q0 -269 108 -421.5t304 -152.5q153 0 248 44.5t139 133t44 243.5v306q0 156 -44.5 244.5t-140.5 132.5t-248 44q-193 0 -301.5 -150.5t-108.5 -423.5z" />
<glyph unicode="&#x24b;" horiz-adv-x="1222" d="M110 531q0 260 115.5 406.5t322.5 146.5q218 0 332 -164h8l26 145h138v-1208q0 -108 22 -149.5t76 -41.5q62 0 99 22v-133q-40 -32 -138 -32q-233 0 -233 331v124q0 106 10 165h-12q-112 -162 -334 -162q-205 0 -318.5 145.5t-113.5 404.5zM290 527q0 -195 72.5 -298.5 t213.5 -103.5q156 0 228 85.5t76 282.5v36q0 220 -74 315.5t-234 95.5q-136 0 -209 -107.5t-73 -305.5z" />
<glyph unicode="&#x24c;" horiz-adv-x="1235" d="M19 586v151h174v681h391q264 0 390.5 -100.5t126.5 -301.5q0 -283 -284 -381l389 -635h-209l-343 586h-282v-586h-179v586h-174zM372 737h212q173 0 252.5 68t79.5 202t-80.5 195.5t-261.5 61.5h-202v-527z" />
<glyph unicode="&#x24d;" horiz-adv-x="820" d="M19 493v140h150v432h143l20 -195h8q61 106 144 160t181 54q71 0 126 -11l-22 -161q-59 13 -115 13q-114 0 -200.5 -80.5t-106.5 -211.5h247v-140h-251v-493h-174v493h-150z" />
<glyph unicode="&#x24e;" horiz-adv-x="1124" d="M0 1418h195l133 -254h468l136 254h192l-138 -254h119v-155h-203l-250 -459v-550h-180v542l-252 467h-201v155h118zM409 1009l154 -288l152 288h-306z" />
<glyph unicode="&#x24f;" horiz-adv-x="1012" d="M2 1065h187l133 -352h375l127 352h189l-133 -352h113v-141h-167l-272 -719q-67 -177 -159 -253.5t-228 -76.5q-73 0 -145 16v139q49 -12 117 -12q83 0 141.5 46t94.5 142l56 142l-232 576h-180v141h124zM375 572q61 -160 91 -246t42 -157h8q24 103 132 403h-273z" />
<glyph unicode="&#x250;" horiz-adv-x="1114" d="M161 337v726h128l34 -151h7q80 100 159 135t199 35q157 0 246.5 -82.5t89.5 -232.5q0 -324 -511 -339l-181 -7v-63q0 -121 52.5 -179t167.5 -58q85 0 160 25.5t141 56.5l53 -131q-80 -43 -175 -67.5t-188 -24.5q-193 0 -287.5 85.5t-94.5 271.5zM334 542l157 7 q184 7 267.5 58.5t83.5 161.5q0 84 -50.5 128.5t-143.5 44.5q-146 0 -230 -79t-84 -225v-96z" />
<glyph unicode="&#x251;" horiz-adv-x="1222" d="M110 531q0 261 115 407t323 146q214 0 330 -157h8l28 138h138v-1065h-140l-26 143h-8q-112 -162 -332 -162q-207 0 -321.5 143.5t-114.5 406.5zM290 527q0 -198 73 -300t211 -102q159 0 232.5 87t73.5 285v32q0 222 -74.5 316.5t-233.5 94.5q-135 0 -208.5 -107 t-73.5 -306z" />
<glyph unicode="&#x252;" horiz-adv-x="1222" d="M170 0v1065h140l26 -143h8q112 162 332 162q207 0 321.5 -143.5t114.5 -406.5q0 -261 -115 -407t-323 -146q-214 0 -330 157h-8l-28 -138h-138zM342 536q0 -222 74.5 -316.5t233.5 -94.5q135 0 208.5 107t73.5 306q0 198 -73 300t-211 102q-159 0 -232.5 -87t-73.5 -285 v-32z" />
<glyph unicode="&#x253;" horiz-adv-x="1222" d="M169 0v1242q0 278 240 278q67 0 131 -26v-145q-45 20 -103 20q-45 0 -69.5 -26.5t-24.5 -89.5v-110q0 -110 -9 -220h9q108 160 330 160q211 0 325.5 -145.5t114.5 -404.5q0 -264 -116.5 -408t-323.5 -144q-107 0 -191.5 38.5t-138.5 115.5h-13q-30 -117 -36 -135h-125z M343 531q0 -219 71.5 -312.5t233.5 -93.5q144 0 214 105.5t70 303.5q0 202 -70.5 303t-217.5 101q-161 0 -231 -91t-70 -309v-7z" />
<glyph unicode="&#x254;" horiz-adv-x="953" d="M66 1027q47 24 125 40.5t169 16.5q230 0 357 -142t127 -404q0 -270 -129.5 -413.5t-363.5 -143.5q-157 0 -268 57v155q136 -62 271 -62q160 0 234.5 102.5t74.5 302.5q0 192 -77.5 295t-234.5 103q-53 0 -118 -14t-114 -38z" />
<glyph unicode="&#x255;" horiz-adv-x="1054" d="M95 -36q42 122 104 229q-76 129 -76 334q0 267 129.5 412t369.5 145q81 0 156.5 -16.5t123.5 -40.5l-54 -145q-135 50 -230 50q-314 0 -314 -403q0 -102 20 -178q155 153 343 153q138 0 221 -65.5t83 -176.5q0 -129 -96.5 -205t-252.5 -76q-199 0 -320 95 q-42 -79 -73 -173zM394 216q79 -91 226 -91q84 0 135 37.5t51 95.5q0 47 -39 74.5t-111 27.5q-147 0 -262 -144z" />
<glyph unicode="&#x256;" horiz-adv-x="1222" d="M110 531q0 261 115 407t323 146q214 0 330 -157h12q-2 20 -7 78.5t-5 78.5v425h174v-1652q0 -102 24 -146.5t90 -44.5q71 0 113 22v-133q-45 -32 -151 -32q-250 0 -250 331v127q0 23 5 80.5t7 75.5h-12q-115 -156 -330 -156q-208 0 -323 144.5t-115 405.5zM290 527 q0 -198 73 -300t211 -102q159 0 232.5 87t73.5 285v32q0 222 -74.5 316.5t-233.5 94.5q-135 0 -208.5 -107t-73.5 -306z" />
<glyph unicode="&#x257;" horiz-adv-x="1222" d="M110 531q0 261 115 407t323 146q214 0 330 -157h12q-2 20 -7 78.5t-5 78.5v158q0 278 240 278q70 0 131 -26v-145q-45 20 -102 20q-46 0 -70.5 -26.5t-24.5 -89.5v-1253h-140l-26 143h-8q-112 -162 -332 -162q-207 0 -321.5 143.5t-114.5 406.5zM290 527q0 -198 73 -300 t211 -102q159 0 232.5 87t73.5 285v32q0 222 -74.5 316.5t-233.5 94.5q-135 0 -208.5 -107t-73.5 -306z" />
<glyph unicode="&#x258;" horiz-adv-x="1120" d="M101 499h729q-5 -182 -92 -276t-248 -94q-85 0 -161.5 15t-179.5 59v-154q88 -37 165.5 -52.5t183.5 -15.5q240 0 376 145t136 399q0 256 -127 407.5t-343 151.5q-201 0 -320 -129.5t-119 -350.5v-105zM284 637q2 150 69 227.5t189 77.5q125 0 198 -80.5t86 -224.5h-542z " />
<glyph unicode="&#x259;" horiz-adv-x="1120" d="M101 461v105h729q-5 181 -92 275.5t-247 94.5q-86 0 -162.5 -15t-179.5 -59v154q89 37 166.5 52.5t183.5 15.5q240 0 376 -145t136 -399q0 -256 -127 -407.5t-344 -151.5q-200 0 -319.5 129.5t-119.5 350.5zM284 427q2 -147 68 -225.5t190 -78.5q125 0 198 80.5t86 223.5 h-542z" />
<glyph unicode="&#x25a;" horiz-adv-x="1516" d="M101 461v16l718 194q-27 129 -110 197t-218 68q-86 0 -162.5 -15t-179.5 -59v154q89 37 166.5 52.5t183.5 15.5q190 0 319 -95.5t171 -269.5l169 45l34 -118q22 -82 52.5 -118.5t74.5 -36.5q80 0 161 53l36 -131q-111 -75 -231 -75q-177 0 -250 250l-26 -6l2 -20v-22 q0 -256 -127 -407.5t-344 -151.5q-200 0 -319.5 129.5t-119.5 350.5zM286 385q11 -126 76.5 -194t179.5 -68q89 0 154.5 43.5t99.5 125t34 241.5z" />
<glyph unicode="&#x25b;" horiz-adv-x="959" d="M85 290q0 96 55 159.5t182 100.5v11q-96 27 -147.5 89t-51.5 152q0 131 112 206.5t298 75.5q107 0 191 -17.5t168 -57.5l-66 -139q-96 43 -160 56.5t-135 13.5q-241 0 -241 -151q0 -163 304 -163h111v-143h-144q-301 0 -301 -183q0 -87 72 -132t210 -45q83 0 166 19 t180 65v-154q-135 -72 -355 -72q-214 0 -331 82.5t-117 226.5z" />
<glyph unicode="&#x25c;" horiz-adv-x="973" d="M66 49v158q177 -84 361 -84q137 0 210.5 45.5t73.5 135.5q0 91 -74.5 135t-229.5 44h-143v143h115q302 0 302 163q0 151 -242 151q-76 0 -142 -14.5t-158 -53.5l-61 139q165 73 371 73q187 0 293 -74.5t106 -205.5q0 -181 -200 -236v-7q121 -35 178.5 -101t57.5 -166 q0 -147 -121.5 -230t-333.5 -83q-235 0 -363 68z" />
<glyph unicode="&#x25d;" horiz-adv-x="1291" d="M66 49v158q177 -84 361 -84q137 0 210.5 45.5t73.5 135.5q0 91 -74.5 135t-229.5 44h-143v143h115q302 0 302 163q0 151 -242 151q-76 0 -142 -14.5t-158 -53.5l-61 139q165 73 371 73q141 0 238 -44t137 -126l108 30l33 -120q22 -82 52.5 -118.5t74.5 -36.5q77 0 161 54 l38 -129q-47 -33 -108 -55.5t-122 -22.5q-163 0 -237 179q-45 -92 -176 -127v-7q121 -35 178.5 -101t57.5 -166q0 -147 -121.5 -230t-333.5 -83q-235 0 -363 68z" />
<glyph unicode="&#x25e;" horiz-adv-x="1192" d="M110 534q0 263 139.5 406.5t394.5 143.5q198 0 310.5 -74t112.5 -206q0 -180 -201 -236v-7q123 -35 180 -101t57 -166q0 -146 -123 -229.5t-343 -83.5q-251 0 -389 143.5t-138 409.5zM290 534q0 -207 84.5 -308t267.5 -101q287 0 287 179q0 91 -74.5 135t-228.5 44h-84 v143h56q302 0 302 163q0 149 -261 149q-177 0 -263 -101t-86 -303z" />
<glyph unicode="&#x25f;" horiz-adv-x="512" d="M-110 -312q67 -20 132 -20q76 0 111.5 41.5t35.5 125.5v658h-150v140h150v432h174v-432h150v-140h-150v-652q0 -159 -76 -238.5t-223 -79.5q-92 0 -154 24v141z" />
<glyph unicode="&#x260;" horiz-adv-x="1222" d="M108 531q0 257 116.5 405t319.5 148q216 0 334 -161h12q-12 114 -12 176v143q0 278 242 278q68 0 129 -26v-145q-45 20 -102 20q-96 0 -96 -116v-1270q0 -229 -116 -344.5t-361 -115.5q-233 0 -383 68v161q155 -84 393 -84q136 0 215 79.5t79 220.5v42l6 131h-8 q-108 -160 -330 -160q-206 0 -322 144t-116 406zM288 529q0 -198 71.5 -302t212.5 -104q161 0 234.5 87t73.5 279v42q0 213 -74 310t-238 97q-133 0 -206.5 -106t-73.5 -303z" />
<glyph unicode="&#x261;" horiz-adv-x="1222" d="M110 531q0 257 116.5 405t319.5 148q216 0 334 -161h10l24 142h138v-1082q0 -229 -115.5 -344.5t-360.5 -115.5q-233 0 -383 68v161q155 -84 393 -84q136 0 215 79.5t79 220.5v42l6 131h-8q-108 -160 -330 -160q-207 0 -322.5 144t-115.5 406zM290 529q0 -198 71.5 -302 t212.5 -104q161 0 234.5 87t73.5 279v42q0 213 -74 310t-238 97q-134 0 -207 -106t-73 -303z" />
<glyph unicode="&#x262;" horiz-adv-x="1140" d="M110 527q0 267 141 412t391 145q220 0 340 -71l-64 -151q-142 70 -266 70q-362 0 -362 -403q0 -193 76.5 -295.5t227.5 -102.5q127 0 229 28v292h-229v141h403v-537q-116 -41 -207.5 -57.5t-193.5 -16.5q-230 0 -358 141t-128 405z" />
<glyph unicode="&#x263;" horiz-adv-x="1008" d="M0 1065h187l202 -479q58 -137 78.5 -194t31.5 -102h7q9 32 26.5 77.5t38.5 99t252 598.5h186l-407 -908q79 -154 104 -235t25 -148q0 -108 -64.5 -177t-164.5 -69q-102 0 -164.5 69t-62.5 177q0 77 27.5 162t101.5 221zM429 -220q0 -57 21.5 -82.5t51.5 -25.5 q31 0 52.5 24.5t21.5 81.5q0 48 -20 111.5t-54 120.5q-34 -58 -53.5 -120t-19.5 -110z" />
<glyph unicode="&#x264;" horiz-adv-x="1008" d="M-6 932v129q45 23 101 23q51 0 85 -19.5t72 -73.5q189 -261 211.5 -296t35.5 -67h7q32 58 98 155l151 208q37 53 72.5 73t84.5 20q57 0 101 -23v-129q-36 10 -59 10q-45 0 -78 -46l-280 -377q135 -185 135 -314q0 -100 -62 -161t-167 -61q-104 0 -165.5 61t-61.5 163 q0 69 27 136.5t107 175.5l-274 371q-37 52 -82 52q-23 0 -59 -10zM429 216q0 -47 21.5 -68t51.5 -21q31 0 52.5 20t21.5 67q0 86 -74 186q-73 -104 -73 -184z" />
<glyph unicode="&#x265;" horiz-adv-x="1228" d="M161 372v693h173v-682q0 -129 57.5 -192.5t180.5 -63.5q162 0 237 89.5t75 297.5v551h175v-1542h-175v475q0 82 10 149h-12q-49 -78 -135.5 -121t-196.5 -43q-199 0 -294 94.5t-95 294.5z" />
<glyph unicode="&#x266;" horiz-adv-x="1228" d="M169 0v1242q0 278 242 278q65 0 129 -26v-145q-45 20 -103 20q-45 0 -69.5 -26.5t-24.5 -89.5v-186q0 -87 -9 -149h11q48 77 135 121t197 44q194 0 292 -93t98 -296v-694h-173v681q0 130 -57.5 193.5t-180.5 63.5q-162 0 -237.5 -90t-75.5 -298v-550h-174z" />
<glyph unicode="&#x267;" horiz-adv-x="1228" d="M169 0v1242q0 278 242 278q65 0 129 -26v-145q-45 20 -103 20q-45 0 -69.5 -26.5t-24.5 -89.5v-186q0 -87 -9 -149h11q48 77 135 121t197 44q194 0 292 -93t98 -296v-893q0 -278 -241 -278q-65 0 -129 26v145q41 -20 103 -20q46 0 70 26t24 90v891q0 130 -57.5 193.5 t-180.5 63.5q-162 0 -237.5 -90t-75.5 -298v-550h-174z" />
<glyph unicode="&#x268;" horiz-adv-x="512" d="M19 493v140h150v432h174v-432h150v-140h-150v-493h-174v493h-150zM155 1353q0 58 29.5 84.5t73.5 26.5q41 0 71.5 -26.5t30.5 -84.5q0 -57 -30.5 -84t-71.5 -27q-44 0 -73.5 27t-29.5 84z" />
<glyph unicode="&#x269;" horiz-adv-x="687" d="M163 312v753h173v-751q0 -96 35.5 -143.5t117.5 -47.5q43 0 90.5 7.5t72.5 15.5v-134q-26 -12 -80.5 -21.5t-106.5 -9.5q-159 0 -230.5 82.5t-71.5 248.5z" />
<glyph unicode="&#x26a;" horiz-adv-x="635" d="M72 0v103l159 34v788l-159 36v104h493v-104l-160 -36v-788l160 -34v-103h-493z" />
<glyph unicode="&#x26b;" horiz-adv-x="750" d="M10 637q12 119 68 187t151 68q25 0 59 -10v627h175v-713q41 -17 70 -17q46 0 70 28.5t39 86.5h99q-12 -119 -68.5 -187t-147.5 -68q-28 0 -62 11v-650h-175v735q-42 18 -68 18q-47 0 -71 -29t-37 -87h-102z" />
<glyph unicode="&#x26c;" horiz-adv-x="695" d="M-19 798q0 96 55.5 151.5t156.5 55.5q63 0 101 -36v540h175v-776h206v-143h-206v-590h-175v590h-84q-112 0 -170.5 53.5t-58.5 154.5zM139 798q0 -65 85 -65h70v22q0 107 -85 107q-39 0 -54.5 -19.5t-15.5 -44.5z" />
<glyph unicode="&#x26d;" horiz-adv-x="510" d="M169 -146v1655h172v-1652q0 -97 36 -144t118 -47q72 0 135 22v-133q-66 -32 -160 -32q-159 0 -230 82.5t-71 248.5z" />
<glyph unicode="&#x26e;" horiz-adv-x="1305" d="M169 0v1509h174v-444h841v-127l-435 -485q228 -16 358.5 -136t130.5 -315q0 -140 -65 -249t-186 -169.5t-276 -60.5q-232 0 -368 70v159q178 -84 376 -84q157 0 250.5 90.5t93.5 239.5q0 152 -101 234t-300 82h-118v122l436 482h-637v-918h-174z" />
<glyph unicode="&#x26f;" horiz-adv-x="1857" d="M161 371v694h173v-686q0 -252 216 -252q149 0 219 86.5t70 263.5v588h173v-686q0 -126 53 -189t165 -63q148 0 216.5 90t68.5 296v552h174v-1065h-140l-27 145h-9q-46 -77 -129 -120.5t-186 -43.5q-250 0 -326 178h-9q-52 -85 -140.5 -131.5t-201.5 -46.5q-180 0 -270 93 t-90 297z" />
<glyph unicode="&#x270;" horiz-adv-x="1857" d="M161 372v693h173v-686q0 -252 216 -252q147 0 217.5 85t70.5 265v588h173v-686q0 -126 53 -189t166 -63q147 0 215.5 90.5t68.5 294.5v553h175v-1542h-175v465q0 15 4.5 82.5t7.5 75.5h-14q-48 -81 -130.5 -123t-183.5 -42q-250 0 -326 178h-10q-51 -85 -140 -131.5 t-201 -46.5q-181 0 -270.5 92.5t-89.5 298.5z" />
<glyph unicode="&#x271;" horiz-adv-x="1857" d="M169 0v1065h140l27 -145h9q46 77 129 120.5t186 43.5q250 0 326 -178h9q52 85 140.5 131.5t201.5 46.5q180 0 270 -93t90 -297v-893q0 -278 -241 -278q-65 0 -129 26v145q41 -20 104 -20q93 0 93 116v896q0 252 -216 252q-149 0 -219 -86.5t-70 -263.5v-588h-173v686 q0 126 -53 189t-165 63q-148 0 -216.5 -90t-68.5 -296v-552h-174z" />
<glyph unicode="&#x272;" horiz-adv-x="1228" d="M-57 -312q45 -22 103 -22q69 0 96 43.5t27 147.5v1208h140l27 -145h9q50 78 139 121t197 43q196 0 291 -95t95 -295v-694h-173v681q0 130 -57.5 193.5t-180.5 63.5q-164 0 -238.5 -90.5t-74.5 -295.5v-698q0 -331 -262 -331q-90 0 -138 32v133z" />
<glyph unicode="&#x273;" horiz-adv-x="1228" d="M169 0v1065h140l27 -145h9q50 78 139 121t197 43q196 0 291 -95t95 -295v-837q0 -102 25.5 -146.5t95.5 -44.5q27 0 58 7t47 15v-133q-20 -14 -58.5 -23t-80.5 -9q-133 0 -196.5 84t-63.5 247v827q0 130 -57.5 193.5t-180.5 63.5q-164 0 -238.5 -90.5t-74.5 -295.5v-552 h-174z" />
<glyph unicode="&#x274;" horiz-adv-x="1255" d="M169 0v1065h214l551 -858q-2 25 -7 114.5t-5 127.5v616h164v-1065h-216l-544 857q8 -156 8 -263v-594h-165z" />
<glyph unicode="&#x275;" horiz-adv-x="1201" d="M110 534q0 260 130 405t364 145q225 0 357.5 -147.5t132.5 -402.5q0 -260 -132 -406.5t-364 -146.5q-145 0 -256.5 67t-171.5 193.5t-60 292.5zM290 474q17 -349 312 -349q152 0 225.5 89.5t84.5 259.5h-622zM292 620h620q-29 318 -313 318q-147 0 -220 -80.5t-87 -237.5 z" />
<glyph unicode="&#x276;" horiz-adv-x="1715" d="M110 534q0 260 130 405t364 145q187 0 310 -129v110h699v-145h-534v-292h502v-145h-502v-337h534v-146h-699v108q-125 -127 -316 -127q-145 0 -256.5 67t-171.5 193.5t-60 292.5zM290 534q0 -200 79 -304.5t233 -104.5q153 0 232.5 104.5t79.5 304.5q0 201 -80 302.5 t-235 101.5q-140 0 -224.5 -109.5t-84.5 -294.5z" />
<glyph unicode="&#x277;" horiz-adv-x="1553" d="M112 451q0 300 174 466.5t495 166.5q312 0 486.5 -168t174.5 -465q0 -219 -100 -344.5t-279 -125.5q-215 0 -282 178h-10q-63 -178 -280 -178q-178 0 -278.5 125.5t-100.5 344.5zM286 455q0 -156 57.5 -243t158.5 -87q93 0 142.5 69t49.5 189v261h166v-261 q0 -124 49 -191t140 -67q100 0 159.5 83.5t59.5 246.5q0 233 -126.5 359t-360.5 126q-236 0 -365.5 -126.5t-129.5 -358.5z" />
<glyph unicode="&#x278;" horiz-adv-x="1440" d="M108 533q0 242 139.5 385t391.5 163v428h165v-428q246 -25 386.5 -170.5t140.5 -377.5q0 -238 -139.5 -383.5t-387.5 -165.5v-461h-171v461q-244 21 -384.5 166.5t-140.5 382.5zM290 533q0 -370 349 -406v809q-182 -18 -265.5 -120.5t-83.5 -282.5zM804 127 q346 38 346 406q0 363 -346 401v-807z" />
<glyph unicode="&#x279;" horiz-adv-x="820" d="M30 -8l22 161q59 -13 115 -13q85 0 157 46.5t113 128.5t41 182v568h174v-1065h-143l-20 195h-8q-61 -106 -144 -160t-181 -54q-71 0 -126 11z" />
<glyph unicode="&#x27a;" horiz-adv-x="820" d="M30 -8l21 161q63 -14 116 -14q84 0 156 46.5t113 129t41 182.5v1012h175v-1509h-144l-19 195h-8q-60 -104 -144.5 -159t-181.5 -55q-71 0 -125 11z" />
<glyph unicode="&#x27b;" horiz-adv-x="820" d="M30 -8l21 161q63 -14 116 -14q84 0 156 46.5t113 129t41 182.5v568h175v-1208q0 -104 24.5 -147.5t87.5 -43.5q74 0 114 22v-133q-46 -32 -152 -32q-249 0 -249 331v184q0 14 4.5 81.5t7.5 75.5h-8q-60 -104 -144.5 -159t-181.5 -55q-71 0 -125 11z" />
<glyph unicode="&#x27c;" horiz-adv-x="820" d="M169 -477v1542h143l20 -195h8q61 106 144 160t181 54q71 0 126 -11l-22 -161q-59 13 -115 13q-85 0 -157 -46.5t-113 -128.5t-41 -182v-1045h-174z" />
<glyph unicode="&#x27d;" horiz-adv-x="820" d="M169 -146v1211h143l20 -195h8q61 106 144 160t181 54q71 0 126 -11l-22 -161q-59 13 -115 13q-85 0 -157 -46.5t-113 -128.5t-41 -182v-711q0 -97 35 -144t117 -47q59 0 121 22v-133q-66 -32 -146 -32q-159 0 -230 82.5t-71 248.5z" />
<glyph unicode="&#x27e;" horiz-adv-x="687" d="M163 0v753q0 169 74.5 250t243.5 81q80 0 171 -32l-22 -148q-26 8 -63.5 19t-92.5 11q-70 0 -104 -43.5t-34 -139.5v-751h-173z" />
<glyph unicode="&#x27f;" horiz-adv-x="687" d="M36 1052q91 32 171 32q167 0 242.5 -81t75.5 -250v-1230h-174v1228q0 96 -34.5 139.5t-104.5 43.5q-54 0 -92 -11t-63 -19z" />
<glyph unicode="&#x280;" horiz-adv-x="1110" d="M169 0v1065h477q178 0 277.5 -83.5t99.5 -230.5q0 -117 -63 -195t-185 -109l304 -447h-203l-274 423h-259v-423h-174zM343 568h251q261 0 261 181q0 82 -57.5 126.5t-169.5 44.5h-285v-352z" />
<glyph unicode="&#x281;" horiz-adv-x="1110" d="M169 0h477q178 0 277.5 83.5t99.5 230.5q0 117 -63 195t-185 109l304 447h-203l-274 -423h-259v423h-174v-1065zM343 145v352h251q261 0 261 -181q0 -82 -57.5 -126.5t-169.5 -44.5h-285z" />
<glyph unicode="&#x282;" horiz-adv-x="951" d="M101 802q0 131 106.5 206.5t293.5 75.5q181 0 339 -71l-59 -139q-162 68 -292 68q-109 0 -165 -34.5t-56 -94.5q0 -58 48.5 -96.5t225.5 -106.5q133 -49 196.5 -92t93.5 -96t30 -128q0 -149 -111.5 -231t-313.5 -82q-91 0 -159 11v-135q0 -97 35 -144t116 -47 q59 0 121 22v-133q-66 -32 -145 -32q-158 0 -230 82t-72 249v353q175 -86 338 -86q132 0 192.5 43t60.5 114q0 63 -58 107t-205 100q-151 58 -212 99.5t-89.5 92.5t-28.5 125z" />
<glyph unicode="&#x283;" horiz-adv-x="512" d="M-57 -312q45 -22 103 -22q69 0 96 43.5t27 147.5v1331q0 332 262 332q89 0 139 -32v-133q-16 8 -46 14.5t-57 6.5q-70 0 -97 -43t-27 -147v-1332q0 -331 -262 -331q-90 0 -138 32v133z" />
<glyph unicode="&#x284;" horiz-adv-x="512" d="M-57 -312q45 -22 103 -22q69 0 96 43.5t27 147.5v636h-150v140h150v555q0 332 262 332q89 0 139 -32v-133q-16 8 -46 14.5t-57 6.5q-70 0 -97 -43t-27 -147v-553h150v-140h-150v-639q0 -331 -262 -331q-90 0 -138 32v133z" />
<glyph unicode="&#x285;" horiz-adv-x="512" d="M-28 920v132q45 32 129 32q121 0 181.5 -79t60.5 -232v-916q0 -104 26.5 -147.5t97.5 -43.5q27 0 57 7t46 15v-133q-50 -32 -139 -32q-262 0 -262 331v910q0 97 -27.5 137.5t-80.5 40.5q-45 0 -89 -22z" />
<glyph unicode="&#x286;" horiz-adv-x="512" d="M-218 -242q0 119 72.5 180.5t215.5 61.5h99v1188q0 332 262 332q89 0 139 -32v-133q-16 8 -46 14.5t-57 6.5q-70 0 -97 -43t-27 -147v-1186h150v-143h-150q-3 -165 -70.5 -249.5t-206.5 -84.5q-128 0 -206 65.5t-78 169.5zM-53 -239q0 -95 104 -95q64 0 90 41.5t28 149.5 h-88q-134 0 -134 -96z" />
<glyph unicode="&#x287;" horiz-adv-x="716" d="M44 1164v133q30 13 81 22.5t97 9.5q312 0 312 -330v-620h152v-83l-153 -70l-70 -226h-103v244h-309v135h309v616q0 89 -43.5 140t-123.5 51q-77 0 -149 -22z" />
<glyph unicode="&#x288;" horiz-adv-x="716" d="M32 929v84l152 70l70 227h104v-245h307v-136h-307v-1072q0 -92 44 -141.5t123 -49.5q93 0 148 22v-133q-28 -13 -77.5 -22.5t-100.5 -9.5q-313 0 -313 330v1076h-150z" />
<glyph unicode="&#x289;" horiz-adv-x="1228" d="M19 502v142h138v421h177v-421h550v421h175v-421h149v-142h-149v-502h-143l-26 141h-8q-48 -77 -135 -118.5t-203 -41.5q-192 0 -289.5 92t-97.5 295v134h-138zM334 379q0 -129 57.5 -191.5t178.5 -62.5q159 0 235.5 88.5t78.5 288.5h-550v-123z" />
<glyph unicode="&#x28a;" horiz-adv-x="1201" d="M59 920v145h470v-138q-108 -48 -173.5 -170.5t-65.5 -275.5q0 -171 80 -263.5t232 -92.5q150 0 231 92.5t81 265.5q0 145 -70 273t-171 171v138h470v-145h-259q210 -167 210 -437q0 -234 -133 -368t-363 -134q-142 0 -253.5 61.5t-173 175.5t-61.5 263q0 148 52.5 254.5 t155.5 184.5h-259z" />
<glyph unicode="&#x28b;" horiz-adv-x="1217" d="M161 461v604h175v-598q0 -185 63.5 -263.5t212.5 -78.5t212.5 80.5t63.5 261.5v284q0 105 -30 144t-107 39q-56 0 -114 -18v149q68 19 125 19q162 0 231.5 -78t69.5 -249v-296q0 -241 -111 -360.5t-340 -119.5q-235 0 -343 115.5t-108 364.5z" />
<glyph unicode="&#x28c;" horiz-adv-x="1008" d="M0 0l405 1065h201l403 -1065h-186l-227 628q-68 193 -86 282h-8q-4 -26 -18.5 -72.5t-34.5 -106.5t-262 -731h-187z" />
<glyph unicode="&#x28d;" horiz-adv-x="1561" d="M22 0l296 1065h205l182 -600q30 -98 74 -283h8q38 183 71 285l191 598h198l292 -1065h-180l-147 568q-44 177 -54 228t-15 90h-9q-28 -142 -71 -287l-189 -599h-190q-121 397 -183 598t-72 286h-8q-5 -37 -23.5 -119.5t-196.5 -764.5h-179z" />
<glyph unicode="&#x28e;" horiz-adv-x="1012" d="M0 0l459 1194q65 173 157 249.5t230 76.5q84 0 145 -16v-139q-51 11 -117 11q-91 0 -147.5 -49.5t-89.5 -134.5l-55 -140l429 -1052h-187l-230 596q-70 183 -90 284h-7q-26 -103 -92 -286l-216 -594h-189z" />
<glyph unicode="&#x28f;" horiz-adv-x="941" d="M0 1065h199l273 -481l273 481h197l-381 -626v-439h-176v439z" />
<glyph unicode="&#x290;" horiz-adv-x="934" d="M78 0v115l572 814h-538v136h730v-131l-564 -799h579v-278q0 -102 25.5 -146.5t95.5 -44.5q22 0 54.5 6.5t50.5 15.5v-133q-22 -14 -59.5 -23t-79.5 -9q-131 0 -191.5 83t-60.5 248v146h-614z" />
<glyph unicode="&#x291;" horiz-adv-x="1076" d="M78 0v115l572 814h-538v136h730v-131l-564 -799h165q87 171 176 243.5t204 72.5q101 0 167.5 -60.5t66.5 -146.5q0 -244 -328 -244h-193q-29 -58 -71 -173l-133 56l47 117h-301zM602 135h137q153 0 153 106q0 28 -21 51.5t-65 23.5q-53 0 -102 -43.5t-102 -137.5z" />
<glyph unicode="&#x292;" horiz-adv-x="989" d="M28 -248q178 -84 376 -84q157 0 250 90t93 240q0 152 -101 234t-301 82h-116v122l434 482h-608v147h813v-127l-435 -485q228 -16 358.5 -136t130.5 -315q0 -140 -65 -249.5t-186 -169.5t-275 -60q-232 0 -368 70v159z" />
<glyph unicode="&#x293;" horiz-adv-x="989" d="M-40 -195q0 111 90 177t240 66q229 0 443 -145q14 52 14 95q0 152 -101 234t-301 82h-116v122l434 482h-608v147h813v-127l-435 -485q228 -16 358.5 -136t130.5 -315q0 -114 -50 -211q99 -97 151 -161l-113 -107q-77 87 -137 143q-164 -143 -430 -143q-107 0 -195 34 t-138 97.5t-50 150.5zM125 -199q0 -60 60 -96.5t158 -36.5q194 0 307 103q-176 132 -356 132q-81 0 -125 -27.5t-44 -74.5z" />
<glyph unicode="&#x294;" horiz-adv-x="845" d="M24 1408q152 112 355 112q199 0 307 -99t108 -280q0 -162 -96.5 -294.5t-276.5 -216.5v-630h-175v721q170 52 270 160.5t100 252.5q0 240 -244 240q-69 0 -145.5 -26t-137.5 -71z" />
<glyph unicode="&#x295;" horiz-adv-x="845" d="M52 1141q0 -162 96.5 -294.5t276.5 -216.5v-630h175v721q-170 52 -270 160.5t-100 252.5q0 240 244 240q69 0 145.5 -26t137.5 -71l65 131q-152 112 -355 112q-199 0 -307 -99t-108 -280z" />
<glyph unicode="&#x296;" horiz-adv-x="845" d="M24 91l65 131q60 -44 137.5 -70.5t145.5 -26.5q244 0 244 241q0 141 -97.5 249.5t-272.5 163.5v730h175v-639q179 -83 276 -216t97 -294q0 -183 -108.5 -281t-306.5 -98q-201 0 -355 110z" />
<glyph unicode="&#x297;" horiz-adv-x="932" d="M110 296q0 390 124 589t374 199q78 0 154 -16t126 -41l-54 -145q-135 50 -230 50q-161 0 -237.5 -156.5t-76.5 -475.5q0 -321 71.5 -472.5t232.5 -151.5q140 0 276 62v-155q-110 -57 -274 -57q-247 0 -366.5 187t-119.5 583z" />
<glyph unicode="&#x298;" horiz-adv-x="1551" d="M121 713q0 346 170.5 536.5t487.5 190.5q308 0 480 -193.5t172 -535.5q0 -340 -172.5 -535t-481.5 -195q-313 0 -484.5 191.5t-171.5 540.5zM309 711q0 -281 119.5 -428.5t348.5 -147.5q228 0 346.5 145.5t118.5 430.5q0 284 -117.5 428t-345.5 144q-231 0 -350.5 -146 t-119.5 -426zM653 701q0 63 31.5 99t89.5 36q60 0 92.5 -36.5t32.5 -98.5t-33 -98.5t-92 -36.5q-57 0 -89 36t-32 99z" />
<glyph unicode="&#x299;" horiz-adv-x="1144" d="M169 0v1065h477q399 0 399 -269q0 -102 -58.5 -156t-165.5 -74v-8q134 -19 196 -80.5t62 -165.5q0 -151 -111 -231.5t-320 -80.5h-479zM343 141h290q271 0 271 181q0 89 -70 125t-204 36h-287v-342zM343 628h267q143 0 203.5 35t60.5 118q0 75 -57.5 107t-174.5 32h-299 v-292z" />
<glyph unicode="&#x29a;" horiz-adv-x="1192" d="M89 294q0 100 57 165.5t180 101.5v7q-201 56 -201 236q0 132 112.5 206t310.5 74q256 0 395.5 -144t139.5 -406q0 -266 -139.5 -409.5t-389.5 -143.5q-218 0 -341.5 83.5t-123.5 229.5zM262 304q0 -179 288 -179q183 0 267.5 101t84.5 308q0 202 -86 303t-264 101 q-260 0 -260 -149q0 -163 302 -163h56v-143h-84q-304 0 -304 -179z" />
<glyph unicode="&#x29b;" horiz-adv-x="1140" d="M110 527q0 267 141 412t391 145q105 0 188 -17v186q0 128 53.5 197.5t175.5 69.5q57 0 119 -26v-145q-46 20 -103 20q-93 0 -93 -95v-261l-64 -151q-142 70 -266 70q-362 0 -362 -403q0 -193 76.5 -295.5t227.5 -102.5q127 0 229 28v292h-229v141h403v-537 q-116 -41 -207.5 -57.5t-193.5 -16.5q-230 0 -358 141t-128 405z" />
<glyph unicode="&#x29c;" horiz-adv-x="1265" d="M169 0v1065h174v-443h579v443h174v-1065h-174v474h-579v-474h-174z" />
<glyph unicode="&#x29d;" horiz-adv-x="512" d="M-189 -242q0 118 69.5 180t202.5 62h86v1065h174v-1065h150v-143h-150q-3 -168 -68 -251t-195 -83q-119 0 -194 64.5t-75 170.5zM-24 -239q0 -95 92 -95q55 0 77 42t24 149h-76q-117 0 -117 -96zM155 1353q0 58 29.5 84.5t73.5 26.5q41 0 71.5 -26.5t30.5 -84.5 q0 -57 -30.5 -84t-71.5 -27q-44 0 -73.5 27t-29.5 84z" />
<glyph unicode="&#x29e;" horiz-adv-x="1061" d="M17 1065h212l369 -497l121 105v392h173v-1542h-173v820l9 173h-9q-77 -102 -127 -156l-340 -360h-204l431 455z" />
<glyph unicode="&#x29f;" horiz-adv-x="864" d="M169 0v1065h174v-919h485v-146h-659z" />
<glyph unicode="&#x2a0;" horiz-adv-x="1222" d="M110 531q0 261 115 407t323 146q214 0 330 -157h12q-2 20 -7 78.5t-5 78.5v104q0 332 250 332q106 0 151 -32v-133q-42 21 -113 21q-66 0 -90 -44t-24 -146v-1663h-174v458q0 23 5 80.5t7 75.5h-12q-115 -156 -330 -156q-208 0 -323 144.5t-115 405.5zM290 527 q0 -198 73 -300t211 -102q159 0 232.5 87t73.5 285v32q0 222 -74.5 316.5t-233.5 94.5q-135 0 -208.5 -107t-73.5 -306z" />
<glyph unicode="&#x2a1;" horiz-adv-x="845" d="M24 1408q152 112 355 112q199 0 307 -99t108 -280q0 -157 -92.5 -292t-260.5 -219v-160h215v-144h-215v-326h-175v326h-181v144h181v251q161 54 255.5 163.5t94.5 249.5q0 240 -244 240q-69 0 -145.5 -26t-137.5 -71z" />
<glyph unicode="&#x2a2;" horiz-adv-x="845" d="M51 1141q0 181 109 280t307 99q204 0 356 -112l-66 -131q-61 45 -138 71t-145 26q-243 0 -243 -240q0 -141 95.5 -250.5t253.5 -162.5v-251h180v-144h-180v-326h-175v326h-214v144h214v160q-169 86 -261.5 220t-92.5 291z" />
<glyph unicode="&#x2a3;" horiz-adv-x="1907" d="M110 531q0 261 115 407t323 146q214 0 330 -157h12q-2 20 -7 78.5t-5 78.5v425h174v-444h764v-131l-565 -799h578v-135h-917l-26 143h-8q-112 -162 -332 -162q-207 0 -321.5 143.5t-114.5 406.5zM290 527q0 -198 73 -300t211 -102q159 0 232.5 87t73.5 285v32 q0 222 -74.5 316.5t-233.5 94.5q-135 0 -208.5 -107t-73.5 -306zM1052 117l571 812h-571v-812z" />
<glyph unicode="&#x2a4;" horiz-adv-x="1948" d="M110 531q0 261 115 407t323 146q214 0 330 -157h12q-2 20 -7 78.5t-5 78.5v425h174v-444h775v-127l-434 -485q228 -16 358 -136t130 -315q0 -140 -65 -249.5t-186 -169.5t-275 -60q-232 0 -368 70v159q178 -84 376 -84q157 0 250 90t93 240q0 152 -101 234t-299 82h-118 v122l435 482h-571v-918h-140l-26 143h-8q-112 -162 -332 -162q-207 0 -321.5 143.5t-114.5 406.5zM290 527q0 -198 73 -300t211 -102q159 0 232.5 87t73.5 285v32q0 222 -74.5 316.5t-233.5 94.5q-135 0 -208.5 -107t-73.5 -306z" />
<glyph unicode="&#x2a5;" horiz-adv-x="2050" d="M110 531q0 261 115 407t323 146q214 0 330 -157h12q-2 20 -7 78.5t-5 78.5v425h174v-444h764v-131l-565 -799h165q85 167 174.5 241.5t204.5 74.5q102 0 168.5 -60.5t66.5 -146.5q0 -244 -328 -244h-193q-38 -81 -70 -173l-133 56q29 77 47 117h-441l-26 143h-8 q-112 -162 -332 -162q-207 0 -321.5 143.5t-114.5 406.5zM290 527q0 -198 73 -300t211 -102q159 0 232.5 87t73.5 285v32q0 222 -74.5 316.5t-233.5 94.5q-135 0 -208.5 -107t-73.5 -306zM1052 117l571 812h-571v-812zM1575 135h137q153 0 153 106q0 28 -21 51.5t-64 23.5 q-54 0 -103 -43.5t-102 -137.5z" />
<glyph unicode="&#x2a6;" horiz-adv-x="1507" d="M32 929v84l152 70l70 227h104v-245h532q82 19 167 19q180 0 340 -71l-60 -139q-162 68 -292 68q-108 0 -164.5 -34.5t-56.5 -94.5q0 -58 49 -96.5t226 -106.5q184 -69 251.5 -138.5t67.5 -177.5q0 -146 -108.5 -220t-316.5 -74h-498q-313 0 -313 330v599h-150zM358 334 q0 -97 46.5 -144t120.5 -47h472q133 0 192.5 31.5t59.5 103.5q0 62 -56 106t-206 101q-150 58 -211 99.5t-89.5 92.5t-28.5 125q0 69 32 127h-332v-595z" />
<glyph unicode="&#x2a7;" horiz-adv-x="1010" d="M32 929v84l152 70l70 227h104v-245h309v123q0 332 262 332q89 0 140 -32v-133q-17 8 -47 14.5t-57 6.5q-70 0 -96.5 -43t-26.5 -147v-1332q0 -331 -262 -331q-90 0 -139 32v133q46 -22 103 -22q70 0 96.5 43.5t26.5 147.5v151q-24 -10 -73.5 -18.5t-98.5 -8.5 q-313 0 -313 328v620h-150zM358 314q0 -92 44 -141.5t123 -49.5q82 0 142 20v786h-309v-615z" />
<glyph unicode="&#x2a8;" horiz-adv-x="1712" d="M32 929v84l152 70l70 227h104v-245h307v-136h-307v-615q0 -85 39.5 -138t104.5 -53q73 0 145 28.5t177 108.5q-43 109 -43 267q0 267 129.5 412t368.5 145q82 0 157 -16.5t124 -40.5l-55 -145q-134 50 -229 50q-315 0 -315 -403q0 -77 15 -150q92 68 175.5 96.5 t173.5 28.5q138 0 221 -65.5t83 -176.5q0 -129 -96.5 -205t-253.5 -76q-259 0 -385 158q-117 -88 -210 -123t-189 -35q-313 0 -313 328v620h-150zM1029 244q80 -119 248 -119q85 0 136 37.5t51 95.5q0 47 -39.5 74.5t-111.5 27.5q-60 0 -123 -23.5t-161 -92.5z" />
<glyph unicode="&#x2a9;" horiz-adv-x="1712" d="M30 929v82l186 60v61q0 194 85 291t262 97q101 0 206 -36l-46 -137q-91 29 -158 29q-89 0 -131.5 -58t-42.5 -184v-69h403l29 -145h9q53 83 140 123.5t190 40.5q195 0 292 -92.5t97 -296.5v-854q0 -149 -69.5 -233.5t-215.5 -84.5q-85 0 -142 24v141q60 -20 120 -20 q132 0 132 167v849q0 129 -57 191.5t-178 62.5q-162 0 -237.5 -89t-75.5 -295v-554h-174v929h-263v-929h-175v929h-186z" />
<glyph unicode="&#x2aa;" horiz-adv-x="1315" d="M169 0v1509h174v-1283q200 -105 404 -105q310 0 310 157q0 63 -57.5 107t-205.5 100q-150 58 -211 99.5t-89.5 92.5t-28.5 125q0 131 106.5 206.5t292.5 75.5q182 0 340 -71l-59 -139q-164 68 -292 68q-109 0 -165.5 -34.5t-56.5 -94.5q0 -58 48.5 -96.5t226.5 -106.5 q133 -49 196.5 -92t93.5 -96t30 -128q0 -153 -125.5 -233t-363.5 -80q-227 0 -394 83v-64h-174z" />
<glyph unicode="&#x2ab;" horiz-adv-x="1197" d="M169 0v1509h174v-444h764v-131l-565 -799h578v-135h-951zM343 117l571 812h-571v-812z" />
<glyph unicode="&#x2ac;" horiz-adv-x="1010" d="M0 667h139l132 -502l166 502h139l159 -504l139 504h137l-196 -667h-150l-161 499l-164 -499h-145zM0 1418h139l132 -502l166 502h139l159 -504l139 504h137l-196 -667h-150l-161 498l-164 -498h-145z" />
<glyph unicode="&#x2ad;" horiz-adv-x="1171" d="M169 0v463h834v-463h-175v300h-485v-300h-174zM169 955v463h834v-463h-175v300h-485v-300h-174z" />
<glyph unicode="&#x2ae;" horiz-adv-x="1245" d="M-40 923v138q43 23 135 23q124 0 190 -69t66 -198v-434q0 -129 58 -192.5t181 -63.5q161 0 236.5 89t75.5 298v551h175v-1542h-175v475q0 87 10 149h-12q-47 -77 -134.5 -120.5t-197.5 -43.5q-201 0 -295.5 96t-94.5 293v443q0 70 -29 98.5t-85 28.5q-59 0 -104 -19z" />
<glyph unicode="&#x2af;" horiz-adv-x="1245" d="M-40 923v138q43 23 135 23q124 0 190 -69t66 -198v-434q0 -129 58 -192.5t181 -63.5q161 0 236.5 89t75.5 298v551h175v-1208q0 -106 20.5 -148.5t76.5 -42.5q63 0 100 22v-133q-44 -32 -140 -32q-232 0 -232 331v144q0 87 10 149h-12q-47 -77 -134.5 -120.5 t-197.5 -43.5q-201 0 -295.5 96t-94.5 293v443q0 70 -29 98.5t-85 28.5q-59 0 -104 -19z" />
<glyph unicode="&#x2b0;" horiz-adv-x="1017" d="M153 379v1130h173v-337q0 -58 -8 -105q37 58 100.5 94.5t137.5 36.5q155 0 233.5 -71t78.5 -227v-521h-171v513q0 173 -157 173q-112 0 -163 -64t-51 -205v-417h-173z" />
<glyph unicode="&#x2b1;" horiz-adv-x="1017" d="M153 379v922q0 217 203 217q48 0 118 -24v-141q-57 25 -99 25q-49 0 -49 -68v-138q0 -58 -8 -97q39 55 103.5 89t134.5 34q155 0 233.5 -71t78.5 -227v-521h-171v513q0 173 -157 173q-112 0 -163 -64t-51 -205v-417h-173z" />
<glyph unicode="&#x2b2;" horiz-adv-x="481" d="M-55 53v136q71 -22 119 -22q49 0 69 26.5t20 81.5v911h173v-908q0 -246 -245 -246q-70 0 -136 21zM143 1380q0 52 29 75t70 23q43 0 69.5 -26t26.5 -72q0 -42 -26 -68.5t-70 -26.5q-41 0 -70 24t-29 71z" />
<glyph unicode="&#x2b3;" horiz-adv-x="711" d="M153 379v807h149l10 -168q47 99 101 140.5t133 41.5q57 0 117 -12l-19 -149q-60 15 -106 15q-90 0 -151 -70t-61 -175v-430h-173z" />
<glyph unicode="&#x2b4;" horiz-adv-x="711" d="M48 377l20 150q64 -17 105 -17q90 0 151 71t61 176v429h173v-807h-149l-9 169q-47 -98 -103 -140t-132 -42q-57 0 -117 11z" />
<glyph unicode="&#x2b5;" horiz-adv-x="711" d="M48 377l20 150q64 -17 105 -17q90 0 151 71t61 176v429h173v-896q0 -64 13 -94.5t51 -30.5q24 0 54.5 9t51.5 21v-131q-46 -32 -136 -32q-207 0 -207 256v133q0 63 15 127q-57 -101 -108.5 -141.5t-126.5 -40.5q-57 0 -117 11z" />
<glyph unicode="&#x2b6;" horiz-adv-x="927" d="M153 379v807h173v-308h161l205 308h200l-232 -331q87 -27 131.5 -86.5t44.5 -144.5q0 -115 -81 -180t-222 -65h-380zM326 514h193q79 0 113.5 31t34.5 79q0 119 -174 119h-167v-229z" />
<glyph unicode="&#x2b7;" horiz-adv-x="1267" d="M38 1186h180l114 -426q20 -70 36 -162q6 53 36 139l142 449h177l139 -449q29 -100 36 -138l18 80l20 81l115 426h177l-231 -807h-186l-140 449q-28 92 -40 159q-14 -98 -37 -161l-145 -447h-183z" />
<glyph unicode="&#x2b8;" horiz-adv-x="856" d="M19 1186h188l174 -453q35 -92 52 -159l52 161l165 451h184l-351 -906q-52 -133 -128 -190.5t-182 -57.5q-79 0 -129 16v130q70 -13 109 -13q110 0 159 129l37 97z" />
<glyph unicode="&#x2b9;" horiz-adv-x="347" d="M24 932q68 277 99 486h186l15 -21q-50 -193 -171 -465h-129z" />
<glyph unicode="&#x2ba;" horiz-adv-x="712" d="M24 932q63 256 97 486h186l15 -21q-47 -188 -171 -465h-127zM387 932q25 97 57 246.5t45 239.5h186l15 -21q-48 -188 -171 -465h-132z" />
<glyph unicode="&#x2bb;" horiz-adv-x="347" d="M24 954q22 87 69.5 217t101.5 247h129q-64 -246 -100 -486h-188z" />
<glyph unicode="&#x2bc;" horiz-adv-x="618" d="M161 962q14 58 28 122t27 128.5t23.5 124.5t18.5 111h193l14 -21q-14 -53 -33 -112t-41.5 -119.5t-47.5 -119.5t-49 -114h-133zM435 1781zM439 1236z" />
<glyph unicode="&#x2bd;" horiz-adv-x="347" d="M24 1397l14 21h188q36 -243 100 -486h-129q-44 91 -96.5 229t-76.5 236z" />
<glyph unicode="&#x2be;" d="M-106 1143v99q49 0 80.5 28.5t31.5 80.5q0 53 -28.5 81t-83.5 28v102q101 0 159.5 -57t58.5 -154q0 -98 -59.5 -153t-158.5 -55z" />
<glyph unicode="&#x2bf;" d="M-106 1353q0 94 58.5 151.5t159.5 57.5v-100q-49 0 -80.5 -28t-31.5 -81q0 -52 28.5 -80.5t83.5 -28.5v-101q-99 0 -158.5 56t-59.5 154z" />
<glyph unicode="&#x2c0;" horiz-adv-x="574" d="M16 1456q106 66 238 66q129 0 204.5 -63.5t75.5 -171.5q0 -187 -246 -262v-103h-129v166q241 55 241 197q0 57 -40 93t-110 36q-45 0 -97.5 -16.5t-93.5 -44.5z" />
<glyph unicode="&#x2c1;" horiz-adv-x="574" d="M32 1287q0 -187 246 -262v-103h129v166q-241 55 -241 197q0 57 40 93t110 36q45 0 97.5 -16.5t93.5 -44.5l43 103q-106 66 -238 66q-129 0 -204.5 -63.5t-75.5 -171.5z" />
<glyph unicode="&#x2c2;" horiz-adv-x="1135" d="M99 464v99l936 467v-156l-749 -353l749 -314v-154z" />
<glyph unicode="&#x2c3;" horiz-adv-x="1135" d="M99 53v154l749 312l-749 355v156l936 -467v-99z" />
<glyph unicode="&#x2c4;" horiz-adv-x="1135" d="M78 72l411 935h99l466 -933l-154 -2l-354 749l-313 -749h-155z" />
<glyph unicode="&#x2c5;" horiz-adv-x="1135" d="M78 1005l154 2l354 -749l313 749h155l-411 -935h-99z" />
<glyph unicode="&#x2c6;" horiz-adv-x="1177" d="M252 1204v22q121 130 171 192t74 104h178q51 -98 248 -296v-22h-123q-87 51 -216 178q-127 -124 -212 -178h-120z" />
<glyph unicode="&#x2c7;" horiz-adv-x="1177" d="M252 1496v26h120q110 -72 212 -183q122 122 216 183h123v-26q-198 -199 -248 -292h-178q-59 99 -245 292z" />
<glyph unicode="&#x2c8;" d="M-80 1184v325h160v-325h-160z" />
<glyph unicode="&#x2c9;" horiz-adv-x="1169" d="M290 1204v140h590v-140h-590z" />
<glyph unicode="&#x2ca;" d="M-79 1204v24q37 47 94 132.5t96 161.5h210v-20q-43 -63 -133 -157t-151 -141h-116z" />
<glyph unicode="&#x2cb;" d="M-320 1502v20h209q31 -64 88 -153t103 -141v-24h-117q-73 58 -160 150.5t-123 147.5z" />
<glyph unicode="&#x2cc;" d="M-80 -79h160v-325h-160v325z" />
<glyph unicode="&#x2cd;" d="M-293 -151h590v-140h-590v140z" />
<glyph unicode="&#x2ce;" d="M-199 -87h209q27 -56 84 -146t107 -148v-24h-118q-72 58 -159 150.5t-123 146.5v21z" />
<glyph unicode="&#x2cf;" d="M-199 -381q52 66 104.5 149.5t84.5 144.5h211v-21q-43 -62 -133 -156t-151 -141h-116v24z" />
<glyph unicode="&#x2d0;" d="M-177 0l177 276l177 -276h-354zM-177 1065h354l-177 -276z" />
<glyph unicode="&#x2d1;" d="M-177 1065h354l-177 -276z" />
<glyph unicode="&#x2d2;" d="M-106 488v99q49 0 80.5 28.5t31.5 80.5q0 53 -28.5 81t-83.5 28v102q101 0 159.5 -57t58.5 -154q0 -98 -59.5 -153t-158.5 -55z" />
<glyph unicode="&#x2d3;" d="M-106 698q0 94 58.5 151.5t159.5 57.5v-100q-49 0 -80.5 -28t-31.5 -81q0 -52 28.5 -80.5t83.5 -28.5v-101q-99 0 -158.5 56t-59.5 154z" />
<glyph unicode="&#x2d4;" d="M-209 -294h143v199h132v-199h143v-119h-418v119z" />
<glyph unicode="&#x2d5;" d="M-209 -95h418v-119h-143v-199h-132v199h-143v119z" />
<glyph unicode="&#x2d6;" d="M-209 -195h143v140h132v-140h143v-119h-143v-139h-132v139h-143v119z" />
<glyph unicode="&#x2d7;" d="M-209 -195h418v-119h-418v119z" />
<glyph unicode="&#x2d8;" horiz-adv-x="1177" d="M278 1471h107q8 -69 48.5 -98t152.5 -29q98 0 145.5 31t55.5 96h109q-12 -128 -95.5 -197.5t-218.5 -69.5q-137 0 -216 67t-88 200z" />
<glyph unicode="&#x2d9;" horiz-adv-x="512" d="M155 1353q0 58 29.5 84.5t73.5 26.5q41 0 71.5 -26.5t30.5 -84.5q0 -57 -30.5 -84t-71.5 -27q-44 0 -73.5 27t-29.5 84z" />
<glyph unicode="&#x2da;" horiz-adv-x="1146" d="M354 1414q0 95 58 152t158 57q98 0 159.5 -57.5t61.5 -149.5q0 -98 -61 -155t-160 -57q-100 0 -158 56.5t-58 153.5zM459 1414q0 -52 28.5 -81.5t82.5 -29.5q50 0 80.5 29.5t30.5 81.5q0 53 -31.5 82.5t-79.5 29.5t-79.5 -29.5t-31.5 -82.5z" />
<glyph unicode="&#x2db;" horiz-adv-x="393" d="M34 -250q0 135 155 250h123q-68 -64 -101.5 -117t-33.5 -114q0 -44 23.5 -66.5t65.5 -22.5t96 13v-112q-67 -18 -123 -18q-205 0 -205 187z" />
<glyph unicode="&#x2dc;" horiz-adv-x="1177" d="M250 1204q12 118 68 186t151 68q43 0 84.5 -18t79 -39t72.5 -39t66 -18q47 0 70.5 29t38.5 87h100q-12 -116 -68 -185t-150 -69q-41 0 -81 18t-78 38.5t-73.5 38.5t-68.5 18q-48 0 -72 -28.5t-38 -86.5h-101z" />
<glyph unicode="&#x2dd;" horiz-adv-x="1148" d="M216 1204v24q34 45 84.5 130.5t88.5 163.5h191v-20q-32 -55 -116 -150t-148 -148h-100zM566 1204v24q46 63 97.5 151.5t75.5 142.5h190v-20q-32 -55 -116 -150t-148 -148h-99z" />
<glyph unicode="&#x2de;" d="M-302 699l247 65l33 -118q22 -82 52 -118.5t76 -36.5q78 0 160 53l36 -131q-109 -75 -230 -75q-178 0 -250 250l-88 -23z" />
<glyph unicode="&#x2df;" d="M-203 1217l118 120l-118 117l84 85l119 -119l117 119l86 -85l-120 -117l120 -120l-86 -83l-117 117l-119 -117z" />
<glyph unicode="&#x2e0;" horiz-adv-x="852" d="M19 1186h184l192 -443l32 -80q9 29 20.5 58.5t202.5 464.5h182l-309 -678q44 -85 69.5 -151.5t25.5 -127.5q0 -83 -54 -139t-139 -56t-138.5 54.5t-53.5 140.5q0 59 22 123t73 156zM375 233q0 -27 15.5 -45.5t34.5 -18.5q21 0 35 19t14 45q0 23 -12 64t-37 84 q-25 -43 -37.5 -84t-12.5 -64z" />
<glyph unicode="&#x2e1;" horiz-adv-x="481" d="M153 379v1130h173v-1130h-173z" />
<glyph unicode="&#x2e2;" horiz-adv-x="808" d="M103 980q0 103 86 161.5t234 58.5q145 0 280 -59l-57 -130q-133 56 -231 56q-72 0 -108 -21.5t-36 -58.5q0 -35 32 -60.5t160 -73.5q143 -55 197.5 -110.5t54.5 -134.5q0 -115 -88 -178.5t-252 -63.5q-163 0 -269 55v151q157 -75 273 -75q167 0 167 101q0 40 -37.5 68.5 t-144.5 68.5q-123 47 -169.5 78t-69 70t-22.5 97z" />
</font>
</defs>
</svg>
